<svg xmlns="http://www.w3.org/2000/svg" xml:space="preserve" fill-rule="evenodd" stroke-linecap="round" stroke-linejoin="round" stroke-miterlimit="1.5" clip-rule="evenodd" viewBox="0 0 1250 1250">
  <g fill="#a64800">
    <path fill-rule="nonzero" d="M355.417 1106.25c-29.584-8.333-50-19.167-70.834-38.75-10.416-10.417-22.916-17.5-32.5-19.167-25-5-51.666-35.833-78.75-90.833-12.5-25.833-25.833-57.083-29.166-69.583-7.5-25.417-9.167-60.834-2.5-50.417 7.083 11.25 9.166.833 2.083-12.5-9.167-17.917-6.667-32.917 25.417-142.5 1.666-5.833 6.666-7.5 21.666-7.5h19.584l13.75-26.667c17.916-34.583 70.416-88.333 101.25-102.916 45.833-22.5 70.833-32.917 78.75-32.917 4.583 0 15.833-5 24.583-10.833 18.75-12.084 59.167-18.334 68.75-10.417 7.083 6.25 22.917 2.5 45.833-10.417 22.084-12.5 48.334-13.75 48.334-2.083 0 7.917.833 7.917 15.833 2.083 8.333-3.75 19.167-10 24.167-14.583 5.416-5.417 14.583-7.917 26.666-7.917h17.917l-2.5 50c-2.083 41.25-1.667 50 3.333 50 11.25 0 19.167 16.667 28.75 59.584 2.084 9.166 5 11.25 14.584 11.25 10.833 0 12.083 1.666 14.583 17.5 6.25 45 7.5 77.5 3.333 92.083-3.75 12.917-3.333 15.417 1.667 15.417 5.417 0 5.833 7.916 3.333 53.333-2.5 52.917-10 91.25-20.833 107.083-3.333 4.584-5.833 14.584-5.833 22.084 0 16.25-21.667 50.833-32.084 50.833-3.75 0-5.416 2.5-4.166 5.833 1.25 2.917-1.667 12.084-6.25 19.584-5 7.916-9.584 12.083-10.417 9.166-2.083-6.25-24.583-7.083-28.333-1.25-1.25 2.5 1.25 4.167 5.833 4.167 12.917 0 10.833 13.75-2.5 21.667-6.667 3.333-20.417 7.916-31.667 9.166-30.416 4.584-76.666 27.5-55.416 27.5 3.75 0 6.666 2.917 6.666 6.25 0 10.834-40 17.917-112.5 20.417-52.916 1.667-73.75.833-90.416-3.75Zm45.833-89.583c5 0 16.25 1.25 25 2.5 12.917 2.5 15.417 4.583 15.417 12.5 0 5.416 2.083 10 4.166 10 2.5 0 4.167-4.584 4.167-10 0-7.917 2.917-10.417 13.75-12.5 17.917-3.334 48.75-16.25 48.75-20 0-2.084 3.333-3.334 7.5-3.334 3.75 0 9.167-4.166 11.25-9.166 2.917-7.084 8.333-10 18.75-10.834 14.583-1.25 15-1.666 13.333-16.25-1.25-7.916-.416-15.833 1.667-17.5 4.167-2.916 13.75-26.25 17.083-40.833 1.667-7.5 5-9.583 16.25-9.583 12.5 0 14.167 1.25 14.167 11.666.417 10.834.833 10.834 8.75-4.583 12.5-23.333 24.583-75.417 24.583-104.583 0-62.084-43.75-138.334-95.416-166.25-28.334-15.417-75-25-104.584-21.667-42.916 5.417-107.916 39.583-141.25 74.583l-14.583 15h11.25c8.333 0 11.25-2.083 11.25-8.333 0-5.417 2.917-8.333 8.333-8.333 4.584 0 8.334-1.667 8.334-4.167 0-2.083 6.666-4.167 14.583-4.167 13.75 0 14.583.834 14.583 14.584 0 11.666-1.666 14.583-8.333 14.583-4.583 0-8.333 2.083-8.333 4.167 0 2.5-5.417 4.166-12.5 4.166-9.584 0-12.5 1.667-12.5 8.334 0 6.666-2.917 8.333-14.167 8.333-13.333 0-14.583-1.25-15.833-13.333l-1.25-13.75-9.584 15c-10.833 17.916-11.25 20.416-2.916 20.416 4.166 0 6.25 4.584 6.25 14.584 0 7.916-1.667 14.583-4.167 14.583-2.083 0-4.167 2.917-4.167 6.25s-1.666 6.25-4.166 6.25c-2.084 0-4.167 2.917-4.167 6.25s-1.667 6.25-3.333 6.25c-2.084 0-6.25 12.917-9.167 28.75-4.583 25.417-4.583 31.25 1.667 50 10 31.25 9.166 42.083-4.167 42.083-9.167 0-10 1.25-7.5 9.584 1.25 5 6.667 16.666 11.667 25.833l8.75 16.667 1.25-13.75c1.25-13.334 2.083-13.75 16.666-12.5 13.334 1.25 15.417 2.916 16.667 12.916 1.25 8.75 3.75 11.25 11.667 11.25 7.916 0 10 2.084 10 10.417 0 9.167 1.666 10.417 14.583 10.417 7.917 0 14.583 2.083 14.583 4.166 0 2.5 2.917 4.167 6.25 4.167 3.334 0 6.25 2.083 6.25 4.167 0 2.5 2.917 4.166 6.25 4.166 3.334 0 6.25 2.084 6.25 4.167 0 2.5 3.75 4.167 8.334 4.167 6.666 0 8.333 2.916 8.333 14.583 0 13.75-.833 14.583-14.583 14.583-7.917 0-14.584-1.666-14.584-4.166 0-2.084-3.75-4.167-8.333-4.167s-8.333-1.667-8.333-4.167c0-2.083-2.917-4.166-6.25-4.166-3.334 0-6.25-1.667-6.25-4.167 0-2.083-2.917-4.167-6.25-4.167-3.75 0-6.25-3.75-6.25-10.416 0-9.167-1.667-10.417-14.584-10.417-12.5 0-14.583-1.25-14.583-10 0-7.917-2.5-10.417-12.5-11.667l-12.5-1.666 11.25 14.583C280 987.083 287.5 995 290 997.083c2.917 1.667 7.917 5.417 10.833 8.334 15.417 15 37.5 26.666 61.667 32.5l27.083 7.083 1.25-14.167c1.25-11.25 2.917-14.166 10.417-14.166Z"/>
    <path fill-rule="nonzero" d="M362.5 672.917c0-13.75.833-14.584 14.583-14.584s14.584.834 14.584 14.584-.834 14.583-14.584 14.583-14.583-.833-14.583-14.583Z"/>
    <path d="m645.485 1015.55-.975.961-.569.329-.135.076c-1.265.333-2.522.713-3.751 1.142-1.04.363-3.376 1.178-4.476 1.688-.868.402-1.425.853-1.678 1.103-1.482 1.461-1.405 3.008-1.157 4.024.178.729.94 3.41 4.592 3.225 2.468-.125 6.509-1.861 9.396-3.329l.527-.127c1.035-.243 1.888-.853 2.455-1.661 1.009-.842 2.48-2.249 3.176-3.141.815-1.044 1.067-2.012 1.131-2.468.313-2.243-.747-3.57-2.226-4.342-.52-.271-2.026-1.066-4.318.156-.981.523-1.667 1.384-1.992 2.364Z"/>
    <path d="M642.057 1013.77c-1.421.135-2.734.644-3.982 1.317-.699.377-1.298.968-2.036 1.078-2.274.337-3.847 2.458-3.509 4.733.337 2.275 2.458 3.847 4.733 3.51 1.282-.191 2.505-.719 3.7-1.386.616-.344 1.164-.888 1.878-.955 2.289-.216 3.972-2.251 3.756-4.54-.216-2.29-2.251-3.973-4.54-3.757Z"/>
  </g>
  <g fill="#ac5200" fill-rule="nonzero">
    <path d="M350 1050.83c-15-3.75-33.333-11.666-41.25-17.083l-14.167-10-7.5 8.75c-3.75 5-9.166 9.167-11.666 9.167-2.084 0 .416-5 6.25-11.25l10.416-11.25-10-5.834c-14.583-9.166-43.75-54.166-55.416-85.833-18.334-51.25-9.167-137.083 22.5-201.667 32.083-65.833 120.416-126.666 193.75-132.5 87.916-7.5 152.916 26.667 191.25 101.25 21.666 42.084 25.416 60.834 22.916 112.5-3.75 87.084-35 145.417-106.666 200.834C490 1054.58 421.25 1069.58 350 1050.83Zm25-32.083c0-4.167 4.583-6.25 14.583-6.25s14.584 2.083 14.584 6.25c0 8.333 40.416 8.333 68.75 0C500 1010.414 533.75 987.08 547.5 967.08c10.417-14.583 29.167-27.916 37.083-25.833 2.084.417 2.084-1.25.834-4.167-1.667-2.5.833-7.916 5.416-12.5 11.667-10.833 32.5-55.416 37.917-82.083 10-48.333 2.5-96.25-22.5-140.417-36.25-64.583-93.333-93.333-161.667-81.666-28.333 5-78.333 25.416-96.666 39.583-7.917 6.25-7.917 6.25 5.416 6.667 12.5 0 13.334.833 13.334 14.583s-.834 14.583-14.167 14.583-14.583-1.25-15.833-13.333l-1.25-13.75-21.667 21.25c-19.583 18.75-22.083 22.917-22.083 38.333 0 14.584-1.25 17.5-8.334 17.5-5.833 0-8.333 2.917-8.333 10 0 6.25-2.917 10.834-7.5 11.667-11.667 3.333-23.333 55.417-19.583 89.167 1.666 14.583 4.166 26.666 5.833 26.666 5.833 0 12.917 20.834 12.917 36.667 0 10 4.166 21.667 12.5 34.167 6.666 10.416 12.5 16.25 12.5 13.75 0-3.334 5.833-5.417 14.583-5.417 13.75 0 14.583.833 14.583 14.583 0 7.917-2.083 14.584-4.583 14.584-9.583 0 2.917 10 27.083 21.25 29.167 13.75 31.667 14.166 31.667 5.833Z"/>
    <path d="M387.5 668.75c0-13.75.833-14.583 14.583-14.583s14.584.833 14.584 14.583-.834 14.583-14.584 14.583S387.5 682.5 387.5 668.75Z"/>
  </g>
  <path fill="#4a00b5" fill-rule="nonzero" d="M408.333 1106.67c0-5.834 12.084-10.834 28.334-10.834 6.25 0 9.166 2.5 9.166 8.334 0 7.083-2.916 8.333-18.75 8.333-13.333 0-18.75-1.667-18.75-5.833Zm87.5-3.34c0-3.75 8.75-8.75 25-12.916 31.25-8.75 33.334-8.75 33.334.833s-6.25 12.083-35.834 15.417c-18.333 2.5-22.5 1.666-22.5-3.334Zm93.75-48.75c6.667-6.666 52.5-29.583 58.75-29.583 10.417 0 6.25 16.25-5.416 22.083-14.584 7.5-59.584 13.75-53.334 7.5Z"/>
  <path fill="none" stroke="#4a00b5" stroke-width="4.17" d="M643.361 1028.13c3.416-1.129 10.298-4.456 10.989-7.696.259-1.214.427-2.602 1.098-3.691.339-.552 1.941-1.791 1.292-1.509"/>
  <path fill="#4a00b5" fill-rule="nonzero" d="M662.5 1020.83c0-2.083-2.917-4.166-6.25-4.166-3.75 0 3.75-14.167 20.833-39.167 16.25-23.333 27.084-43.75 27.084-50 0-7.917 2.083-10.833 8.333-10.833 7.083 0 8.333 2.916 8.333 18.75 0 14.166-2.083 20-8.333 23.75-4.583 2.916-8.333 8.333-8.333 12.5 0 3.75-5.417 9.166-12.5 12.5-8.75 3.75-11.667 7.5-10 12.5 1.25 3.75-.834 12.083-5 17.916-7.084 10.417-14.167 13.75-14.167 6.25Zm-247.917-13.33c-15-7.917-44.166-38.333-52.5-54.167-10-19.166-25-27.5-56.666-30.833-51.667-5.833-67.917-22.083-67.917-68.333 0-17.5 2.917-33.334 7.917-44.584 11.25-24.166 42.916-53.333 75.416-69.166 25.834-12.5 29.584-13.334 75.417-13.334 47.917 0 48.75 0 64.583 12.5 9.167 7.084 25.417 17.917 36.25 24.584 23.334 13.333 41.25 36.25 48.75 62.5 7.917 27.916 3.334 103.333-7.083 127.5-10.417 23.333-27.5 44.166-43.333 52.083-13.75 7.5-68.334 8.333-80.834 1.25Zm17.084-112.083c11.25-5.417 22.5-15.417 30.416-27.5 18.75-28.334 16.667-50-7.5-71.25-13.75-12.5-32.916-10.417-56.25 6.25-21.25 15-32.916 35-32.916 56.666 0 14.167 2.5 19.167 15 30.834 17.916 15.833 27.083 17.083 51.25 5Zm277.916 7.083c3.75-5.417 8.75-18.75 11.667-29.167 2.917-11.25 7.083-19.166 10.417-19.166 7.083 0 7.5 14.583 1.25 40-4.167 16.666-5.834 18.333-17.084 18.333-12.5 0-12.5 0-6.25-10Zm-569.166-84.583c-1.667-1.25-2.917-7.917-2.917-14.584 0-8.75 2.083-11.666 8.333-11.666 8.75 0 10 4.166 5.834 20-2.5 9.166-6.25 11.25-11.25 6.25Zm5.416-45.417c0-14.583 13.334-64.167 17.5-64.167 1.667 0 3.334-5.416 3.334-12.5 0-18.333 11.25-29.166 30-29.166 14.583 0 15.833 1.25 20.416 15.833 3.75 13.333 3.334 18.333-1.666 28.333-4.584 7.917-6.667 9.584-7.084 5 0-12.916-9.583-28.333-17.083-28.333-7.5 0-8.75 3.75-27.083 70-7.5 26.25-18.334 35.417-18.334 15Zm475-291.25c0-8.333 2.084-10.417 10.417-10.417 7.5 0 10.417-2.083 10.417-7.916 0-8.75 7.916-12.917 23.333-12.917 7.5 0 10 2.083 10 9.583 0 5 1.25 13.334 2.5 18.75 2.083 7.5.833 9.167-6.25 9.167-5.833 0-8.75-2.5-8.75-8.333 0-11.25-6.667-10.417-21.667 2.083-6.666 5.833-14.166 10.417-16.25 10.417-2.083 0-3.75-4.584-3.75-10.417Z"/>
  <g fill="#b15d00" fill-rule="nonzero">
    <path d="M258.333 1050.42c0-14.584.834-16.25 9.167-13.75 6.25 1.666 11.667-1.25 19.167-10l10-12.084-7.5 13.75c-7.917 13.75-7.917 14.167 0 20 4.583 3.334 5.833 5.834 3.333 5.834-2.917 0-5 2.916-5 6.25 0 4.166-4.583 6.25-14.583 6.25-14.167 0-14.584-.417-14.584-16.25Zm118.75-12.92c-45.833-4.167-80-26.25-109.583-69.167-11.667-17.083-31.25-71.666-28.333-79.166 1.25-3.334.416-5.834-2.084-5.834s-3.333-3.75-1.666-8.75c2.083-5.833 1.25-7.916-1.25-6.25-2.5 1.667-3.334-.833-2.084-5.833 3.75-14.583 12.917-9.167 20 12.083C261.25 902.5 308.75 966.667 320 966.667c2.917 0 6.25 2.916 7.5 6.25 1.667 3.333 5 6.25 7.917 6.25 2.916 0 6.25 1.666 7.083 3.333 2.083 5 60.833 32.917 80.417 37.917 9.166 2.5 23.75 4.583 32.5 4.583 16.25 0 20.416 5.417 8.333 10.417-10.417 4.583-34.583 5.416-34.583 1.25 0-1.667-2.084-3.334-4.584-3.334-2.083 0-2.916 2.084-1.666 4.167 2.916 4.583-.417 4.583-45.834 0Zm185.417-75c0-7.083 4.583-22.083 10.417-33.333 5.416-10.834 11.25-27.917 12.916-37.084 1.667-9.583 5-17.083 7.917-17.083 9.167 0 18.75-34.167 18.75-67.5 0-75-36.667-140.417-90.833-161.25-26.25-10.417-50.417-10.833-85.417-2.083l-25.833 6.25 1.25 16.666c1.666 16.25 1.666 16.25-13.334 16.25-12.5 0-15-1.666-15-8.75 0-4.583-1.666-7.5-3.75-6.25-1.666 1.25-2.5 7.084-1.666 12.5C380 690.417 378.75 691.25 360 692.5c-16.667.833-21.25 2.917-24.583 10.833-2.084 5-6.25 9.167-9.167 9.167s-5.417 2.083-5.417 4.167c0 2.5-2.083 4.166-4.583 4.166-7.083 0-41.667 39.584-54.167 62.084-5.833 10.416-12.083 26.25-13.75 35-1.666 8.75-5.416 15.416-8.333 15.416-7.5 0-11.25-14.583-5-21.25 3.333-3.75 3.333-4.166-1.25-1.666-3.75 2.083-3.333 0 1.25-7.5 3.75-5.417 6.667-12.084 6.25-13.75-1.667-10.417.833-18.75 5.417-15.834 2.916 2.084 3.333 1.25 1.25-2.083-1.667-3.333 3.333-18.333 12.916-37.083C307.083 641.25 425 585 520.833 610c30.834 7.917 44.584 15.833 65.834 36.667 47.5 46.666 69.583 120.833 57.083 192.083-3.333 19.583-10 44.583-15 55.417-11.667 27.5-40.833 65-48.333 62.5-3.334-1.25-5-.834-4.167.833.833 1.667-1.667 6.25-6.25 10.417-7.083 6.666-7.5 6.666-7.5-5.417Z"/>
    <path d="M575 781.25c0-13.75.833-14.583 14.583-14.583s14.584.833 14.584 14.583-.834 14.583-14.584 14.583S575 795 575 781.25Zm-130-96.667c-10-1.666-11.667-3.75-11.667-16.25 0-15.416 3.334-16.666 34.584-11.666 14.166 2.5 15.416 3.75 15.416 16.666 0 13.334-.833 14.167-13.333 13.75-7.5-.416-18.75-1.666-25-2.5Z"/>
  </g>
  <g fill="#b76800" fill-rule="nonzero">
    <path d="M250 1067.92c0-28.334 9.583-36.667 29.167-26.25 6.666 3.333 7.083 6.25 3.333 20.833-4.167 15.417-5.417 16.667-18.333 16.667-12.5 0-14.167-1.25-14.167-11.25Zm86.667-65.42c-4.167-2.917-5.834-6.667-4.167-8.333 1.667-2.084 0-2.5-3.75-1.667-3.333.417-11.667-4.167-18.333-11.25-6.25-6.667-9.167-8.75-5.834-4.167 2.917 4.584-1.25 1.667-9.166-6.25-8.334-7.916-14.167-15.416-13.334-16.25.417-.833-.833-4.166-3.333-7.5-3.75-4.166-2.917-5.416 4.583-5.416 5 0 15.834 7.083 24.584 15.833 8.333 8.333 22.916 19.167 32.083 23.75 10 5.417 16.667 12.083 17.5 17.917 1.667 10.416-2.917 11.666-11.25 4.166-4.583-4.166-5.417-4.166-2.917 0 3.75 6.25 2.5 6.25-6.666-.833ZM585 907.5c1.667-12.083 4.583-32.917 6.25-45.833 1.667-13.334 1.667-24.167-.417-24.167-5.416 0-3.75-28.333 2.084-30.417 2.5-1.25.833-2.5-4.167-2.5-7.5-.416-9.583-2.916-9.583-10.833 0-5.833-1.667-10.417-4.167-10.417-2.083 0-4.167-6.666-4.167-14.583 0-11.667 1.667-14.583 8.334-14.583 8.75 0 10-5 4.166-18.75-3.333-7.5-3.75-7.084-3.75 3.333-.416 10-2.083 11.25-15 11.25-13.75 0-14.583-.833-14.583-14.583 0-13.334.833-14.584 12.5-14.584 7.083 0 12.5-1.25 12.5-3.333 0-1.667-8.333-12.5-18.75-24.167-24.583-28.333-57.5-41.666-92.5-37.083-26.667 2.917-50.833 12.917-54.167 21.667-1.25 3.333-8.75 5.416-18.333 5.416-8.75 0-16.25 2.084-16.25 4.167 0 2.5-2.917 4.167-5.833 4.167-7.084 0-55 27.5-58.75 33.333-1.25 2.5-7.917 4.167-14.584 4.167H283.75l7.083-12.5c3.75-6.667 8.75-12.5 10.417-12.5 2.083 0 2.083 2.083.417 5-1.667 2.916-1.25 3.333 1.666 1.666 2.5-1.666 3.75-5.416 2.084-8.75-1.25-3.333 0-6.25 2.5-6.25C310 695.833 322.5 687.5 335 677.5c43.333-35.417 90.417-52.5 145.833-52.5 52.917 0 92.084 21.667 117.084 64.583 30 51.25 37.083 133.334 17.083 189.167-18.333 50.417-35 66.667-30 28.75Z"/>
    <path d="M467.5 677.083c.417-13.75 1.25-14.583 14.583-14.583 12.917 0 13.75.833 13.75 14.583s-.833 14.584-14.583 14.584-14.167-.417-13.75-14.584Z"/>
  </g>
  <g fill="#4900d8" fill-rule="nonzero">
    <path d="M437.5 1008.33c0-7.083 2.917-8.333 18.75-8.333s18.75 1.25 18.75 8.333c0 7.084-2.917 8.334-18.75 8.334s-18.75-1.25-18.75-8.334Zm-51.25-19.997c-4.167-4.166-7.083-13.75-7.083-20.833 0-11.25-1.667-13.333-10.417-13.333-5.833 0-10.417-1.667-10.417-3.334 0-2.083-3.333-7.5-7.5-12.5-5.833-6.666-17.5-10.416-47.083-15.416-21.667-3.334-39.583-7.917-40.417-10.417-.833-2.083-3.75-4.167-6.25-4.167-7.083-.416-19.583-27.083-22.5-47.916C232.5 842.5 242.917 800 250 800c1.667 0 4.167-3.75 5.417-8.333 1.25-5 5.833-8.334 10.416-8.334 5.834 0 9.167-3.333 10-9.166.834-7.917 4.167-10 17.917-10.834l16.667-1.25-22.084 21.25c-36.25 34.584-47.083 70.834-30 99.167 10 16.25 26.25 23.75 59.584 27.5 30.833 3.333 46.666 11.667 55.416 28.75 3.75 7.083 16.25 23.333 27.917 35.417l21.25 21.666h-14.583c-9.167 0-17.5-2.916-21.667-7.5Zm125.417-20.416c14.583-20.834 22.5-44.584 24.583-77.084 4.167-55.416-12.917-92.083-52.917-115-11.25-6.666-19.583-13.333-17.916-14.583 4.166-4.583 30.416-3.333 30.416 1.25 0 2.5 2.917 4.167 6.25 4.167 4.167 0 6.25 4.166 6.25 12.5 0 11.25 1.25 12.5 12.5 12.5s12.5 1.25 12.5 12.5c0 8.333 2.084 12.5 6.25 12.5 3.334 0 7.084 6.25 9.167 15.833 5 22.5 2.917 94.167-2.5 95.833-2.5.834-4.583 7.084-4.583 13.75 0 7.917-2.084 12.084-6.25 12.084-4.167 0-6.25 4.166-6.25 12.5 0 11.25-1.25 12.5-12.917 12.5h-12.5l7.917-11.25Z"/>
    <path d="M367.5 902.5c-15-13.75-15.417-15.417-15.417-42.917 0-34.166 8.75-51.25 34.584-69.583 13.75-10 23.333-12.917 43.75-14.167 22.5-1.25 27.083-.416 36.666 8.334 16.25 14.166 20.417 25 20.417 52.5 0 46.25-34.583 80-82.5 80-19.167 0-23.75-1.667-37.5-14.167Zm76.667-153.75c-17.917-12.917-59.167-15-90.834-3.75l-24.166 8.333v-10c0-8.333 2.083-10 12.083-10 6.667 0 12.917-2.083 13.75-5 2.5-7.083 83.333-7.083 85.833 0 .834 2.5 5 5 9.584 5 5.833 0 7.916 2.917 7.916 12.5 0 7.084-.416 12.5-.833 12.5-.833 0-6.667-4.583-13.333-9.583Z"/>
  </g>
  <path fill="#5d903c" fill-rule="nonzero" d="m199.167 1157.92 1.666-28.75h18.334c13.75 0 18.333 1.666 18.333 6.25 0 3.75 6.667 9.583 14.583 13.333 8.75 4.167 14.584 10 14.584 14.583 0 4.167-1.25 7.5-2.917 7.5-11.667 0-57.917 9.584-61.667 12.5-2.916 2.5-3.75-5.833-2.916-25.416Zm34.166-64.17c0-13.75.834-14.583 14.584-14.583s14.583.833 14.583 14.583-.833 14.583-14.583 14.583-14.584-.833-14.584-14.583Zm783.337-369.167c0-4.583 8.333-20 18.333-34.166 10-14.167 20.833-31.667 24.583-38.334 6.25-12.916 58.75-88.333 66.667-95.833 7.5-7.5-15 28.333-39.583 62.917-13.334 18.75-32.5 52.083-43.334 74.166-18.333 39.167-26.666 48.75-26.666 31.25Zm7.08-95.416c25.417-37.084 64.583-81.25 77.917-88.334 7.083-3.75 6.666-2.5-1.667 9.584-15 21.666-63.75 78.75-83.333 97.5-17.084 16.666-17.084 16.25 7.083-18.75Zm-54.167-99.584c-2.083-9.166 20.834-51.25 42.917-78.75 7.083-9.166 22.083-22.916 32.5-30.416l19.583-13.75-22.083 24.583c-14.583 15.833-29.167 38.75-41.667 65.417-19.166 40.416-27.083 48.333-31.25 32.916Zm-26.25-57.5c-1.666-6.666.417-21.666 6.25-39.583 10.417-32.5 14.167-35.417 8.75-7.5-8.333 42.5-2.916 43.75 19.167 5.417 18.333-31.25 77.917-94.584 103.75-109.167 14.583-8.333 12.5-5-17.083 25.417-45.417 46.666-76.25 84.166-92.917 112.916-14.583 25.834-23.75 30-27.917 12.5Zm-43.75-58.75c-5-5.416-7.5-21.25-10.416-67.5-5.834-97.5-4.584-122.916 8.333-156.25 12.5-32.916 37.917-76.25 56.667-97.916 11.25-12.917 10.416-9.584-9.584 31.25-12.5 25.416-25.833 56.25-29.583 68.75-7.5 25-8.333 71.666-2.5 112.5 2.083 15 5 47.083 6.667 72.083 2.5 42.083 2.5 44.583-5 44.167-4.167 0-10.834-3.334-14.584-7.084Zm-120-104.583c-5-3.333-5-11.667.834-60.417 8.333-70.416 17.916-91.25 64.166-136.25 17.5-17.083 27.917-25 23.334-18.333-32.084 47.5-61.25 128.333-67.084 185.417-2.916 31.666-7.5 38.333-21.25 29.583Zm-93.333-49.167c-1.667-1.25-2.917-16.666-2.917-33.75 0-33.333 7.5-68.75 20.834-97.5l8.333-17.916-1.667 25c-2.083 24.166 2.084 79.166 7.917 111.666l2.917 15.417h-16.25c-9.167 0-17.917-1.25-19.167-2.917Zm-40-20.833c0-2.083 3.75-18.333 7.917-36.667l7.916-33.333-2.5 33.333c-2.5 35-3.333 39.584-10 39.584-2.083 0-3.75-1.25-3.333-2.917Zm-42.917-42.917c8.334-17.916 15.417-32.5 16.25-31.666 3.334 2.916-22.083 65-26.666 65-2.5 0 1.666-13.75 10.416-33.334Zm-57.5 23.75c0-.833 5.834-6.666 12.5-13.333l12.917-12.083-6.667 13.333c-3.75 7.5-9.583 13.333-12.916 13.333-3.334 0-5.834-.416-5.834-1.25ZM510.417 200c4.166-4.583 8.333-8.333 9.166-8.333.834 0-.416 3.75-2.916 8.333s-6.667 8.333-9.167 8.333-1.25-3.75 2.917-8.333Z"/>
  <path fill="#bc7200" fill-rule="nonzero" d="M170.833 1249.17c0-.834 6.25-16.667 13.75-34.584 22.917-55.833 26.25-68.75 19.167-73.333-5-2.917-3.75-7.083 5.833-25.417 6.25-12.083 18.75-33.75 27.917-47.916 15-24.167 17.5-26.25 31.25-26.25 13.333 0 14.583.833 14.583 12.5 0 6.666-5.833 21.666-12.916 33.75-6.667 11.666-17.917 32.5-25 46.25-11.25 22.083-12.917 23.75-20.834 19.583-6.25-3.333-7.916-3.333-6.25 0 1.667 2.5 1.25 4.583-.416 4.583-4.584 0-23.334 40.834-30.834 65.834-2.916 9.583-7.5 19.583-10.833 22.083-2.917 2.5-5.417 4.167-5.417 2.917ZM591.667 870c-.834-77.5-37.084-137.917-102.917-170.833C450 680 422.5 676.25 389.583 685.417c-34.166 10-56.25 12.5-56.25 6.666 0-2.5 2.917-4.583 6.25-4.583 3.334 0 6.25-2.083 6.25-4.583 0-2.084 1.667-3.334 3.75-2.084 2.084 1.25 4.584 0 5.834-3.333 1.25-2.917 11.25-7.917 22.5-10.833 10.833-3.334 28.333-10 38.75-15 15.833-7.917 25-9.167 58.333-8.75 49.167.833 72.5 11.25 98.333 42.916 25.417 31.25 36.25 68.334 35.417 118.334-.833 51.666-2.5 76.666-6.25 82.916-6.667 10.417-10.833 3.334-10.833-17.083Z"/>
  <path fill="#4c8265" fill-rule="nonzero" d="M283.333 1171.25c-17.5-1.667-37.083-5.833-45-10-7.5-4.167-15.416-6.25-17.5-5-5.416 3.333 12.5-37.917 26.667-61.25l10.417-17.083 1.25 15.833c1.25 13.75 3.333 17.083 17.916 23.75 9.167 4.583 21.25 10.833 27.084 14.167 5.833 3.333 20.416 10.833 32.5 17.083 14.166 7.083 21.666 13.333 21.666 18.75 0 8.333-10.416 8.75-75 3.75Zm-77.916-27.5c-2.5-2.5-5.834-13.333-7.5-23.333-2.917-17.917-10.834-48.75-16.667-62.917-5-12.917 12.083-8.75 28.333 6.25 11.667 11.25 17.084 13.75 27.5 12.083 7.084-.833 12.917-.833 12.917.834 0 1.25-9.167 17.916-20 37.083-14.583 25.833-21.25 33.75-24.583 30ZM587.5 831.25c0-16.667 10-20.417 14.167-5 4.166 15.417 2.916 19.583-5.834 19.583-6.666 0-8.333-2.916-8.333-14.583Zm381.667-15.417c-5.417-20.416-2.084-31.666 18.75-61.666 31.666-46.25 40-55.417 42.916-47.5C1035 717.917 987.5 820 976.25 823.75c-2.5.833-5.417-2.5-7.083-7.917Zm-410.834-68.75.417-15.833 10 11.667c13.333 15 12.917 19.583 0 19.583-9.167 0-10.417-1.667-10.417-15.417Zm417.084-61.666c.416-4.167 37.083-38.334 37.083-34.584 0 .834-8.333 10-18.75 20S975 687.5 975.417 685.417Zm-25-107.917c-6.25-7.083 22.5-72.917 29.166-66.25 7.084 7.083 5.834 20-4.583 46.667-10.417 25.833-15.833 30-24.583 19.583Zm-22.084-50.417C925.417 523.75 942.5 450 946.25 450c2.083 0 6.25 5.417 9.583 12.083 5.834 10.834 5.417 13.75-5 39.167-10 25-16.25 32.083-22.5 25.833Zm-31.25-50.833c-6.25-9.583-7.5-18.75-6.25-54.167.417-24.166 2.917-42.916 5-42.916 2.5 0 4.167 2.5 4.167 5.416 0 2.917 4.583 9.584 10.417 14.584 9.583 8.333 10.416 11.666 10.416 48.75 0 36.25-.833 39.583-7.916 39.583-4.584 0-11.667-5-15.834-11.25Zm-55-71.25c-2.083-3.75-5-26.667-6.25-50.833l-2.5-43.75 12.917 26.25c8.333 16.25 13.75 35 15 50.833 2.083 23.333 1.667 25-6.25 25-5 0-10.833-3.333-12.917-7.5Zm-68.333-55.833c-6.25-5-6.25-8.75-2.5-32.917l5-27.5 10.417 5.417c9.583 5 10.416 7.916 10.833 32.5.417 25-.417 27.5-8.333 27.5-4.584 0-11.667-2.5-15.417-5Zm-72.917-40.417c-5.833-3.333-17.5-42.083-17.5-58.333 0-7.5 1.667-9.167 7.5-6.667 3.75 1.667 11.667 4.167 17.917 5 9.167 1.667 11.25 5.833 17.5 29.583 3.75 15.417 7.083 29.167 7.083 31.25 0 4.167-25.833 3.75-32.5-.833Zm-61.666-54.583c8.75-25.417 21.666-35.834 16.666-13.334-6.25 28.334-10.833 38.334-17.916 38.334-7.084 0-7.084-1.667 1.25-25ZM437.5 265c0-.417 17.917-16.667 39.583-35.417 21.667-18.75 39.584-32.5 39.584-30.833 0 5.417-16.25 30.833-32.084 50.417-12.5 15-16.25 17.5-30.833 17.5-8.75 0-16.25-.834-16.25-1.667Zm77.917-2.083-11.667-2.5 27.083-26.667c15-15 28.334-25.833 30-24.167 3.334 2.917-24.166 54.167-30 55.417-2.083.417-9.166-.417-15.416-2.083Zm65-24.167c20-31.667 26.25-27.083 9.166 6.667-7.083 14.583-12.916 21.25-18.75 21.25-7.083 0-5.833-3.334 9.584-27.917Z"/>
  <path fill="#447c77" fill-rule="nonzero" d="M321.25 1160.42c-14.583-8.334-28.75-16.25-31.25-18.334-2.5-2.083-9.167-5-15-6.666-5.417-1.667-16.25-7.084-23.333-12.084-12.917-8.333-13.334-9.166-7.5-20 7.916-15.416 18.333-15 47.916 3.334 13.334 7.916 36.25 19.583 50.417 25.416 14.583 5.834 28.333 11.667 30.417 13.75 2.5 1.667 9.166 4.167 15.833 5.834 14.167 3.333 15.417 17.083 2.083 20.833-22.083 5.833-43.333 2.083-69.583-12.083Zm-92.083-55.84c0-2.083-9.167-10.416-20-18.333-14.584-10.417-23.334-20.833-31.25-37.917-13.334-28.333-13.334-27.5-2.084-27.5 5 0 19.584 10 34.167 24.167 14.167 12.917 29.167 25.833 33.333 27.917 7.084 4.166 7.084 5-1.666 20-9.167 15.416-12.5 18.75-12.5 11.666Zm712.5-248.747c0-25.416 28.75-88.333 37.5-82.916 2.083 1.25 3.75 12.083 3.75 24.166-.417 18.75-2.5 24.584-17.084 43.75-21.25 27.084-24.166 29.167-24.166 15ZM48.75 708.333c-2.5-9.583 3.75-80.416 8.75-104.166 2.5-10.834 4.167 0 6.25 42.083 1.667 31.25 2.083 60 .417 63.75-3.75 9.167-12.917 8.333-15.417-1.667Zm905.417-6.666c0-3.334 16.25-17.084 27.083-22.917 4.583-2.917 2.083 1.667-5.833 10.417-13.334 13.75-21.25 18.333-21.25 12.5ZM940.417 600c-1.25-5 1.25-17.5 5.833-28.333l8.333-18.75 6.667 9.583c6.25 8.75 6.25 11.25.417 26.667-7.084 19.166-17.5 24.583-21.25 10.833ZM922.5 539.167c1.667-6.25 4.167-16.25 5.417-22.917 2.5-14.167 7.916-15.833 11.666-3.75 3.75 11.667-5.416 37.5-13.333 37.5-4.583 0-5.833-2.5-3.75-10.833ZM898.75 510c-9.583-12.917-12.917-32.5-8.333-52.917l3.333-15.833 13.75 19.167c12.917 18.333 15.833 32.083 10.833 51.25-3.333 12.083-10 11.666-19.583-1.667Zm-57.083-90c0-5.417-1.25-17.083-2.5-26.25l-2.5-16.667L850 390c11.25 11.25 12.917 15 10.417 26.25-3.334 15.833-18.75 18.75-18.75 3.75Zm-69.584-54.167c-7.5-3.75-8.75-7.083-7.083-15.416 5.833-27.084 5-26.25 20.833-14.584C796.25 343.75 800 350 800 358.75c0 10-1.667 12.083-9.167 11.667-5.416 0-13.75-2.084-18.75-4.584ZM709.583 325c-7.5-4.583-13.75-10.417-13.75-13.333 0-2.917-1.25-9.584-2.5-14.584l-2.5-9.166L711.667 295c18.75 6.25 21.666 8.75 25 22.917 3.75 14.166 3.333 15.416-5 15.416-4.584 0-15-3.75-22.084-8.333Zm-80-45.833c2.917-7.917 7.5-12.5 12.084-12.5 7.083 0 7.5 1.666 3.75 12.5-2.917 7.916-7.5 12.5-12.084 12.5-7.083 0-7.5-1.667-3.75-12.5Zm-217.083 5c0-6.667 35.833-29.167 51.25-32.084 20-3.75 19.583 1.25-1.25 20.417-13.333 12.083-20 15-33.333 15-9.167 0-16.667-1.667-16.667-3.333Zm145.833-5c-5-2.917-4.583-5.417 4.167-14.167 8.75-10 20.833-14.583 20.833-8.333 0 4.166-14.166 26.666-16.666 26.666-1.25 0-5-2.083-8.334-4.166Zm-57.5-13.334c11.667-15 36.667-22.083 36.667-10 0 8.75-22.083 23.334-35.417 23.334h-11.666l10.416-13.334Z"/>
  <path fill="#42797e" fill-rule="nonzero" d="M343.75 1150.42c-25-10.834-55.417-25.834-67.083-32.917-11.667-7.5-23.334-13.333-26.25-13.333-6.25 0-5.834-2.084 2.083-17.084 9.167-18.333 4.583-19.583-6.667-2.083-9.166 15.417-14.166 19.583-10 9.167 1.25-3.75-1.666-7.917-7.5-10.834-16.25-8.333-57.916-51.25-64.166-66.25-7.5-17.916-7.5-17.083 4.583-17.083 6.667 0 10.417 2.5 10.417 6.25 0 3.333 1.666 6.25 4.166 6.25 2.084 0 17.084 12.083 32.917 27.083 15.417 15 31.667 27.084 35.833 27.084 3.75 0 7.917 3.75 9.167 8.333s4.167 8.333 6.25 8.333c2.5 0 17.083 8.334 32.5 18.75 15.417 10.417 29.167 18.75 30.417 18.75 1.666 0 12.916 3.75 25.416 8.75 16.25 5.834 22.084 10 20.417 14.584-1.667 4.583 1.667 5.833 17.917 5 23.333-1.25 30.416 8.333 12.083 16.666-13.75 6.25-8.75 7.5-62.5-15.416ZM85 868.333c-20-45.416-31.667-93.333-32.917-135-1.666-47.916 1.25-70.833 8.334-70.833 3.75 0 5.833 10 7.5 32.5 3.333 46.667 9.583 90.833 17.5 119.583 4.166 13.75 8.333 30 9.166 36.667 1.25 6.25 3.75 11.25 5.834 11.25 2.083 0 3.75 6.667 3.75 14.583 0 21.25-7.5 17.917-19.167-8.75ZM937.5 852.5c0-15.833 3.333-25.417 15-44.583 8.333-13.334 15.833-24.584 16.25-24.584.833 0 .417 7.084-.833 15.834-3.334 27.5-13.334 57.5-22.084 65.416-8.333 7.5-8.333 7.5-8.333-12.083ZM525 712.083v-12.5l12.5 8.75C555.833 721.25 556.25 725 540 725c-13.75 0-15-.833-15-12.917Zm425-5c0-3.75 3.75-8.75 8.75-11.25 12.917-7.083 13.75-2.916 1.667 8.334-8.334 7.916-10.417 8.333-10.417 2.916ZM937.5 607.5c.417-10 2.5-22.083 5.833-27.5 5-9.583 5-9.583 9.584 5.417 3.333 10.833 3.333 17.916 0 27.083-7.084 18.75-15.417 15.833-15.417-5Zm-20.417-50c0-2.917 2.5-12.083 5.417-20 4.583-12.917 5.833-13.75 9.583-6.25 5.417 9.583-1.25 31.25-9.583 31.25-3.333 0-5.833-2.5-5.417-5Zm-22.5-38.75c-3.75-8.333-7.083-24.583-7.083-36.667v-21.666l8.333 10.416c4.584 5.834 8.334 12.5 8.334 15s2.916 7.084 6.25 10c10 8.334 7.083 37.5-3.75 37.5-2.917 0-8.334-6.666-12.084-14.583ZM841.667 420c0-16.667 0-17.083 8.333-9.583 4.583 4.166 8.333 12.083 8.333 17.5 0 6.666-2.5 9.583-8.333 9.583-7.083 0-8.333-2.917-8.333-17.5Zm-67.5-44.167c-11.667-7.083-14.167-15-7.917-25 2.5-4.583 6.25-4.166 18.333 1.667 12.5 5.833 15.417 9.583 15.417 19.167 0 13.75-7.917 15-25.833 4.166Zm-65-41.25c-8.334-7.083-17.084-30.416-11.667-30.416 1.25 0 10 2.916 19.167 6.666 15.833 6.25 25 16.25 25 26.25 0 7.084-23.334 5.417-32.5-2.5Zm-50.834-35.416c0-10.417 1.25-12.084 4.167-7.5 5.417 8.333 5.417 20.833 0 20.833-2.083 0-4.167-6.25-4.167-13.333Zm-37.5 2.916c0-8.333 11.25-22.916 17.5-22.916 7.084 0 7.5.833 1.25 12.5-3.75 7.083-9.166 12.5-12.5 12.5-3.333 0-6.25-.834-6.25-2.084Zm-220.833-10c0-7.5 22.083-17.5 42.917-19.583l21.666-2.5-13.75 12.917C440 293.333 433.75 295.833 418.75 295.833c-10.417 0-18.75-1.666-18.75-3.75ZM493.75 275c7.917-7.917 16.25-12.5 23.75-12.5 6.25 0 11.667 1.25 11.667 3.333 0 5.834-27.5 21.667-37.5 21.667h-10L493.75 275Zm58.75 2.083c5.833-9.166 22.5-15 22.5-7.916 0 8.333-10 18.333-19.167 18.333-10 0-10-.417-3.333-10.417Z"/>
  <path fill="#3e7785" fill-rule="nonzero" d="M401.667 1162.08c-1.25-2.083-5-3.75-8.75-3.75-14.167 0-84.584-29.583-108.75-45.833-14.167-9.583-27.5-16.25-30-14.583-7.084 4.166-4.584-7.5 4.583-22.5 11.667-19.167 7.5-20.417-5.833-2.084l-10.417 15.417-30.833-29.167c-16.667-15.833-33.334-30.416-36.667-32.916-3.333-2.084-8.75-8.334-12.083-14.167-50.834-88.75-72.5-130.833-81.667-156.25-11.667-32.5-18.75-75-18.333-110.417.416-38.75.416-39.166 5.833-22.5 6.25 20.417 17.083 41.667 27.5 55 4.167 5.417 9.583 20.417 12.083 33.334 2.917 12.916 7.5 31.25 10.417 40.416 8.333 25.417 42.5 88.75 63.333 117.917 18.75 26.25 74.167 84.167 80.417 84.167 2.083 0 6.25 2.5 9.167 5.416 14.583 14.167 103.75 61.25 115.416 61.25 8.334 0 4.584 15.834-3.75 17.917-14.583 3.75-10 12.5 5.417 9.583 29.583-6.25 47.917-7.5 54.167-4.166 5 2.916 1.666 5.833-15.834 12.916-12.5 4.584-23.75 7.084-25.416 5Zm-74.584-170.413c-4.583-2.084-16.666-11.25-27.083-20.417l-18.75-16.667 15.833-.416c13.75 0 15.417 1.25 15.417 10.416 0 8.75 2.083 10.417 12.5 10.417s12.5 1.667 12.5 10.417c0 5.833-.417 10.416-.833 10-.834 0-5-1.667-9.584-3.75Zm-61.25-58.334-11.666-14.583L265 917.5c13.75-1.667 15-.417 13.333 16.25l-1.25 14.167-11.25-14.584ZM587.5 885.417c0-11.667 1.667-14.584 8.333-14.584 8.75 0 10 4.167 5.834 20-4.167 15-14.167 11.25-14.167-5.416Zm316.667-3.334c0-9.583 3.333-17.083 10.416-23.75 5.834-5.416 17.084-19.583 25.834-32.083 8.333-12.083 15.416-22.083 15.833-22.083.417 0-1.25 12.5-3.333 28.333-3.75 29.167-6.25 32.917-37.084 55.417l-11.666 8.333v-14.167Zm-318.334-51.25c-3.75-28.75-3.333-35 3.334-35 5.833 0 7.5 4.584 13.333 38.75 2.083 13.334 1.667 15.417-5.833 15.417-6.25 0-8.75-3.75-10.834-19.167Zm-40-100c0-16.25 3.75-15.833 16.667 2.5l8.75 12.5h-12.5c-12.083 0-12.917-1.25-12.917-15ZM937.5 720.417c0-7.917 19.583-27.084 23.75-22.917 1.667 1.25-2.917 8.75-10.417 16.25-9.166 9.167-13.333 11.25-13.333 6.667ZM309.583 706.25c15-13.333 19.584-12.917 19.584 0 0 9.167-1.667 10.417-15.417 10.417l-15.833-.417 11.666-10Zm82.084-28.75c0-5.417 11.666-10.833 24.166-10.833 2.5 0 5 3.75 5 8.333 0 6.667-2.916 8.333-14.583 8.333-9.583 0-14.583-2.083-14.583-5.833Zm37.5-2.5c0-8.75 4.166-10 20-5.833 15 4.166 11.25 14.166-5.417 14.166-11.667 0-14.583-1.666-14.583-8.333Zm493.75-28.75c-2.917-14.167 18.333-70.417 23.75-62.083 5.416 8.75 3.75 32.083-3.75 53.75-8.334 22.916-15.834 26.25-20 8.333Zm-14.584-59.583c0-2.5 3.334-14.584 7.084-26.667 5.833-18.75 7.5-21.25 11.666-15.417 6.25 8.334-4.583 47.084-13.333 47.084-2.917 0-5.417-2.084-5.417-5Zm-20.416-37.917c-2.917-8.333-3.334-24.583-1.25-44.583l3.333-31.25 12.917 25c12.5 24.166 12.5 25.416 6.666 45-6.666 22.916-15.416 25.416-21.666 5.833Zm-46.25-107.083c0-24.167.416-25 8.333-20 12.083 7.916 10 45-2.5 45-4.167 0-5.833-6.667-5.833-25Zm-73.75-41.25c-12.917-11.25-13.334-12.917-9.167-25.834 2.5-7.916 5-16.666 6.25-19.166.833-3.75 5.417-2.917 16.25 3.333 17.917 10.833 17.083 9.583 20.833 34.167C805 412.5 805 412.5 793.333 412.5c-7.083 0-17.5-5-25.416-12.083Zm-47.5-32.5c-7.5-5-12.084-13.334-16.667-30.834-3.75-13.75-5.833-24.583-5.417-24.583.834 0 10.417 4.167 21.25 9.167 11.25 5.416 20.417 9.583 20.417 9.583.417 0 2.083 10 3.75 22.083 2.5 19.584 2.083 21.667-5 21.25-4.167 0-12.5-3.333-18.333-6.666ZM337.5 333.75c0-7.5 71.667-50 88.75-52.5 9.583-1.667 21.25-3.75 25.833-4.583 5-1.25-1.25 7.083-16.25 20.833-16.25 15-32.916 25.833-48.333 31.25-24.167 9.167-50 11.667-50 5ZM655.833 320c3.75-23.333 9.167-28.333 12.084-10.833 1.25 7.5 3.333 17.083 5 21.25 2.5 5.833.833 7.083-8.334 7.083-11.25 0-11.25-.417-8.75-17.5Zm-43.333.833c0-10 12.5-28.333 20.833-30.416 8.334-2.084 8.334-2.084-.833 15-9.583 16.666-20 25-20 15.416Zm-137.083-25.416c13.333-16.667 30-26.667 37.5-22.084 5.416 3.334-34.167 38.75-43.334 39.167-6.666 0-5.833-2.917 5.834-17.083ZM530 309.583c-4.167-1.666-.833-7.083 10-18.333 14.583-15 30.833-21.667 30.833-12.5 0 3.333-31.666 34.167-34.583 33.333-.417 0-3.333-1.25-6.25-2.5Z"/>
  <g fill="#2360c5" fill-rule="nonzero">
    <path d="M375 1134.58c-20.417-7.5-55.833-25-80-39.583-15.417-9.167-30-15.417-32.5-13.75-6.667 4.167-5-2.917 4.583-18.333 11.25-18.334 7.5-21.25-4.583-3.334l-9.167 13.75L220 1040.414c-17.917-18.334-40.833-44.584-50.833-58.75-21.25-29.584-57.084-97.084-64.167-121.25-5.417-18.75-17.5-71.25-17.5-77.5 0-10 12.5-.834 31.25 23.75 11.667 14.583 22.917 29.166 25 32.083 2.5 2.5 7.917 17.083 11.667 32.083 4.166 15 17.916 48.334 30.416 74.167 26.667 53.75 52.084 83.75 78.75 91.667 9.167 2.5 26.667 13.333 38.75 23.333 11.667 10 32.5 22.917 45.417 27.917 22.083 9.166 29.583 9.583 90.417 8.75 36.25-.417 73.75-3.334 83.333-5.834 16.667-4.583 42.5-5.416 110-2.916 39.167 1.25 83.75-10.417 131.667-33.75 40-19.584 37.083-16.25-12.084 14.583-20.416 12.5-49.583 27.083-64.583 31.25-34.167 10.417-111.25 20-202.083 25-38.75 2.083-77.5 5.833-85.417 8.333-15.833 4.584-15.833 4.584-25 1.25Z"/>
    <path d="M593.333 1054.58c3.334-5 54.584-29.583 62.5-29.583 3.75 0 6.667-1.667 6.667-4.167 0-2.083-2.083-4.166-4.167-4.166-4.166 0 24.584-46.667 30.417-49.167 1.667-.833 2.917-3.75 2.917-6.667 0-2.916 3.75-8.75 8.333-12.916 6.667-5.834 7.917-10.834 5.833-22.917-1.666-10.833-.833-17.083 3.75-21.667 9.584-9.166 20-54.583 19.167-79.583-.833-12.083.417-29.583 2.083-39.167 2.5-14.583 2.084-17.916-3.333-17.916-10 0-10.833-5.417-4.583-29.584 5.833-22.083 5.833-29.166-.417-73.75-2.5-20.833-3.75-22.083-12.917-20.416-11.666 2.083-15.833-3.75-19.583-28.75-4.167-25-17.083-44.584-27.917-41.25-7.916 2.5-8.333 1.25-5.833-17.5 5.417-45.417 9.583-90.834 8.75-92.084-.833-.416-8.333 4.584-17.083 11.667-15 12.083-39.584 24.583-60 31.25-7.5 2.083-8.75.833-8.75-10 0-15.417-1.25-15.833-23.75-2.917-9.584 5.834-28.334 12.5-41.25 15.417-21.25 4.583-23.75 4.583-27.5-2.083-5.417-9.584-24.167-5.834-50 10.833-10.834 6.667-21.667 11.25-23.75 10-3.75-2.5-26.667 6.667-75 30.417-33.334 15.833-83.75 68.75-102.084 106.25-7.916 16.25-16.666 35.416-19.166 42.083l-5 12.5-6.25-19.583c-2.917-11.25-7.084-20-9.167-20-5.833 0-17.083 15-17.083 22.5 0 10-7.5 23.333-13.334 23.333-6.666 0-.833-43.75 7.5-56.667 7.084-10.416 27.917-14.166 32.917-5.833 4.167 6.667 10.417 4.583 10.417-3.333 0-27.917 101.25-130 128.75-130 2.5 0 14.166-4.584 26.25-10.417 11.666-5.833 25-10.417 29.166-10.417 4.167 0 17.5-5.833 29.584-12.5 17.5-10 27.5-12.5 45.833-12.5 13.333 0 23.75 1.667 23.75 4.167 0 6.667 20 .417 44.167-12.917 24.166-13.333 41.25-15.416 52.083-5.416 10 8.75 20.833 4.583 40-15.417 11.667-12.5 18.75-16.25 28.75-16.25 13.333 0 13.75.417 11.25 15-1.25 8.333 0 18.75 2.917 24.583 5 9.584 4.166 28.334-2.5 63.75-2.084 10.417-1.25 13.334 4.166 13.334 7.917 0 22.084 27.083 25.834 49.583 2.5 15.417 3.75 17.083 15 17.083 17.083 0 20.833 12.917 21.666 73.75 0 28.334 1.667 51.25 3.334 51.25 1.666 0 2.916 25 2.916 55.417-.416 40.417-2.083 58.75-6.666 69.583-3.75 7.917-7.084 20.417-7.917 27.084-5 45.416-7.5 55-18.75 69.583-7.083 8.75-17.5 16.25-24.583 17.917-13.334 2.916-16.25 9.166-6.25 12.916 3.333 1.667 6.25 3.75 6.25 5.834 0 5.416-18.75 25-24.167 25-2.917 0-5 2.916-5 6.666 0 3.334-6.25 8.75-13.333 11.667-16.25 6.667-58.75 12.083-55.834 7.083Z"/>
    <path d="M410.417 1031.67c-11.25-2.917-28.75-9.584-38.75-14.584-68.75-35.416-111.667-78.75-130-130.833-10.834-30.417-10.834-44.583-.417-44.583 4.167 0 7.917 2.5 7.5 5.416-.417 18.334 2.917 28.75 17.917 50.834 9.166 13.75 16.666 29.166 16.666 34.166 0 6.25 2.917 9.584 9.584 10.417 5 .833 10.833 5.417 13.333 10.833 2.083 5 7.5 9.167 11.25 9.167 4.167 0 9.583 3.75 12.5 8.333 2.917 4.584 7.5 8.334 10.417 8.334 2.916 0 14.166 5.833 25 12.5 10.833 7.083 23.75 12.5 29.166 12.5 5.417 0 9.584 1.666 9.584 3.75 0 6.25 40.416 13.75 57.083 10.833 8.75-1.25 22.5-6.25 30.417-10.417 14.583-7.916 14.583-7.916 3.333-8.333-6.667 0-11.667-1.25-11.25-2.917 0-2.083 8.75-10.416 18.75-19.583l18.333-16.25v13.333c0 10 1.667 12.917 8.334 12.917 5.416 0 8.333-2.917 8.333-7.917 0-4.583 4.167-11.666 9.583-15.833 18.75-15 40.417-71.667 40.417-105.417 0-25.416-12.917-75-22.083-85.416-4.167-4.584-8.75-13.334-10-19.584-1.25-6.666-4.584-11.666-7.084-11.666-5.416 0-19.166-15-19.166-20.834 0-2.5-4.584-4.166-10-4.166-5.834 0-11.667-1.667-12.917-4.167-1.25-2.083-5.833-4.167-10.417-4.167-4.166 0-8.333-2.5-9.583-5.833-1.25-2.917-15.833-8.75-32.083-12.917-26.25-6.25-33.334-6.666-53.75-2.083-25.417 5.833-58.75 20-75.417 32.083-18.333 13.334-49.167 46.25-56.25 59.167-5.833 11.667-5.833 12.917 0 12.917s5 2.5-2.5 13.75c-5.417 7.083-11.25 14.166-12.917 14.583-1.666.833-3.333 5-3.333 9.583 0 5.417-2.917 7.917-8.75 7.917-8.333 0-8.75-1.667-6.25-19.583 9.583-72.5 86.667-139.584 171.25-148.75 70.833-7.917 145.833 34.166 176.667 98.333 50.833 107.5 0 236.25-104.584 264.167-26.25 6.666-40 6.666-67.916 0Zm302.083-2.09c0-7.5 2.5-8.75 18.333-8.75 10 0 22.084-.833 26.25-2.083 10-2.917-23.333 12.5-35.416 16.25-7.5 2.5-9.167 1.667-9.167-5.417Z"/>
    <path d="M370.833 960.417c0-16.25 2.5-17.917 11.25-7.084 14.584 18.334 14.584 21.667 1.25 21.667-11.666 0-12.5-1.25-12.5-14.583Zm152.084-9.167c1.666-4.167 4.166-10.833 5-14.583 4.166-13.75 13.75-8.334 13.75 7.083 0 12.917-1.25 14.583-10.834 14.583-8.75 0-10.416-1.25-7.916-7.083Zm285.416-16.667c0-5 8.334-11.25 24.167-18.75 12.917-6.25 35.833-20.833 50.833-32.083 15-11.667 28.334-20.833 30.417-21.25 1.667 0 2.917 5.417 2.917 12.5 0 10-3.334 14.583-17.5 23.333-15 9.584-84.584 43.334-89.167 43.334-.833 0-1.667-3.334-1.667-7.084ZM325 920.833c0-8.75 4.167-10 20-5.833 15 4.167 11.25 14.167-5.417 14.167-11.666 0-14.583-1.667-14.583-8.334Zm-37.5-4.166c0-6.667 2.917-8.334 14.583-8.334 11.667 0 14.584 1.667 14.584 8.334 0 6.666-2.917 8.333-14.584 8.333-11.666 0-14.583-1.667-14.583-8.333Zm250-18.75c0-11.667 1.667-14.584 8.333-14.584 6.667 0 8.334 2.917 8.334 14.584 0 11.666-1.667 14.583-8.334 14.583-6.666 0-8.333-2.917-8.333-14.583Zm308.333-22.5c0-2.084 6.667-7.5 14.584-12.5C868.333 858.333 875 855 875 855.833c0 .834-6.667 6.667-14.583 12.5-7.917 6.25-14.584 9.584-14.584 7.084Zm-321.25-57.084-10.833-22.5h12.083c8.75 0 11.667 2.084 11.667 8.334 0 4.583 2.083 8.333 4.167 8.333 2.5 0 4.166 6.667 4.166 14.583 0 21.25-8.75 17.917-21.25-8.75Zm-384.166-.833c-24.584-61.667-33.334-134.583-22.5-186.667 3.75-16.666 20-60 38.333-100 17.5-38.75 35-77.5 38.75-85.833 4.167-8.75 8.333-15.833 9.583-15.833 1.667 0-5.833 21.25-16.25 46.666-17.5 43.75-18.75 49.584-18.75 84.584 0 20.833.417 43.333 1.25 50 .834 7.083-1.666 27.083-5.416 44.583-4.167 17.917-7.084 46.25-7.084 62.5.417 16.667.417 36.25.417 42.917 0 7.083-2.5 26.666-5.417 43.75L147.5 835l-7.083-17.5ZM867.5 787.083c.833-7.916 12.5-21.25 38.75-45 20.417-18.75 37.917-32.083 39.167-29.166.833 2.5-16.667 22.916-38.75 45-34.167 33.75-40.417 38.333-39.167 29.166Zm-410-28.333c-7.5-6.25-17.917-13.75-22.917-16.667-13.75-7.083-11.666-12.916 5-12.916 12.917 0 14.584 1.25 14.584 10.416 0 8.75 2.083 10.417 12.5 10.417 10.416 0 12.5 1.667 12.5 10.417 0 13.333-5 13.333-21.667-1.667ZM325 744.167c0-9.584 1.667-10.834 14.583-10.834 15.417 0 20.834 9.584 7.5 13.75-4.166.834-10.833 3.334-14.583 5-6.25 2.5-7.5.834-7.5-7.916Zm545.833-5.834c0-13.333 3.334-22.916 12.084-35.416 6.25-9.584 18.75-31.25 27.083-47.5C918.333 638.75 926.667 625 929.167 625c2.083 0 5 6.25 6.25 13.75 4.166 21.667-15 64.167-41.667 93.333l-22.5 24.167-.417-17.917Zm-6.666-69.583c-1.25-10.417-1.667-21.25-.417-24.583 1.25-3.334-.417-7.084-3.75-8.334-7.917-2.916-7.5-9.166 4.583-37.916 5.417-13.75 12.5-35.834 15-48.75 5.417-27.5 13.334-31.25 22.084-10.417 5 12.083 4.583 15.833-3.75 38.333-5 14.167-14.584 35.417-20.417 47.5-10.417 20.417-11.667 32.5-2.917 22.917 5.417-5.417 33.75-62.5 33.75-67.917 0-2.5 2.917-4.583 6.25-4.583 3.334 0 6.25 2.917 6.25 6.25 0 7.5-25 73.75-35 93.333-10 18.75-17.916 16.667-21.666-5.833Zm-42.084-115.417c-3.333-7.5-2.083-14.166 5.834-30.833 5.416-12.083 10.833-31.25 12.5-42.917 1.666-15 4.166-21.25 8.75-21.25 5.416 0 5.833 5.834 3.333 38.75-1.25 20.834-4.167 44.167-5.833 50.834-4.584 15.833-18.334 19.166-24.584 5.416ZM759.167 472.5c-18.75-19.167-36.25-35-38.334-35-2.5 0-4.166-7.917-4.166-17.5 0-10-2.084-30-4.167-44.583-2.5-14.584-3.333-27.5-2.083-28.75 3.75-3.75 31.25 10.833 34.166 18.333 2.084 5.833-2.5 34.167-9.583 59.583-2.083 6.667-1.667 9.167 1.667 7.084 2.5-1.25 8.333-14.584 13.333-29.584S760.417 375 762.083 375c2.084 0 10 5.417 17.5 12.5 7.917 6.667 16.25 12.5 18.75 12.5 7.5 0 13.75 85.417 7.5 101.667-1.25 3.75-4.583 6.666-7.5 6.25-2.5 0-20-15.834-39.166-35.417Zm-494.584-33.333c37.084-83.75 83.75-127.084 137.5-126.667h16.667l-23.333 20.833C370 355.833 358.333 375 358.333 395.417c0 10.416-2.5 13.75-13.75 18.333-7.5 3.333-25 15.417-39.166 27.5-18.75 15.417-29.584 21.25-38.334 21.25h-12.916l10.416-23.333Zm382.5-40.417c-10-4.583-17.916-10.417-17.916-12.5s3.75-8.75 8.333-15.417c4.167-6.25 10.417-20 13.333-30.416 10-37.917 28.75-13.334 35.417 46.25l2.5 21.666-12.083-.416c-6.667 0-20-4.167-29.584-9.167Zm-221.666-39.167C440 335.417 471.25 300 477.5 300c8.75 0 7.5 2.083-12.083 26.25-9.584 12.083-20.417 27.917-23.334 35.417-4.166 10-8.333 13.333-15.833 13.333h-10.417l9.584-15.417Zm119.166 10-20-5 32.5-31.25c17.5-17.083 30-28.333 27.084-25-2.5 3.75-5.834 14.584-7.5 24.167-2.084 14.167-1.667 17.5 3.75 17.5 6.25 0 19.166-13.333 32.5-33.333 3.75-5.834 8.333-8.334 11.25-6.667 3.333 2.083-1.667 12.5-15.834 34.167-23.333 34.166-24.583 34.583-63.75 25.416Zm-75.833-8.333c1.25-2.917 17.083-18.75 35.417-35.833C527.5 304.583 540 295.833 544.583 297.5c3.75 1.667 5 4.167 2.917 5.833-2.083 2.084-13.75 11.667-25.417 21.25-12.083 10-25.416 23.334-29.166 30-7.084 12.084-28.334 18.334-24.167 6.667Z"/>
  </g>
  <g fill="#0c71dd" fill-rule="nonzero">
    <path d="M425 1145.83c-10-3.333-10-3.333 2.083-3.333 7.084 0 16.25 1.25 20.834 3.333 7.5 3.334 7.5 3.75-2.084 3.334-5.833 0-15-1.667-20.833-3.334Zm-50-11.25c-21.25-7.916-55.833-25-80-39.583-15.417-9.167-30-15.417-32.5-13.75-7.917 5-4.167-2.917 5-11.25 9.167-7.5 9.583-7.5 15-.417 2.917 4.167 7.917 7.084 10.833 6.25 3.334-.416 6.667 2.084 8.334 5.417 1.25 3.75 4.166 5.417 6.666 4.167 2.084-1.25 4.167-.417 4.167 2.083 0 3.75 31.25 20 43.75 22.5 2.5.417 8.333 3.333 13.75 5.833 5 2.917 11.25 4.167 13.333 2.917 2.5-1.25 4.167-.417 4.167 2.5 0 2.5 3.333 3.75 8.333 2.5 4.584-1.25 8.334-.417 8.334 2.083 0 2.084 2.5 2.5 5.416.834 3.334-2.084 3.75-1.667.834 1.25-5.417 5.833-27.084 9.583-35.417 6.666Zm-157.5-97.08c-19.167-19.583-41.667-45.833-50.417-58.333-17.916-25.417-53.333-90.834-59.583-110.417-8.333-26.25-22.917-97.917-19.583-97.917 5.833 0 15.833 17.5 13.333 23.334-1.25 3.333 0 5.833 2.5 5.833s4.167 1.25 3.75 3.333c-1.667 6.667 5.833 42.5 9.583 44.584 2.084 1.666 2.917 4.583 1.667 6.666-1.667 2.084-.417 3.75 1.667 3.75 2.5 0 4.166 1.25 4.166 3.334-.416 1.666-.416 3.75.417 5 .417 1.25 1.667 6.666 2.5 12.5.833 5.416 3.333 11.25 5 12.5 1.667 1.25 3.333 5 4.167 8.333.833 3.333 3.333 7.083 5.416 7.5 2.084.833 2.917 3.333 1.25 5.417-1.25 2.083 0 3.75 2.5 3.75s3.334 2.083 2.084 4.166c-1.25 2.5-.417 4.167 2.083 4.167s3.75 1.667 2.5 3.75.417 5 4.167 6.25c3.333 1.25 5 4.167 3.75 6.667-1.25 2.083-.417 4.166 2.083 4.166s3.75 1.667 2.083 3.75c-1.25 2.5 1.667 6.25 6.25 8.75 4.584 2.5 7.5 6.25 6.25 8.75-1.666 2.084.417 5 3.75 6.25 3.75 1.25 6.667 4.584 6.667 7.5 0 5.834 16.667 20.417 20 17.5 2.917-3.333 17.5 10 17.5 15.834 0 2.5-1.667 2.083-3.75-1.25-2.083-3.334-4.583-3.75-6.25-1.25-2.917 5 17.083 18.75 22.5 15.416 2.083-1.25 5 0 6.667 2.5 1.666 3.334 1.25 3.75-1.667 2.084-10-6.25-4.583 5.416 5.833 13.333 9.167 6.667 10.417 9.583 7.5 17.917-3.75 10-5 8.75-38.333-25.417Zm187.5-9.58c-10.417-2.917-16.667-6.667-14.583-8.75 1.666-2.084 1.25-2.5-1.667-.834-4.583 2.5-15-1.666-50.833-22.5-53.75-30.416-94.167-87.083-102.5-142.916-8.75-58.75 39.583-131.667 108.333-162.917 31.25-14.583 62.5-20.417 91.25-17.917 32.5 2.917 70.417 14.167 66.667 20.417-1.667 2.5.416 3.333 5.833 1.667 5.417-1.667 9.167-.417 10.833 3.75 1.25 3.333 4.167 5.833 6.25 5.416 6.25-2.083 32.917 25 47.5 48.334 36.667 57.5 37.084 149.166 1.25 205.833-15.833 25-42.083 49.583-65.833 61.667-25.833 13.333-72.5 17.083-102.5 8.75Zm76.667-33.75c15.833-7.5 24.166-14.584 33.75-30 6.666-11.25 13.75-25.417 15.416-31.667 1.667-8.333 5.417-11.667 12.084-12.083 6.666-.417 7.083-1.25 2.083-2.5-10.417-2.5-9.167-30.417 1.25-30.417 4.167 0 8.333 3.333 9.167 7.5 1.25 3.75 2.083-5 1.666-20 0-15-.833-22.083-1.666-15.417-1.25 7.917-4.167 11.25-10 11.25-6.25 0-7.917-2.916-7.917-14.583 0-12.083 1.667-14.583 8.75-14.583 7.5 0 8.333-1.667 5.833-13.334-5.416-25.416-24.166-61.666-38.333-74.166-29.167-25.834-84.583-44.584-115.417-39.167-9.583 1.667-14.583 3.75-11.666 4.583 9.166 3.334 5.833 17.917-4.167 17.917-5.417 0-18.333 2.917-29.167 5.833-14.583 4.584-20 5-21.666 1.25-.834-2.916-2.084-2.083-2.084 2.084-.416 3.75-7.5 11.25-15.833 16.25-55.417 34.166-80.833 89.166-56.667 122.5 8.75 11.666 31.667 24.166 45.834 24.166 6.25 0 9.583 2.084 9.583 6.667 0 9.167 30.417 37.917 54.167 51.25 21.666 12.083 79.166 35.417 89.583 36.25 2.5 0 13.75-4.167 25.417-9.583Z"/>
    <path d="M506.25 792.083 490 775h15.417c17.083 0 21.25 5 18.75 22.917l-1.25 10.833-16.667-16.667Zm-70.833-50.833c-4.584-1.667-13.334-3.333-19.584-3.333-9.166-.417-11.666-2.5-11.666-9.167 0-8.333 1.666-8.75 18.75-6.667 22.083 2.084 24.166 3.334 22.083 14.584-.833 6.25-3.333 7.083-9.583 4.583Zm290 145.417c2.083-7.5 3.75-14.167 3.75-14.584 0-.833 2.916-1.25 6.25-1.25 7.5 0 7.916 4.584 1.25 12.084-4.167 4.583-4.167 5.833 0 7.5 8.75 3.333 5.416 9.583-5 9.583-9.584 0-10-.833-6.25-13.333Zm6.666-29.167c1.667-5.417 2.917-18.333 2.5-29.167-.416-17.083.417-20 7.5-20 7.084 0 7.917 3.334 7.917 29.167 0 28.333-.417 29.167-10.833 29.167-9.167 0-10-1.25-7.084-9.167Zm5.417-88.75c0-6.667-2.5-10.417-6.25-10.417-3.333 0-6.25-1.666-6.25-4.166 0-2.084 6.667-4.167 14.583-4.167 13.75 0 14.584.833 14.584 14.583 0 11.667-1.667 14.584-8.334 14.584-6.25 0-8.333-2.917-8.333-10.417Zm194.583-42.917c1.25-4.583 5.834-11.666 10-15.833 12.5-11.25 10.417 2.917-2.083 14.583-10 9.167-10 9.167-7.917 1.25ZM250 615.417c0-14.167.833-15.417 12.5-15.417 10.833 0 12.083 1.25 8.75 7.5-2.083 3.75-7.917 10.833-12.5 15-8.75 7.917-8.75 7.917-8.75-7.083Zm335.417-128.75c-2.5-5.417-6.667-9.167-9.584-8.334-2.916.417-5-2.083-5-5.416 0-4.167 4.584-6.25 14.584-6.25 13.75 0 14.583.833 14.583 14.583 0 16.667-8.333 19.583-14.583 5.417Zm-385-49.167c0-3.333 3.333-12.917 7.916-20.833 10-18.75 10-11.667 0 10.416-4.166 9.167-7.916 13.75-7.916 10.417Z"/>
  </g>
  <path fill="#195aea" fill-rule="nonzero" d="M543.75 1087.5c19.167-5 52.917-5 50 0-1.25 2.5-16.25 3.75-32.5 3.75-22.5-.417-27.083-1.25-17.5-3.75Zm56.25-35.42c2.917-3.333 7.917-6.25 11.25-6.25 8.75 0 50.833-22.5 51.25-27.083 0-2.083 3.75-8.333 7.917-13.333 7.083-8.334 9.583-8.75 21.25-5 12.5 4.583 41.25 3.333 60.416-2.084 4.584-1.666 1.667.417-6.25 4.167-7.916 3.75-26.25 8.75-40.416 11.25-35.834 5.833-34.167 13.333 1.666 9.583 27.5-2.916 27.917-2.916 20.417 5.417-7.917 8.75-28.333 14.167-78.75 21.25-16.25 2.5-35.417 5.417-42.083 6.25-10 1.667-11.25 1.25-6.667-4.167Z"/>
  <path fill="none" stroke="#1d5cdd" stroke-width="4.17" d="M661.428 1020.91c-.65-.325-1.376-.628-1.962-1.069-.326-.246-.768-1.067-.988-.724-.404.63.016 1.552-.235 2.172-1.028 2.536-5.159 5.036-7.247 6.15"/>
  <path fill="#195aea" fill-rule="nonzero" d="M409.583 1002.92c-10.416-3.334-13.75-7.084-13.75-14.167 0-7.5-2.5-9.583-10.416-9.583-7.5 0-10.417-2.084-10.417-8.334 0-4.583-2.917-8.333-6.25-8.333-3.75 0-6.25-3.75-6.25-10.417 0-6.666-2.5-10.416-6.25-10.416-3.333 0-6.25-1.667-6.25-4.167 0-2.083-2.917-4.167-6.25-4.167s-6.25-3.75-6.25-8.333c0-5.417 2.917-8.333 7.5-8.333 10 .416 18.333 7.5 30 27.083 15.417 25 25 35 45.833 47.083 18.334 10.834 47.917 15.834 52.5 8.75 1.25-2.083 4.167-2.916 6.25-1.666 2.084 1.666 3.75.833 3.75-1.25 0-2.084 3.75-5 8.334-6.25 14.166-3.75 9.166 5-6.667 11.666-17.083 7.084-55 7.5-75.417.834Zm279.584-25.837c16.25-25.416 28.333-39.583 31.666-37.5 2.084 1.25 12.5-8.75 22.917-22.5 18.333-22.916 20.833-24.583 40.833-27.083 12.084-1.667 32.917-7.5 46.25-12.917 13.75-5.416 25.834-9.583 26.667-8.75 2.917 2.917-22.917 18.75-44.583 27.084-48.75 18.333-55.834 31.25-15 28.75 22.916-1.25 27.083-.834 26.25 5-1.667 8.333-56.667 34.583-95 45-17.084 4.583-35 10-39.584 11.666-8.333 3.334-8.333 3.334-.416-8.75Zm-169.584-17.5c1.667-4.166 5.417-11.666 8.75-16.666 3.334-5.417 5-9.584 3.75-9.584-1.666 0 0-7.083 2.917-15.416 7.917-23.334 4.583-81.25-5.833-95-1.667-2.084-4.167-7.5-5.417-11.25-2.083-5.834-.417-7.5 7.5-7.5 8.333 0 10.417 2.083 10.417 10 0 5.416 2.083 10.833 4.583 11.666 11.667 3.75 7.5 115.417-4.583 119.167-2.5.833-4.167 6.25-4.167 11.667 0 7.916-2.083 10-10.417 10-7.916 0-9.583-1.667-7.5-7.084ZM272.917 906.25c-11.25-10-19.167-18.333-17.084-18.75 2.084 0 7.084 3.75 10.834 8.333 9.166 10.417 16.666 12.5 55.416 15.834 3.75.416 7.084 3.75 7.084 7.083 0 4.583-4.584 6.25-17.5 6.25-15 0-21.25-2.917-38.75-18.75ZM791.667 850c0-4.583 3.75-17.917 7.916-30 13.75-37.083 18.334-71.667 15.834-114.583-2.084-39.167-2.084-40.417 8.333-48.334 5.833-5 17.917-20 26.667-33.333 13.333-20.417 16.25-23.333 16.25-15 0 5.833 2.083 12.5 4.583 15 3.333 3.333 3.333 7.083-.417 13.333-3.75 7.084-3.333 10.417 2.084 15.417 5.833 6.25 8.333 16.25 7.083 32.083-.417 3.75-5.417 14.584-11.25 24.167-14.167 22.083-10.833 31.25 3.333 10l11.25-16.667v20.834c0 18.333-1.666 22.083-17.5 38.333-19.166 19.583-19.166 27.917 0 14.167 6.667-4.584 13.334-7.5 14.584-6.25 10.416 10.416-50.834 75-81.25 86.25-5.417 2.083-7.5.416-7.5-5.417ZM147.5 785.417C138.333 752.5 148.75 630 163.333 602.5c3.75-7.083 5.417-5.833 11.667 11.25 7.917 20.833 31.25 52.917 38.333 52.917 2.5 0 3.334-2.917 1.667-6.25-1.25-3.334-1.25-6.25 0-6.25 6.25 0 10 23.333 5.417 36.25-5 15-12.084 15-12.084-.417 0-5.417-2.916-12.5-6.666-15.417-5.834-4.583-7.917-3.75-14.584 4.584-4.166 5.833-7.916 13.333-7.916 16.666 0 3.75-5.417 24.167-12.084 45.834-6.666 21.666-12.916 43.333-14.166 47.916-1.25 7.084-2.084 6.25-5.417-4.166Zm350.833-1.25c-1.25-2.084-10.416-7.917-20.833-13.334-22.917-11.666-24.167-16.666-4.583-16.666 7.916 0 14.583 2.083 14.583 4.166 0 2.5 3.75 4.167 8.333 4.167 6.667 0 8.334 2.917 8.334 12.5 0 12.5-1.667 15.417-5.834 9.167Zm-215-10.417c0-8.333 12.5-23.75 19.167-23.75 1.25 0 5-2.917 8.333-6.25 3.75-3.333 10.834-6.25 16.667-6.25 5.417 0 10-1.667 10-3.75 0-5.833 35-12.917 64.167-12.917 24.166 0 27.5.834 27.5 7.917 0 6.667-3.334 7.5-25.834 7.083-14.583-.416-32.916 2.084-40.833 5.417-7.917 2.917-15.417 5.417-16.667 5-3.333-.833-31.25 13.75-32.5 17.5-.833 1.667-4.166 2.917-7.5 2.917-3.333 0-5.833 1.25-5.833 3.333 0 1.667-3.75 5.417-8.333 8.333-7.5 4.584-8.334 4.167-8.334-4.583ZM560 739.167c-3.75-5.834-17.5-17.917-30-27.084-23.333-16.25-26.667-22.083-5.833-9.166 14.583 9.166 37.916 30.416 42.916 40 6.25 10.833.834 8.333-7.083-3.75Zm-158.75-67.084c3.75-.833 10.417-.833 14.583 0 3.75 1.25.417 2.084-7.5 2.084-7.916 0-11.25-.834-7.083-2.084Zm-187.5-63.75C219.167 559.583 252.917 450 262.917 450c2.083 0 16.25-10.417 31.666-22.917 15-12.5 35.417-25.416 45-28.333l17.5-6.25 2.5 21.667c1.25 11.666 3.75 27.083 5 34.166 2.5 11.667 1.25 13.75-25.833 33.334-26.667 19.583-54.167 48.75-76.25 80.416-12.917 18.75-33.333 58.75-33.333 65.834 0 2.916-4.167 5.416-8.75 5.416-8.75 0-8.75-1.25-6.667-25Zm577.083-.416-11.666-25.834 24.166-25.833c20.834-22.917 24.167-25.417 28.75-19.167 2.917 3.75 7.084 8.75 9.584 11.667 2.916 3.75 2.5 10-1.667 22.083-5.833 17.5-31.667 62.5-35.833 62.5-1.25 0-7.084-11.666-13.334-25.416Zm-38.75-63.75c-10.833-14.584-27.916-33.75-37.5-42.084l-18.333-15 7.917-13.333c4.166-7.5 8.75-23.333 10.416-35C717.5 415 721.25 412.083 730.417 425c3.333 4.583 6.666 7.083 7.916 5.833s17.5 12.917 35.834 31.25L807.5 495l-3.75 18.333c-5 21.25-20.833 54.584-27.083 56.25-2.5.834-13.334-10.416-24.584-25.416Zm-81.25-75.417c0-10.417-1.25-18.75-2.916-18.75-1.667 0-8.334 5-14.584 11.25l-11.666 11.25v-10.833c0-8.75-3.334-11.25-22.917-17.917-12.5-4.583-22.917-9.167-22.917-10.417 0-4.166 37.917-56.25 40.834-56.25 1.666 0 13.75 4.584 26.666 10.417 26.667 11.667 27.084 13.333 17.917 44.167-7.917 26.666-7.917 38.75.833 48.333 6.25 7.083 6.25 7.5-2.083 7.5-7.917 0-9.167-2.5-9.167-18.75Zm-271.25-48.333c17.5-50 21.667-57.917 31.667-57.917 9.167 0 9.167.417 3.75 15.417-10.417 30-5.417 41.25 7.917 17.083 11.666-21.25 31.25-40.833 40.416-40.833 7.5 0 7.917 1.25 3.75 8.75-4.583 8.75-3.333 36.25 2.084 50 2.5 5.416-4.167 8.333-33.75 16.25-20 5-42.917 10.416-50 11.666l-13.75 1.667 7.916-22.083Zm128.334 1.666-24.167-1.666 2.917-13.334C510 390 522.5 365.417 530.833 358.75c5-4.167 12.084-4.583 35-.417l28.75 5.417-7.916 15c-4.167 8.333-8.75 22.083-10.417 30.833-2.083 13.334-3.75 15.417-13.333 14.584-5.834-.417-21.667-1.25-35-2.084Z"/>
  <path fill="#0c80e2" fill-rule="nonzero" d="M416.667 1004.17c-3.334-2.084-10.417-4.167-15.417-4.167-21.667 0-65.833-29.583-107.083-72.083-22.917-23.334-36.667-38.334-30.834-32.917 12.084 10.833 32.5 17.5 54.584 17.5 24.583 0 42.916 9.583 55.416 30 43.75 70.833 101.667 81.25 140.834 24.583 43.333-62.5 32.5-154.583-22.5-187.916-16.667-10-34.167-21.667-53.334-35.834-5.416-3.75-18.75-7.916-30.416-9.166-39.584-3.75-87.084 15.833-126.25 52.916l-25 23.334 10-16.667c21.666-36.667 36.25-53.333 58.333-66.667 43.75-26.25 83.333-32.5 130.417-20.416 65.416 16.666 94.166 46.666 109.583 112.5 10.417 45.416 9.167 82.916-2.917 110-12.5 26.666-46.25 59.583-73.75 71.25-19.583 8.333-61.25 10.416-71.666 3.75Z"/>
  <g fill="#2d6cf2" fill-rule="nonzero">
    <path d="M691.667 978.75c0-2.5 5.833-12.917 12.916-23.333 10.834-15.417 12.5-20.417 8.75-27.917-3.333-7.5-2.5-12.5 4.167-22.5 4.583-7.083 9.167-19.167 10-26.667 2.5-15.833 10-32.5 15-32.5 5.833 0 3.75 27.917-2.917 33.334-11.25 9.166-6.666 12.5 16.667 12.5 13.75 0 22.917 1.666 22.917 4.583 0 7.917-35.834 51.25-57.5 69.583-21.25 17.5-30 21.25-30 12.917Z"/>
    <path d="M754.167 861.25c0-5.833 3.75-19.583 8.75-30.833 17.5-40 21.25-57.917 22.5-102.5l1.25-44.584 17.916-12.5 18.334-12.083L826.25 670c5 16.667 4.583 91.667-.833 115.417-2.5 11.666-7.917 30.833-11.667 43.333-6.667 19.583-9.583 23.333-24.167 30-31.666 13.75-35.416 13.75-35.416 2.5Zm-157.084-17.5c0-9.167.834-12.5 1.667-7.083.833 5 .833 12.5 0 16.666-1.25 3.75-2.083-.416-1.667-9.583Zm135.417-30c-2.5-11.667.833-22.083 7.5-22.083 3.75 0 5.833 4.583 5.833 14.583 0 15.417-10 20.833-13.333 7.5Zm5.833-41.667c.834-9.583-.416-12.083-8.333-12.916-6.667-1.25-9.167-3.334-7.5-7.917 1.25-3.333 2.5-7.917 2.5-10s2.917-3.75 6.25-3.75 6.25 3.75 6.25 8.333c0 5.417 2.917 8.334 8.333 8.334 6.667 0 8.334 2.916 8.334 14.583 0 12.083-1.667 14.583-8.75 14.583-6.667 0-8.334-2.083-7.084-11.25ZM527.083 710l-12.5-10.833 13.75 6.666c7.084 3.75 13.334 8.75 13.334 10.834 0 5.416-.417 5.416-14.584-6.667Zm205.417 1.667c0-2.917-.833-10-1.667-15.834-3.75-37.5-6.25-55.416-8.333-58.75-1.25-2.083 2.5-3.75 7.917-3.75 9.166 0 10.416 2.084 12.5 28.334 4.583 44.166 3.75 55-3.334 55-3.333 0-6.666-2.5-7.083-5Zm-521.25-23.334c-1.25-6.25-3.75-14.583-5-18.75-2.083-5-1.25-6.666 2.5-5 4.583 1.667 5.833-3.75 5.833-23.75 0-19.166 2.5-31.666 10-47.083 13.75-28.333 37.084-62.083 60.417-87.917 19.583-22.083 75.417-63.333 80-59.166 1.25 1.25 3.333 12.5 4.583 25l2.084 22.5-27.5 22.083c-27.917 22.083-35.417 30.417-17.917 20 5-3.333 21.25-10.417 36.25-15.417 15-5.416 27.917-11.25 29.167-12.916 1.25-1.25 12.083-4.167 24.166-5.834 13.334-1.666 21.667-5 21.667-8.333 0-8.75 11.667-10.833 44.583-7.917 25 2.5 33.75 1.25 48.334-5 9.583-4.166 19.166-10 20.833-12.916 1.667-2.917 8.333-5.417 14.583-5.834h11.25l-10.416-4.583c-19.584-8.333-86.667-5.833-120.834 4.583-17.083 5.417-32.916 11.25-35 13.334-4.583 4.166-27.5 5.416-27.5 1.25 0-1.25 2.917-12.5 6.667-25l6.25-22.5 27.917-7.917C439.583 416.667 460 411.667 470 410c16.25-2.5 18.333-1.667 20.417 6.25 2.916 11.25 13.75 11.667 13.75.417 0-7.5 2.916-8.334 26.25-8.334 35 0 44.583 3.334 44.583 14.167 0 22.5 9.167 35.417 14.583 20.417 1.25-4.167 5-10.834 7.917-15 5.417-7.084 6.667-7.084 30 1.666 13.75 5 26.667 10.834 29.583 12.917 7.5 5.833-10 30.833-27.916 39.167-7.917 3.75-19.584 9.583-25.834 12.916-14.583 7.5-15.833 7.084-15.833-4.583 0-14.583-7.917-15.417-29.167-3.333-26.666 15.416-60.833 22.916-68.333 15-9.167-8.75-22.5-7.084-47.083 6.666-12.084 6.667-25.417 12.5-29.584 12.5-4.166 0-17.5 4.584-29.166 10.417-12.084 5.833-23.75 10.417-26.25 10.417-23.75 0-104.584 77.083-124.584 118.75-7.083 14.583-12.5 28.333-12.5 30.416 0 10-7.5 8.334-9.583-2.5Zm204.583-16.25c5-.833 13.334-.833 18.75 0 5 .834.834 1.667-9.583 1.667s-14.583-.833-9.167-1.667ZM775 651.25C764.167 617.5 735.833 570 710.417 542.5l-26.25-27.917-2.917 16.667c-5 32.5-6.25 35.417-13.75 35.417-6.667 0-7.083-2.5-4.167-23.75 7.084-58.334 8.75-67.917 10-67.917s5.417 2.5 10 5c6.667 4.167 10 4.167 17.084 0 7.5-4.583 10-4.583 17.5 2.083 17.083 14.167 39.166 38.334 54.166 58.75 13.334 18.75 14.167 21.25 7.917 27.5-7.917 7.917-3.75 14.167 5 7.084 5-4.167 7.5-2.5 14.167 10.833 15 29.167 15 32.917 0 57.5-7.5 12.5-15 22.917-16.667 22.917-1.25 0-5-7.084-7.5-15.417Z"/>
    <path d="M697.917 630.417C695 617.5 686.25 589.167 681.25 578.333c-2.5-6.25-.833-7.5 7.5-7.5 9.167 0 11.667 2.917 15 15.834 2.5 8.333 4.583 20.416 4.583 27.083 0 6.25 2.084 11.25 4.167 11.25 7.083 0 4.583 7.917-4.167 12.5-7.083 3.75-8.333 2.917-10.416-7.083Z"/>
  </g>
  <path fill="#3d7bf7" fill-rule="nonzero" d="M716.667 912.5c0-4.583 1.666-8.333 3.75-8.333 6.666 0 14.166-42.084 15.416-85.417.417-22.917 1.667-45.417 2.5-50 .834-5.833-1.25-8.75-7.5-9.583-8.75-1.25-9.166-1.667-2.916-25 4.166-15.834 5.416-31.25 3.333-46.667-1.25-12.5-3.333-27.917-3.75-34.167-1.25-14.583-4.583-17.916-18.333-17.916-9.584 0-10.834-2.084-15.417-22.917-5-25.417-16.667-45.833-25.833-45.833-5 0-5.417-4.167-2.917-23.334 1.25-12.5 5-30.833 7.917-40.416l5.416-17.5 35.417 35.833c28.75 29.583 39.167 43.75 55 75.833 20 40 22.917 53.75 17.083 74.584-2.5 9.166-2.083 10.833 4.584 10.416 7.083-.833 7.5 3.334 7.5 49.167-.417 51.25-2.917 62.917-21.667 109.167-8.75 20.833-13.75 27.5-25.417 33.333-16.666 8.333-21.666 16.667-10.833 18.75 6.25 1.25 5.417 3.333-4.167 15-13.333 15.417-19.166 17.083-19.166 5Zm37.5-212.083c-2.5-16.25-5.417-29.584-6.25-29.584-1.25 0 .833 70.417 2.083 75 .417 1.25 2.5-2.083 5-6.666 2.917-6.667 2.917-17.917-.833-38.75ZM725 613.75c0-2.083-3.75-7.917-8.333-13.75-6.25-7.917-8.334-8.75-8.334-3.333 0 11.25 4.584 20 10.834 20 3.333 0 5.833-1.25 5.833-2.917ZM250 615c0-10.417 17.5-40 40.833-70 17.5-22.917 67.917-65.833 77.084-65.833 2.083 0 2.916 5.416 1.666 12.5-4.166 19.583 4.584 14.583 9.584-5.417 5-19.583 9.583-22.917 56.25-37.083 23.333-7.5 39.583-9.167 82.083-9.584 37.083 0 54.583 1.667 58.333 5.417 2.5 2.5 8.75 5 12.917 5 12.917 0 48.75 14.167 48.75 19.167 0 4.583-38.333 26.666-46.25 26.666-2.083 0-3.75-3.75-3.75-8.333 0-10.417-11.25-15.417-20.417-9.167-15 10.834-32.916 19.167-51.25 24.167-16.25 4.167-20.416 4.167-24.583-.833-7.917-9.584-28.333-6.667-50.833 7.083-11.25 6.667-23.334 11.667-26.667 10-3.75-1.25-8.75-.417-11.667 2.083-2.5 2.084-17.083 8.75-31.666 14.167-27.917 10.417-56.667 25.417-64.584 33.333C272.083 603.333 250 621.667 250 615Z"/>
  <path fill="#508cfc" fill-rule="nonzero" d="M358.333 931.25c-5.416-5.833-12.916-10.417-16.25-10.833-4.166 0-4.583-1.25-1.666-2.084 7.083-2.916 20.833 5.417 26.25 15 5.833 11.25 3.333 10.417-8.334-2.083Zm380.834-116.667c-1.25-8.333-.834-22.5 1.666-32.083 4.584-18.333 1.25-28.333-9.583-28.333-4.583 0-4.583-3.75-.417-19.584C735 719.167 735 705 731.667 672.917l-4.584-41.667-13.333.833c-12.5 1.25-13.333.417-17.5-20-5.417-25.416-14.583-43.75-23.333-47.083-5-1.667-6.25-6.667-5-19.167.833-9.166 2.916-17.916 4.583-19.583 4.167-4.167 44.583 40.417 60.417 67.5 30 49.583 42.5 110.417 34.166 164.167-5.416 37.083-15.833 71.25-21.25 71.25-2.083 0-5-6.667-6.666-14.584ZM352.083 526.667c20.834-18.334 75.834-45.417 105.417-51.25 27.083-5.417 100.833-6.25 100.833-.834 0 6.667-22.083 19.584-41.666 24.584-15.417 3.75-19.584 3.333-25.834-2.084-9.583-8.75-30.416-5-53.333 9.167-9.167 5.833-20.417 10.417-24.167 10-3.75-.417-14.583 2.5-23.75 6.667-9.166 3.75-25 9.583-35.416 12.916l-18.75 5.417 16.666-14.583Z"/>
</svg>