<?xml version="1.0" encoding="UTF-8" standalone="no"?><!DOCTYPE svg PUBLIC "-//W3C//DTD SVG 1.1//EN" "http://www.w3.org/Graphics/SVG/1.1/DTD/svg11.dtd"><svg width="100%" height="100%" viewBox="0 0 1250 1250" version="1.1" xmlns="http://www.w3.org/2000/svg" xmlns:xlink="http://www.w3.org/1999/xlink" xml:space="preserve" xmlns:serif="http://www.serif.com/" style="fill-rule:evenodd;clip-rule:evenodd;stroke-linecap:round;stroke-linejoin:round;stroke-miterlimit:1.5;"><g><path d="M355.417,1106.25c-29.584,-8.333 -50,-19.167 -70.834,-38.75c-10.416,-10.417 -22.916,-17.5 -32.5,-19.167c-25,-5 -51.666,-35.833 -78.75,-90.833c-12.5,-25.833 -25.833,-57.083 -29.166,-69.583c-7.5,-25.417 -9.167,-60.834 -2.5,-50.417c7.083,11.25 9.166,0.833 2.083,-12.5c-9.167,-17.917 -6.667,-32.917 25.417,-142.5c1.666,-5.833 6.666,-7.5 21.666,-7.5l19.584,-0l13.75,-26.667c17.916,-34.583 70.416,-88.333 101.25,-102.916c45.833,-22.5 70.833,-32.917 78.75,-32.917c4.583,-0 15.833,-5 24.583,-10.833c18.75,-12.084 59.167,-18.334 68.75,-10.417c7.083,6.25 22.917,2.5 45.833,-10.417c22.084,-12.5 48.334,-13.75 48.334,-2.083c-0,7.917 0.833,7.917 15.833,2.083c8.333,-3.75 19.167,-10 24.167,-14.583c5.416,-5.417 14.583,-7.917 26.666,-7.917l17.917,0l-2.5,50c-2.083,41.25 -1.667,50 3.333,50c11.25,0 19.167,16.667 28.75,59.584c2.084,9.166 5,11.25 14.584,11.25c10.833,-0 12.083,1.666 14.583,17.5c6.25,45 7.5,77.5 3.333,92.083c-3.75,12.917 -3.333,15.417 1.667,15.417c5.417,-0 5.833,7.916 3.333,53.333c-2.5,52.917 -10,91.25 -20.833,107.083c-3.333,4.584 -5.833,14.584 -5.833,22.084c-0,16.25 -21.667,50.833 -32.084,50.833c-3.75,0 -5.416,2.5 -4.166,5.833c1.25,2.917 -1.667,12.084 -6.25,19.584c-5,7.916 -9.584,12.083 -10.417,9.166c-2.083,-6.25 -24.583,-7.083 -28.333,-1.25c-1.25,2.5 1.25,4.167 5.833,4.167c12.917,-0 10.833,13.75 -2.5,21.667c-6.667,3.333 -20.417,7.916 -31.667,9.166c-30.416,4.584 -76.666,27.5 -55.416,27.5c3.75,0 6.666,2.917 6.666,6.25c0,10.834 -40,17.917 -112.5,20.417c-52.916,1.667 -73.75,0.833 -90.416,-3.75Zm45.833,-89.583c5,-0 16.25,1.25 25,2.5c12.917,2.5 15.417,4.583 15.417,12.5c-0,5.416 2.083,10 4.166,10c2.5,-0 4.167,-4.584 4.167,-10c0,-7.917 2.917,-10.417 13.75,-12.5c17.917,-3.334 48.75,-16.25 48.75,-20c0,-2.084 3.333,-3.334 7.5,-3.334c3.75,0 9.167,-4.166 11.25,-9.166c2.917,-7.084 8.333,-10 18.75,-10.834c14.583,-1.25 15,-1.666 13.333,-16.25c-1.25,-7.916 -0.416,-15.833 1.667,-17.5c4.167,-2.916 13.75,-26.25 17.083,-40.833c1.667,-7.5 5,-9.583 16.25,-9.583c12.5,-0 14.167,1.25 14.167,11.666c0.417,10.834 0.833,10.834 8.75,-4.583c12.5,-23.333 24.583,-75.417 24.583,-104.583c0,-62.084 -43.75,-138.334 -95.416,-166.25c-28.334,-15.417 -75,-25 -104.584,-21.667c-42.916,5.417 -107.916,39.583 -141.25,74.583l-14.583,15l11.25,0c8.333,0 11.25,-2.083 11.25,-8.333c0,-5.417 2.917,-8.333 8.333,-8.333c4.584,-0 8.334,-1.667 8.334,-4.167c-0,-2.083 6.666,-4.167 14.583,-4.167c13.75,0 14.583,0.834 14.583,14.584c0,11.666 -1.666,14.583 -8.333,14.583c-4.583,0 -8.333,2.083 -8.333,4.167c-0,2.5 -5.417,4.166 -12.5,4.166c-9.584,0 -12.5,1.667 -12.5,8.334c-0,6.666 -2.917,8.333 -14.167,8.333c-13.333,0 -14.583,-1.25 -15.833,-13.333l-1.25,-13.75l-9.584,15c-10.833,17.916 -11.25,20.416 -2.916,20.416c4.166,0 6.25,4.584 6.25,14.584c-0,7.916 -1.667,14.583 -4.167,14.583c-2.083,0 -4.167,2.917 -4.167,6.25c0,3.333 -1.666,6.25 -4.166,6.25c-2.084,0 -4.167,2.917 -4.167,6.25c0,3.333 -1.667,6.25 -3.333,6.25c-2.084,0 -6.25,12.917 -9.167,28.75c-4.583,25.417 -4.583,31.25 1.667,50c10,31.25 9.166,42.083 -4.167,42.083c-9.167,0 -10,1.25 -7.5,9.584c1.25,5 6.667,16.666 11.667,25.833l8.75,16.667l1.25,-13.75c1.25,-13.334 2.083,-13.75 16.666,-12.5c13.334,1.25 15.417,2.916 16.667,12.916c1.25,8.75 3.75,11.25 11.667,11.25c7.916,0 10,2.084 10,10.417c-0,9.167 1.666,10.417 14.583,10.417c7.917,-0 14.583,2.083 14.583,4.166c0,2.5 2.917,4.167 6.25,4.167c3.334,-0 6.25,2.083 6.25,4.167c0,2.5 2.917,4.166 6.25,4.166c3.334,0 6.25,2.084 6.25,4.167c0,2.5 3.75,4.167 8.334,4.167c6.666,-0 8.333,2.916 8.333,14.583c-0,13.75 -0.833,14.583 -14.583,14.583c-7.917,0 -14.584,-1.666 -14.584,-4.166c0,-2.084 -3.75,-4.167 -8.333,-4.167c-4.583,-0 -8.333,-1.667 -8.333,-4.167c-0,-2.083 -2.917,-4.166 -6.25,-4.166c-3.334,-0 -6.25,-1.667 -6.25,-4.167c-0,-2.083 -2.917,-4.167 -6.25,-4.167c-3.75,0 -6.25,-3.75 -6.25,-10.416c-0,-9.167 -1.667,-10.417 -14.584,-10.417c-12.5,-0 -14.583,-1.25 -14.583,-10c0,-7.917 -2.5,-10.417 -12.5,-11.667l-12.5,-1.666l11.25,14.583c6.25,8.333 13.75,16.25 16.25,18.333c2.917,1.667 7.917,5.417 10.833,8.334c15.417,15 37.5,26.666 61.667,32.5l27.083,7.083l1.25,-14.167c1.25,-11.25 2.917,-14.166 10.417,-14.166Z" style="fill:#a64800;fill-rule:nonzero;"/><path d="M362.5,672.917c0,-13.75 0.833,-14.584 14.583,-14.584c13.75,0 14.584,0.834 14.584,14.584c-0,13.75 -0.834,14.583 -14.584,14.583c-13.75,0 -14.583,-0.833 -14.583,-14.583Z" style="fill:#a64800;fill-rule:nonzero;"/><path d="M645.485,1015.55l-0.975,0.961l-0.569,0.329l-0.135,0.076c-1.265,0.333 -2.522,0.713 -3.751,1.142c-1.04,0.363 -3.376,1.178 -4.476,1.688c-0.868,0.402 -1.425,0.853 -1.678,1.103c-1.482,1.461 -1.405,3.008 -1.157,4.024c0.178,0.729 0.94,3.41 4.592,3.225c2.468,-0.125 6.509,-1.861 9.396,-3.329l0.527,-0.127c1.035,-0.243 1.888,-0.853 2.455,-1.661c1.009,-0.842 2.48,-2.249 3.176,-3.141c0.815,-1.044 1.067,-2.012 1.131,-2.468c0.313,-2.243 -0.747,-3.57 -2.226,-4.342c-0.52,-0.271 -2.026,-1.066 -4.318,0.156c-0.981,0.523 -1.667,1.384 -1.992,2.364Z" style="fill:#a64800;"/><path d="M642.057,1013.77c-1.421,0.135 -2.734,0.644 -3.982,1.317c-0.699,0.377 -1.298,0.968 -2.036,1.078c-2.274,0.337 -3.847,2.458 -3.509,4.733c0.337,2.275 2.458,3.847 4.733,3.51c1.282,-0.191 2.505,-0.719 3.7,-1.386c0.616,-0.344 1.164,-0.888 1.878,-0.955c2.289,-0.216 3.972,-2.251 3.756,-4.54c-0.216,-2.29 -2.251,-3.973 -4.54,-3.757Z" style="fill:#a64800;"/></g><g><path d="M350,1050.83c-15,-3.75 -33.333,-11.666 -41.25,-17.083l-14.167,-10l-7.5,8.75c-3.75,5 -9.166,9.167 -11.666,9.167c-2.084,-0 0.416,-5 6.25,-11.25l10.416,-11.25l-10,-5.834c-14.583,-9.166 -43.75,-54.166 -55.416,-85.833c-18.334,-51.25 -9.167,-137.083 22.5,-201.667c32.083,-65.833 120.416,-126.666 193.75,-132.5c87.916,-7.5 152.916,26.667 191.25,101.25c21.666,42.084 25.416,60.834 22.916,112.5c-3.75,87.084 -35,145.417 -106.666,200.834c-60.417,46.666 -129.167,61.666 -200.417,42.916Zm25,-32.083c-0,-4.167 4.583,-6.25 14.583,-6.25c10,0 14.584,2.083 14.584,6.25c-0,8.333 40.416,8.333 68.75,0c27.083,-8.333 60.833,-31.667 74.583,-51.667c10.417,-14.583 29.167,-27.916 37.083,-25.833c2.084,0.417 2.084,-1.25 0.834,-4.167c-1.667,-2.5 0.833,-7.916 5.416,-12.5c11.667,-10.833 32.5,-55.416 37.917,-82.083c10,-48.333 2.5,-96.25 -22.5,-140.417c-36.25,-64.583 -93.333,-93.333 -161.667,-81.666c-28.333,5 -78.333,25.416 -96.666,39.583c-7.917,6.25 -7.917,6.25 5.416,6.667c12.5,-0 13.334,0.833 13.334,14.583c-0,13.75 -0.834,14.583 -14.167,14.583c-13.333,0 -14.583,-1.25 -15.833,-13.333l-1.25,-13.75l-21.667,21.25c-19.583,18.75 -22.083,22.917 -22.083,38.333c-0,14.584 -1.25,17.5 -8.334,17.5c-5.833,0 -8.333,2.917 -8.333,10c-0,6.25 -2.917,10.834 -7.5,11.667c-11.667,3.333 -23.333,55.417 -19.583,89.167c1.666,14.583 4.166,26.666 5.833,26.666c5.833,0 12.917,20.834 12.917,36.667c-0,10 4.166,21.667 12.5,34.167c6.666,10.416 12.5,16.25 12.5,13.75c-0,-3.334 5.833,-5.417 14.583,-5.417c13.75,0 14.583,0.833 14.583,14.583c0,7.917 -2.083,14.584 -4.583,14.584c-9.583,-0 2.917,10 27.083,21.25c29.167,13.75 31.667,14.166 31.667,5.833Z" style="fill:#ac5200;fill-rule:nonzero;"/><path d="M387.5,668.75c0,-13.75 0.833,-14.583 14.583,-14.583c13.75,-0 14.584,0.833 14.584,14.583c-0,13.75 -0.834,14.583 -14.584,14.583c-13.75,0 -14.583,-0.833 -14.583,-14.583Z" style="fill:#ac5200;fill-rule:nonzero;"/></g><g><path d="M408.333,1106.67c0,-5.834 12.084,-10.834 28.334,-10.834c6.25,0 9.166,2.5 9.166,8.334c0,7.083 -2.916,8.333 -18.75,8.333c-13.333,0 -18.75,-1.667 -18.75,-5.833Z" style="fill:#4a00b5;fill-rule:nonzero;"/><path d="M495.833,1103.33c0,-3.75 8.75,-8.75 25,-12.916c31.25,-8.75 33.334,-8.75 33.334,0.833c-0,9.583 -6.25,12.083 -35.834,15.417c-18.333,2.5 -22.5,1.666 -22.5,-3.334Z" style="fill:#4a00b5;fill-rule:nonzero;"/><path d="M589.583,1054.58c6.667,-6.666 52.5,-29.583 58.75,-29.583c10.417,0 6.25,16.25 -5.416,22.083c-14.584,7.5 -59.584,13.75 -53.334,7.5Z" style="fill:#4a00b5;fill-rule:nonzero;"/><path d="M643.361,1028.13c3.416,-1.129 10.298,-4.456 10.989,-7.696c0.259,-1.214 0.427,-2.602 1.098,-3.691c0.339,-0.552 1.941,-1.791 1.292,-1.509" style="fill:none;stroke:#4a00b5;stroke-width:4.17px;"/><path d="M662.5,1020.83c0,-2.083 -2.917,-4.166 -6.25,-4.166c-3.75,-0 3.75,-14.167 20.833,-39.167c16.25,-23.333 27.084,-43.75 27.084,-50c-0,-7.917 2.083,-10.833 8.333,-10.833c7.083,-0 8.333,2.916 8.333,18.75c0,14.166 -2.083,20 -8.333,23.75c-4.583,2.916 -8.333,8.333 -8.333,12.5c-0,3.75 -5.417,9.166 -12.5,12.5c-8.75,3.75 -11.667,7.5 -10,12.5c1.25,3.75 -0.834,12.083 -5,17.916c-7.084,10.417 -14.167,13.75 -14.167,6.25Z" style="fill:#4a00b5;fill-rule:nonzero;"/><path d="M414.583,1007.5c-15,-7.917 -44.166,-38.333 -52.5,-54.167c-10,-19.166 -25,-27.5 -56.666,-30.833c-51.667,-5.833 -67.917,-22.083 -67.917,-68.333c0,-17.5 2.917,-33.334 7.917,-44.584c11.25,-24.166 42.916,-53.333 75.416,-69.166c25.834,-12.5 29.584,-13.334 75.417,-13.334c47.917,0 48.75,0 64.583,12.5c9.167,7.084 25.417,17.917 36.25,24.584c23.334,13.333 41.25,36.25 48.75,62.5c7.917,27.916 3.334,103.333 -7.083,127.5c-10.417,23.333 -27.5,44.166 -43.333,52.083c-13.75,7.5 -68.334,8.333 -80.834,1.25Zm17.084,-112.083c11.25,-5.417 22.5,-15.417 30.416,-27.5c18.75,-28.334 16.667,-50 -7.5,-71.25c-13.75,-12.5 -32.916,-10.417 -56.25,6.25c-21.25,15 -32.916,35 -32.916,56.666c-0,14.167 2.5,19.167 15,30.834c17.916,15.833 27.083,17.083 51.25,5Z" style="fill:#4a00b5;fill-rule:nonzero;"/><path d="M709.583,902.5c3.75,-5.417 8.75,-18.75 11.667,-29.167c2.917,-11.25 7.083,-19.166 10.417,-19.166c7.083,-0 7.5,14.583 1.25,40c-4.167,16.666 -5.834,18.333 -17.084,18.333c-12.5,0 -12.5,0 -6.25,-10Z" style="fill:#4a00b5;fill-rule:nonzero;"/><path d="M140.417,817.917c-1.667,-1.25 -2.917,-7.917 -2.917,-14.584c0,-8.75 2.083,-11.666 8.333,-11.666c8.75,-0 10,4.166 5.834,20c-2.5,9.166 -6.25,11.25 -11.25,6.25Z" style="fill:#4a00b5;fill-rule:nonzero;"/><path d="M145.833,772.5c0,-14.583 13.334,-64.167 17.5,-64.167c1.667,0 3.334,-5.416 3.334,-12.5c-0,-18.333 11.25,-29.166 30,-29.166c14.583,-0 15.833,1.25 20.416,15.833c3.75,13.333 3.334,18.333 -1.666,28.333c-4.584,7.917 -6.667,9.584 -7.084,5c0,-12.916 -9.583,-28.333 -17.083,-28.333c-7.5,0 -8.75,3.75 -27.083,70c-7.5,26.25 -18.334,35.417 -18.334,15Z" style="fill:#4a00b5;fill-rule:nonzero;"/><path d="M620.833,481.25c0,-8.333 2.084,-10.417 10.417,-10.417c7.5,0 10.417,-2.083 10.417,-7.916c-0,-8.75 7.916,-12.917 23.333,-12.917c7.5,0 10,2.083 10,9.583c0,5 1.25,13.334 2.5,18.75c2.083,7.5 0.833,9.167 -6.25,9.167c-5.833,0 -8.75,-2.5 -8.75,-8.333c0,-11.25 -6.667,-10.417 -21.667,2.083c-6.666,5.833 -14.166,10.417 -16.25,10.417c-2.083,-0 -3.75,-4.584 -3.75,-10.417Z" style="fill:#4a00b5;fill-rule:nonzero;"/></g><g><path d="M258.333,1050.42c0,-14.584 0.834,-16.25 9.167,-13.75c6.25,1.666 11.667,-1.25 19.167,-10l10,-12.084l-7.5,13.75c-7.917,13.75 -7.917,14.167 -0,20c4.583,3.334 5.833,5.834 3.333,5.834c-2.917,-0 -5,2.916 -5,6.25c-0,4.166 -4.583,6.25 -14.583,6.25c-14.167,-0 -14.584,-0.417 -14.584,-16.25Z" style="fill:#b15d00;fill-rule:nonzero;"/><path d="M377.083,1037.5c-45.833,-4.167 -80,-26.25 -109.583,-69.167c-11.667,-17.083 -31.25,-71.666 -28.333,-79.166c1.25,-3.334 0.416,-5.834 -2.084,-5.834c-2.5,0 -3.333,-3.75 -1.666,-8.75c2.083,-5.833 1.25,-7.916 -1.25,-6.25c-2.5,1.667 -3.334,-0.833 -2.084,-5.833c3.75,-14.583 12.917,-9.167 20,12.083c9.167,27.917 56.667,92.084 67.917,92.084c2.917,-0 6.25,2.916 7.5,6.25c1.667,3.333 5,6.25 7.917,6.25c2.916,-0 6.25,1.666 7.083,3.333c2.083,5 60.833,32.917 80.417,37.917c9.166,2.5 23.75,4.583 32.5,4.583c16.25,0 20.416,5.417 8.333,10.417c-10.417,4.583 -34.583,5.416 -34.583,1.25c-0,-1.667 -2.084,-3.334 -4.584,-3.334c-2.083,0 -2.916,2.084 -1.666,4.167c2.916,4.583 -0.417,4.583 -45.834,0Z" style="fill:#b15d00;fill-rule:nonzero;"/><path d="M562.5,962.5c0,-7.083 4.583,-22.083 10.417,-33.333c5.416,-10.834 11.25,-27.917 12.916,-37.084c1.667,-9.583 5,-17.083 7.917,-17.083c9.167,0 18.75,-34.167 18.75,-67.5c-0,-75 -36.667,-140.417 -90.833,-161.25c-26.25,-10.417 -50.417,-10.833 -85.417,-2.083l-25.833,6.25l1.25,16.666c1.666,16.25 1.666,16.25 -13.334,16.25c-12.5,0 -15,-1.666 -15,-8.75c0,-4.583 -1.666,-7.5 -3.75,-6.25c-1.666,1.25 -2.5,7.084 -1.666,12.5c2.083,9.584 0.833,10.417 -17.917,11.667c-16.667,0.833 -21.25,2.917 -24.583,10.833c-2.084,5 -6.25,9.167 -9.167,9.167c-2.917,-0 -5.417,2.083 -5.417,4.167c0,2.5 -2.083,4.166 -4.583,4.166c-7.083,0 -41.667,39.584 -54.167,62.084c-5.833,10.416 -12.083,26.25 -13.75,35c-1.666,8.75 -5.416,15.416 -8.333,15.416c-7.5,0 -11.25,-14.583 -5,-21.25c3.333,-3.75 3.333,-4.166 -1.25,-1.666c-3.75,2.083 -3.333,-0 1.25,-7.5c3.75,-5.417 6.667,-12.084 6.25,-13.75c-1.667,-10.417 0.833,-18.75 5.417,-15.834c2.916,2.084 3.333,1.25 1.25,-2.083c-1.667,-3.333 3.333,-18.333 12.916,-37.083c46.25,-92.917 164.167,-149.167 260,-124.167c30.834,7.917 44.584,15.833 65.834,36.667c47.5,46.666 69.583,120.833 57.083,192.083c-3.333,19.583 -10,44.583 -15,55.417c-11.667,27.5 -40.833,65 -48.333,62.5c-3.334,-1.25 -5,-0.834 -4.167,0.833c0.833,1.667 -1.667,6.25 -6.25,10.417c-7.083,6.666 -7.5,6.666 -7.5,-5.417Z" style="fill:#b15d00;fill-rule:nonzero;"/><path d="M575,781.25c0,-13.75 0.833,-14.583 14.583,-14.583c13.75,-0 14.584,0.833 14.584,14.583c-0,13.75 -0.834,14.583 -14.584,14.583c-13.75,0 -14.583,-0.833 -14.583,-14.583Z" style="fill:#b15d00;fill-rule:nonzero;"/><path d="M445,684.583c-10,-1.666 -11.667,-3.75 -11.667,-16.25c0,-15.416 3.334,-16.666 34.584,-11.666c14.166,2.5 15.416,3.75 15.416,16.666c0,13.334 -0.833,14.167 -13.333,13.75c-7.5,-0.416 -18.75,-1.666 -25,-2.5Z" style="fill:#b15d00;fill-rule:nonzero;"/></g><g><path d="M250,1067.92c0,-28.334 9.583,-36.667 29.167,-26.25c6.666,3.333 7.083,6.25 3.333,20.833c-4.167,15.417 -5.417,16.667 -18.333,16.667c-12.5,-0 -14.167,-1.25 -14.167,-11.25Z" style="fill:#b76800;fill-rule:nonzero;"/><path d="M336.667,1002.5c-4.167,-2.917 -5.834,-6.667 -4.167,-8.333c1.667,-2.084 -0,-2.5 -3.75,-1.667c-3.333,0.417 -11.667,-4.167 -18.333,-11.25c-6.25,-6.667 -9.167,-8.75 -5.834,-4.167c2.917,4.584 -1.25,1.667 -9.166,-6.25c-8.334,-7.916 -14.167,-15.416 -13.334,-16.25c0.417,-0.833 -0.833,-4.166 -3.333,-7.5c-3.75,-4.166 -2.917,-5.416 4.583,-5.416c5,-0 15.834,7.083 24.584,15.833c8.333,8.333 22.916,19.167 32.083,23.75c10,5.417 16.667,12.083 17.5,17.917c1.667,10.416 -2.917,11.666 -11.25,4.166c-4.583,-4.166 -5.417,-4.166 -2.917,0c3.75,6.25 2.5,6.25 -6.666,-0.833Z" style="fill:#b76800;fill-rule:nonzero;"/><path d="M585,907.5c1.667,-12.083 4.583,-32.917 6.25,-45.833c1.667,-13.334 1.667,-24.167 -0.417,-24.167c-5.416,0 -3.75,-28.333 2.084,-30.417c2.5,-1.25 0.833,-2.5 -4.167,-2.5c-7.5,-0.416 -9.583,-2.916 -9.583,-10.833c-0,-5.833 -1.667,-10.417 -4.167,-10.417c-2.083,0 -4.167,-6.666 -4.167,-14.583c0,-11.667 1.667,-14.583 8.334,-14.583c8.75,-0 10,-5 4.166,-18.75c-3.333,-7.5 -3.75,-7.084 -3.75,3.333c-0.416,10 -2.083,11.25 -15,11.25c-13.75,0 -14.583,-0.833 -14.583,-14.583c0,-13.334 0.833,-14.584 12.5,-14.584c7.083,0 12.5,-1.25 12.5,-3.333c0,-1.667 -8.333,-12.5 -18.75,-24.167c-24.583,-28.333 -57.5,-41.666 -92.5,-37.083c-26.667,2.917 -50.833,12.917 -54.167,21.667c-1.25,3.333 -8.75,5.416 -18.333,5.416c-8.75,0 -16.25,2.084 -16.25,4.167c0,2.5 -2.917,4.167 -5.833,4.167c-7.084,-0 -55,27.5 -58.75,33.333c-1.25,2.5 -7.917,4.167 -14.584,4.167l-12.083,-0l7.083,-12.5c3.75,-6.667 8.75,-12.5 10.417,-12.5c2.083,-0 2.083,2.083 0.417,5c-1.667,2.916 -1.25,3.333 1.666,1.666c2.5,-1.666 3.75,-5.416 2.084,-8.75c-1.25,-3.333 -0,-6.25 2.5,-6.25c2.083,0 14.583,-8.333 27.083,-18.333c43.333,-35.417 90.417,-52.5 145.833,-52.5c52.917,-0 92.084,21.667 117.084,64.583c30,51.25 37.083,133.334 17.083,189.167c-18.333,50.417 -35,66.667 -30,28.75Z" style="fill:#b76800;fill-rule:nonzero;"/><path d="M467.5,677.083c0.417,-13.75 1.25,-14.583 14.583,-14.583c12.917,0 13.75,0.833 13.75,14.583c0,13.75 -0.833,14.584 -14.583,14.584c-13.75,-0 -14.167,-0.417 -13.75,-14.584Z" style="fill:#b76800;fill-rule:nonzero;"/></g><g><path d="M437.5,1008.33c0,-7.083 2.917,-8.333 18.75,-8.333c15.833,0 18.75,1.25 18.75,8.333c0,7.084 -2.917,8.334 -18.75,8.334c-15.833,-0 -18.75,-1.25 -18.75,-8.334Z" style="fill:#4900d8;fill-rule:nonzero;"/><path d="M386.25,988.333c-4.167,-4.166 -7.083,-13.75 -7.083,-20.833c-0,-11.25 -1.667,-13.333 -10.417,-13.333c-5.833,-0 -10.417,-1.667 -10.417,-3.334c0,-2.083 -3.333,-7.5 -7.5,-12.5c-5.833,-6.666 -17.5,-10.416 -47.083,-15.416c-21.667,-3.334 -39.583,-7.917 -40.417,-10.417c-0.833,-2.083 -3.75,-4.167 -6.25,-4.167c-7.083,-0.416 -19.583,-27.083 -22.5,-47.916c-2.083,-17.917 8.334,-60.417 15.417,-60.417c1.667,0 4.167,-3.75 5.417,-8.333c1.25,-5 5.833,-8.334 10.416,-8.334c5.834,0 9.167,-3.333 10,-9.166c0.834,-7.917 4.167,-10 17.917,-10.834l16.667,-1.25l-22.084,21.25c-36.25,34.584 -47.083,70.834 -30,99.167c10,16.25 26.25,23.75 59.584,27.5c30.833,3.333 46.666,11.667 55.416,28.75c3.75,7.083 16.25,23.333 27.917,35.417l21.25,21.666l-14.583,0c-9.167,0 -17.5,-2.916 -21.667,-7.5Z" style="fill:#4900d8;fill-rule:nonzero;"/><path d="M511.667,967.917c14.583,-20.834 22.5,-44.584 24.583,-77.084c4.167,-55.416 -12.917,-92.083 -52.917,-115c-11.25,-6.666 -19.583,-13.333 -17.916,-14.583c4.166,-4.583 30.416,-3.333 30.416,1.25c0,2.5 2.917,4.167 6.25,4.167c4.167,-0 6.25,4.166 6.25,12.5c0,11.25 1.25,12.5 12.5,12.5c11.25,-0 12.5,1.25 12.5,12.5c0,8.333 2.084,12.5 6.25,12.5c3.334,-0 7.084,6.25 9.167,15.833c5,22.5 2.917,94.167 -2.5,95.833c-2.5,0.834 -4.583,7.084 -4.583,13.75c-0,7.917 -2.084,12.084 -6.25,12.084c-4.167,-0 -6.25,4.166 -6.25,12.5c-0,11.25 -1.25,12.5 -12.917,12.5l-12.5,-0l7.917,-11.25Z" style="fill:#4900d8;fill-rule:nonzero;"/><path d="M367.5,902.5c-15,-13.75 -15.417,-15.417 -15.417,-42.917c0,-34.166 8.75,-51.25 34.584,-69.583c13.75,-10 23.333,-12.917 43.75,-14.167c22.5,-1.25 27.083,-0.416 36.666,8.334c16.25,14.166 20.417,25 20.417,52.5c0,46.25 -34.583,80 -82.5,80c-19.167,-0 -23.75,-1.667 -37.5,-14.167Z" style="fill:#4900d8;fill-rule:nonzero;"/><path d="M444.167,748.75c-17.917,-12.917 -59.167,-15 -90.834,-3.75l-24.166,8.333l-0,-10c-0,-8.333 2.083,-10 12.083,-10c6.667,0 12.917,-2.083 13.75,-5c2.5,-7.083 83.333,-7.083 85.833,0c0.834,2.5 5,5 9.584,5c5.833,0 7.916,2.917 7.916,12.5c0,7.084 -0.416,12.5 -0.833,12.5c-0.833,0 -6.667,-4.583 -13.333,-9.583Z" style="fill:#4900d8;fill-rule:nonzero;"/></g><g><path d="M199.167,1157.92l1.666,-28.75l18.334,-0c13.75,-0 18.333,1.666 18.333,6.25c0,3.75 6.667,9.583 14.583,13.333c8.75,4.167 14.584,10 14.584,14.583c-0,4.167 -1.25,7.5 -2.917,7.5c-11.667,0 -57.917,9.584 -61.667,12.5c-2.916,2.5 -3.75,-5.833 -2.916,-25.416Z" style="fill:#5d903c;fill-rule:nonzero;"/><path d="M233.333,1093.75c0,-13.75 0.834,-14.583 14.584,-14.583c13.75,-0 14.583,0.833 14.583,14.583c0,13.75 -0.833,14.583 -14.583,14.583c-13.75,0 -14.584,-0.833 -14.584,-14.583Z" style="fill:#5d903c;fill-rule:nonzero;"/><path d="M1016.67,724.583c-0,-4.583 8.333,-20 18.333,-34.166c10,-14.167 20.833,-31.667 24.583,-38.334c6.25,-12.916 58.75,-88.333 66.667,-95.833c7.5,-7.5 -15,28.333 -39.583,62.917c-13.334,18.75 -32.5,52.083 -43.334,74.166c-18.333,39.167 -26.666,48.75 -26.666,31.25Z" style="fill:#5d903c;fill-rule:nonzero;"/><path d="M1023.75,629.167c25.417,-37.084 64.583,-81.25 77.917,-88.334c7.083,-3.75 6.666,-2.5 -1.667,9.584c-15,21.666 -63.75,78.75 -83.333,97.5c-17.084,16.666 -17.084,16.25 7.083,-18.75Z" style="fill:#5d903c;fill-rule:nonzero;"/><path d="M969.583,529.583c-2.083,-9.166 20.834,-51.25 42.917,-78.75c7.083,-9.166 22.083,-22.916 32.5,-30.416l19.583,-13.75l-22.083,24.583c-14.583,15.833 -29.167,38.75 -41.667,65.417c-19.166,40.416 -27.083,48.333 -31.25,32.916Z" style="fill:#5d903c;fill-rule:nonzero;"/><path d="M943.333,472.083c-1.666,-6.666 0.417,-21.666 6.25,-39.583c10.417,-32.5 14.167,-35.417 8.75,-7.5c-8.333,42.5 -2.916,43.75 19.167,5.417c18.333,-31.25 77.917,-94.584 103.75,-109.167c14.583,-8.333 12.5,-5 -17.083,25.417c-45.417,46.666 -76.25,84.166 -92.917,112.916c-14.583,25.834 -23.75,30 -27.917,12.5Z" style="fill:#5d903c;fill-rule:nonzero;"/><path d="M899.583,413.333c-5,-5.416 -7.5,-21.25 -10.416,-67.5c-5.834,-97.5 -4.584,-122.916 8.333,-156.25c12.5,-32.916 37.917,-76.25 56.667,-97.916c11.25,-12.917 10.416,-9.584 -9.584,31.25c-12.5,25.416 -25.833,56.25 -29.583,68.75c-7.5,25 -8.333,71.666 -2.5,112.5c2.083,15 5,47.083 6.667,72.083c2.5,42.083 2.5,44.583 -5,44.167c-4.167,-0 -10.834,-3.334 -14.584,-7.084Z" style="fill:#5d903c;fill-rule:nonzero;"/><path d="M779.583,308.75c-5,-3.333 -5,-11.667 0.834,-60.417c8.333,-70.416 17.916,-91.25 64.166,-136.25c17.5,-17.083 27.917,-25 23.334,-18.333c-32.084,47.5 -61.25,128.333 -67.084,185.417c-2.916,31.666 -7.5,38.333 -21.25,29.583Z" style="fill:#5d903c;fill-rule:nonzero;"/><path d="M686.25,259.583c-1.667,-1.25 -2.917,-16.666 -2.917,-33.75c0,-33.333 7.5,-68.75 20.834,-97.5l8.333,-17.916l-1.667,25c-2.083,24.166 2.084,79.166 7.917,111.666l2.917,15.417l-16.25,0c-9.167,0 -17.917,-1.25 -19.167,-2.917Z" style="fill:#5d903c;fill-rule:nonzero;"/><path d="M646.25,238.75c0,-2.083 3.75,-18.333 7.917,-36.667l7.916,-33.333l-2.5,33.333c-2.5,35 -3.333,39.584 -10,39.584c-2.083,-0 -3.75,-1.25 -3.333,-2.917Z" style="fill:#5d903c;fill-rule:nonzero;"/><path d="M603.333,195.833c8.334,-17.916 15.417,-32.5 16.25,-31.666c3.334,2.916 -22.083,65 -26.666,65c-2.5,-0 1.666,-13.75 10.416,-33.334Z" style="fill:#5d903c;fill-rule:nonzero;"/><path d="M545.833,219.583c0,-0.833 5.834,-6.666 12.5,-13.333l12.917,-12.083l-6.667,13.333c-3.75,7.5 -9.583,13.333 -12.916,13.333c-3.334,0 -5.834,-0.416 -5.834,-1.25Z" style="fill:#5d903c;fill-rule:nonzero;"/><path d="M510.417,200c4.166,-4.583 8.333,-8.333 9.166,-8.333c0.834,-0 -0.416,3.75 -2.916,8.333c-2.5,4.583 -6.667,8.333 -9.167,8.333c-2.5,0 -1.25,-3.75 2.917,-8.333Z" style="fill:#5d903c;fill-rule:nonzero;"/></g><g><path d="M170.833,1249.17c0,-0.834 6.25,-16.667 13.75,-34.584c22.917,-55.833 26.25,-68.75 19.167,-73.333c-5,-2.917 -3.75,-7.083 5.833,-25.417c6.25,-12.083 18.75,-33.75 27.917,-47.916c15,-24.167 17.5,-26.25 31.25,-26.25c13.333,-0 14.583,0.833 14.583,12.5c0,6.666 -5.833,21.666 -12.916,33.75c-6.667,11.666 -17.917,32.5 -25,46.25c-11.25,22.083 -12.917,23.75 -20.834,19.583c-6.25,-3.333 -7.916,-3.333 -6.25,0c1.667,2.5 1.25,4.583 -0.416,4.583c-4.584,0 -23.334,40.834 -30.834,65.834c-2.916,9.583 -7.5,19.583 -10.833,22.083c-2.917,2.5 -5.417,4.167 -5.417,2.917Z" style="fill:#bc7200;fill-rule:nonzero;"/><path d="M591.667,870c-0.834,-77.5 -37.084,-137.917 -102.917,-170.833c-38.75,-19.167 -66.25,-22.917 -99.167,-13.75c-34.166,10 -56.25,12.5 -56.25,6.666c0,-2.5 2.917,-4.583 6.25,-4.583c3.334,-0 6.25,-2.083 6.25,-4.583c0,-2.084 1.667,-3.334 3.75,-2.084c2.084,1.25 4.584,0 5.834,-3.333c1.25,-2.917 11.25,-7.917 22.5,-10.833c10.833,-3.334 28.333,-10 38.75,-15c15.833,-7.917 25,-9.167 58.333,-8.75c49.167,0.833 72.5,11.25 98.333,42.916c25.417,31.25 36.25,68.334 35.417,118.334c-0.833,51.666 -2.5,76.666 -6.25,82.916c-6.667,10.417 -10.833,3.334 -10.833,-17.083Z" style="fill:#bc7200;fill-rule:nonzero;"/></g><g><path d="M283.333,1171.25c-17.5,-1.667 -37.083,-5.833 -45,-10c-7.5,-4.167 -15.416,-6.25 -17.5,-5c-5.416,3.333 12.5,-37.917 26.667,-61.25l10.417,-17.083l1.25,15.833c1.25,13.75 3.333,17.083 17.916,23.75c9.167,4.583 21.25,10.833 27.084,14.167c5.833,3.333 20.416,10.833 32.5,17.083c14.166,7.083 21.666,13.333 21.666,18.75c0,8.333 -10.416,8.75 -75,3.75Z" style="fill:#4c8265;fill-rule:nonzero;"/><path d="M205.417,1143.75c-2.5,-2.5 -5.834,-13.333 -7.5,-23.333c-2.917,-17.917 -10.834,-48.75 -16.667,-62.917c-5,-12.917 12.083,-8.75 28.333,6.25c11.667,11.25 17.084,13.75 27.5,12.083c7.084,-0.833 12.917,-0.833 12.917,0.834c0,1.25 -9.167,17.916 -20,37.083c-14.583,25.833 -21.25,33.75 -24.583,30Z" style="fill:#4c8265;fill-rule:nonzero;"/><path d="M587.5,831.25c0,-16.667 10,-20.417 14.167,-5c4.166,15.417 2.916,19.583 -5.834,19.583c-6.666,0 -8.333,-2.916 -8.333,-14.583Z" style="fill:#4c8265;fill-rule:nonzero;"/><path d="M969.167,815.833c-5.417,-20.416 -2.084,-31.666 18.75,-61.666c31.666,-46.25 40,-55.417 42.916,-47.5c4.167,11.25 -43.333,113.333 -54.583,117.083c-2.5,0.833 -5.417,-2.5 -7.083,-7.917Z" style="fill:#4c8265;fill-rule:nonzero;"/><path d="M558.333,747.083l0.417,-15.833l10,11.667c13.333,15 12.917,19.583 0,19.583c-9.167,0 -10.417,-1.667 -10.417,-15.417Z" style="fill:#4c8265;fill-rule:nonzero;"/><path d="M975.417,685.417c0.416,-4.167 37.083,-38.334 37.083,-34.584c0,0.834 -8.333,10 -18.75,20c-10.417,10 -18.75,16.667 -18.333,14.584Z" style="fill:#4c8265;fill-rule:nonzero;"/><path d="M950.417,577.5c-6.25,-7.083 22.5,-72.917 29.166,-66.25c7.084,7.083 5.834,20 -4.583,46.667c-10.417,25.833 -15.833,30 -24.583,19.583Z" style="fill:#4c8265;fill-rule:nonzero;"/><path d="M928.333,527.083c-2.916,-3.333 14.167,-77.083 17.917,-77.083c2.083,0 6.25,5.417 9.583,12.083c5.834,10.834 5.417,13.75 -5,39.167c-10,25 -16.25,32.083 -22.5,25.833Z" style="fill:#4c8265;fill-rule:nonzero;"/><path d="M897.083,476.25c-6.25,-9.583 -7.5,-18.75 -6.25,-54.167c0.417,-24.166 2.917,-42.916 5,-42.916c2.5,-0 4.167,2.5 4.167,5.416c0,2.917 4.583,9.584 10.417,14.584c9.583,8.333 10.416,11.666 10.416,48.75c0,36.25 -0.833,39.583 -7.916,39.583c-4.584,0 -11.667,-5 -15.834,-11.25Z" style="fill:#4c8265;fill-rule:nonzero;"/><path d="M842.083,405c-2.083,-3.75 -5,-26.667 -6.25,-50.833l-2.5,-43.75l12.917,26.25c8.333,16.25 13.75,35 15,50.833c2.083,23.333 1.667,25 -6.25,25c-5,0 -10.833,-3.333 -12.917,-7.5Z" style="fill:#4c8265;fill-rule:nonzero;"/><path d="M773.75,349.167c-6.25,-5 -6.25,-8.75 -2.5,-32.917l5,-27.5l10.417,5.417c9.583,5 10.416,7.916 10.833,32.5c0.417,25 -0.417,27.5 -8.333,27.5c-4.584,-0 -11.667,-2.5 -15.417,-5Z" style="fill:#4c8265;fill-rule:nonzero;"/><path d="M700.833,308.75c-5.833,-3.333 -17.5,-42.083 -17.5,-58.333c0,-7.5 1.667,-9.167 7.5,-6.667c3.75,1.667 11.667,4.167 17.917,5c9.167,1.667 11.25,5.833 17.5,29.583c3.75,15.417 7.083,29.167 7.083,31.25c0,4.167 -25.833,3.75 -32.5,-0.833Z" style="fill:#4c8265;fill-rule:nonzero;"/><path d="M639.167,254.167c8.75,-25.417 21.666,-35.834 16.666,-13.334c-6.25,28.334 -10.833,38.334 -17.916,38.334c-7.084,-0 -7.084,-1.667 1.25,-25Z" style="fill:#4c8265;fill-rule:nonzero;"/><path d="M437.5,265c0,-0.417 17.917,-16.667 39.583,-35.417c21.667,-18.75 39.584,-32.5 39.584,-30.833c-0,5.417 -16.25,30.833 -32.084,50.417c-12.5,15 -16.25,17.5 -30.833,17.5c-8.75,-0 -16.25,-0.834 -16.25,-1.667Z" style="fill:#4c8265;fill-rule:nonzero;"/><path d="M515.417,262.917l-11.667,-2.5l27.083,-26.667c15,-15 28.334,-25.833 30,-24.167c3.334,2.917 -24.166,54.167 -30,55.417c-2.083,0.417 -9.166,-0.417 -15.416,-2.083Z" style="fill:#4c8265;fill-rule:nonzero;"/><path d="M580.417,238.75c20,-31.667 26.25,-27.083 9.166,6.667c-7.083,14.583 -12.916,21.25 -18.75,21.25c-7.083,-0 -5.833,-3.334 9.584,-27.917Z" style="fill:#4c8265;fill-rule:nonzero;"/></g><g><path d="M321.25,1160.42c-14.583,-8.334 -28.75,-16.25 -31.25,-18.334c-2.5,-2.083 -9.167,-5 -15,-6.666c-5.417,-1.667 -16.25,-7.084 -23.333,-12.084c-12.917,-8.333 -13.334,-9.166 -7.5,-20c7.916,-15.416 18.333,-15 47.916,3.334c13.334,7.916 36.25,19.583 50.417,25.416c14.583,5.834 28.333,11.667 30.417,13.75c2.5,1.667 9.166,4.167 15.833,5.834c14.167,3.333 15.417,17.083 2.083,20.833c-22.083,5.833 -43.333,2.083 -69.583,-12.083Z" style="fill:#447c77;fill-rule:nonzero;"/><path d="M229.167,1104.58c-0,-2.083 -9.167,-10.416 -20,-18.333c-14.584,-10.417 -23.334,-20.833 -31.25,-37.917c-13.334,-28.333 -13.334,-27.5 -2.084,-27.5c5,0 19.584,10 34.167,24.167c14.167,12.917 29.167,25.833 33.333,27.917c7.084,4.166 7.084,5 -1.666,20c-9.167,15.416 -12.5,18.75 -12.5,11.666Z" style="fill:#447c77;fill-rule:nonzero;"/><path d="M941.667,855.833c-0,-25.416 28.75,-88.333 37.5,-82.916c2.083,1.25 3.75,12.083 3.75,24.166c-0.417,18.75 -2.5,24.584 -17.084,43.75c-21.25,27.084 -24.166,29.167 -24.166,15Z" style="fill:#447c77;fill-rule:nonzero;"/><path d="M48.75,708.333c-2.5,-9.583 3.75,-80.416 8.75,-104.166c2.5,-10.834 4.167,-0 6.25,42.083c1.667,31.25 2.083,60 0.417,63.75c-3.75,9.167 -12.917,8.333 -15.417,-1.667Z" style="fill:#447c77;fill-rule:nonzero;"/><path d="M954.167,701.667c-0,-3.334 16.25,-17.084 27.083,-22.917c4.583,-2.917 2.083,1.667 -5.833,10.417c-13.334,13.75 -21.25,18.333 -21.25,12.5Z" style="fill:#447c77;fill-rule:nonzero;"/><path d="M940.417,600c-1.25,-5 1.25,-17.5 5.833,-28.333l8.333,-18.75l6.667,9.583c6.25,8.75 6.25,11.25 0.417,26.667c-7.084,19.166 -17.5,24.583 -21.25,10.833Z" style="fill:#447c77;fill-rule:nonzero;"/><path d="M922.5,539.167c1.667,-6.25 4.167,-16.25 5.417,-22.917c2.5,-14.167 7.916,-15.833 11.666,-3.75c3.75,11.667 -5.416,37.5 -13.333,37.5c-4.583,0 -5.833,-2.5 -3.75,-10.833Z" style="fill:#447c77;fill-rule:nonzero;"/><path d="M898.75,510c-9.583,-12.917 -12.917,-32.5 -8.333,-52.917l3.333,-15.833l13.75,19.167c12.917,18.333 15.833,32.083 10.833,51.25c-3.333,12.083 -10,11.666 -19.583,-1.667Z" style="fill:#447c77;fill-rule:nonzero;"/><path d="M841.667,420c-0,-5.417 -1.25,-17.083 -2.5,-26.25l-2.5,-16.667l13.333,12.917c11.25,11.25 12.917,15 10.417,26.25c-3.334,15.833 -18.75,18.75 -18.75,3.75Z" style="fill:#447c77;fill-rule:nonzero;"/><path d="M772.083,365.833c-7.5,-3.75 -8.75,-7.083 -7.083,-15.416c5.833,-27.084 5,-26.25 20.833,-14.584c10.417,7.917 14.167,14.167 14.167,22.917c0,10 -1.667,12.083 -9.167,11.667c-5.416,-0 -13.75,-2.084 -18.75,-4.584Z" style="fill:#447c77;fill-rule:nonzero;"/><path d="M709.583,325c-7.5,-4.583 -13.75,-10.417 -13.75,-13.333c0,-2.917 -1.25,-9.584 -2.5,-14.584l-2.5,-9.166l20.834,7.083c18.75,6.25 21.666,8.75 25,22.917c3.75,14.166 3.333,15.416 -5,15.416c-4.584,0 -15,-3.75 -22.084,-8.333Z" style="fill:#447c77;fill-rule:nonzero;"/><path d="M629.583,279.167c2.917,-7.917 7.5,-12.5 12.084,-12.5c7.083,-0 7.5,1.666 3.75,12.5c-2.917,7.916 -7.5,12.5 -12.084,12.5c-7.083,-0 -7.5,-1.667 -3.75,-12.5Z" style="fill:#447c77;fill-rule:nonzero;"/><path d="M412.5,284.167c0,-6.667 35.833,-29.167 51.25,-32.084c20,-3.75 19.583,1.25 -1.25,20.417c-13.333,12.083 -20,15 -33.333,15c-9.167,0 -16.667,-1.667 -16.667,-3.333Z" style="fill:#447c77;fill-rule:nonzero;"/><path d="M558.333,279.167c-5,-2.917 -4.583,-5.417 4.167,-14.167c8.75,-10 20.833,-14.583 20.833,-8.333c0,4.166 -14.166,26.666 -16.666,26.666c-1.25,0 -5,-2.083 -8.334,-4.166Z" style="fill:#447c77;fill-rule:nonzero;"/><path d="M500.833,265.833c11.667,-15 36.667,-22.083 36.667,-10c0,8.75 -22.083,23.334 -35.417,23.334l-11.666,-0l10.416,-13.334Z" style="fill:#447c77;fill-rule:nonzero;"/></g><g><path d="M343.75,1150.42c-25,-10.834 -55.417,-25.834 -67.083,-32.917c-11.667,-7.5 -23.334,-13.333 -26.25,-13.333c-6.25,-0 -5.834,-2.084 2.083,-17.084c9.167,-18.333 4.583,-19.583 -6.667,-2.083c-9.166,15.417 -14.166,19.583 -10,9.167c1.25,-3.75 -1.666,-7.917 -7.5,-10.834c-16.25,-8.333 -57.916,-51.25 -64.166,-66.25c-7.5,-17.916 -7.5,-17.083 4.583,-17.083c6.667,0 10.417,2.5 10.417,6.25c-0,3.333 1.666,6.25 4.166,6.25c2.084,0 17.084,12.083 32.917,27.083c15.417,15 31.667,27.084 35.833,27.084c3.75,-0 7.917,3.75 9.167,8.333c1.25,4.583 4.167,8.333 6.25,8.333c2.5,0 17.083,8.334 32.5,18.75c15.417,10.417 29.167,18.75 30.417,18.75c1.666,0 12.916,3.75 25.416,8.75c16.25,5.834 22.084,10 20.417,14.584c-1.667,4.583 1.667,5.833 17.917,5c23.333,-1.25 30.416,8.333 12.083,16.666c-13.75,6.25 -8.75,7.5 -62.5,-15.416Z" style="fill:#42797e;fill-rule:nonzero;"/><path d="M85,868.333c-20,-45.416 -31.667,-93.333 -32.917,-135c-1.666,-47.916 1.25,-70.833 8.334,-70.833c3.75,0 5.833,10 7.5,32.5c3.333,46.667 9.583,90.833 17.5,119.583c4.166,13.75 8.333,30 9.166,36.667c1.25,6.25 3.75,11.25 5.834,11.25c2.083,0 3.75,6.667 3.75,14.583c-0,21.25 -7.5,17.917 -19.167,-8.75Z" style="fill:#42797e;fill-rule:nonzero;"/><path d="M937.5,852.5c0,-15.833 3.333,-25.417 15,-44.583c8.333,-13.334 15.833,-24.584 16.25,-24.584c0.833,0 0.417,7.084 -0.833,15.834c-3.334,27.5 -13.334,57.5 -22.084,65.416c-8.333,7.5 -8.333,7.5 -8.333,-12.083Z" style="fill:#42797e;fill-rule:nonzero;"/><path d="M525,712.083l0,-12.5l12.5,8.75c18.333,12.917 18.75,16.667 2.5,16.667c-13.75,0 -15,-0.833 -15,-12.917Z" style="fill:#42797e;fill-rule:nonzero;"/><path d="M950,707.083c0,-3.75 3.75,-8.75 8.75,-11.25c12.917,-7.083 13.75,-2.916 1.667,8.334c-8.334,7.916 -10.417,8.333 -10.417,2.916Z" style="fill:#42797e;fill-rule:nonzero;"/><path d="M937.5,607.5c0.417,-10 2.5,-22.083 5.833,-27.5c5,-9.583 5,-9.583 9.584,5.417c3.333,10.833 3.333,17.916 -0,27.083c-7.084,18.75 -15.417,15.833 -15.417,-5Z" style="fill:#42797e;fill-rule:nonzero;"/><path d="M917.083,557.5c0,-2.917 2.5,-12.083 5.417,-20c4.583,-12.917 5.833,-13.75 9.583,-6.25c5.417,9.583 -1.25,31.25 -9.583,31.25c-3.333,0 -5.833,-2.5 -5.417,-5Z" style="fill:#42797e;fill-rule:nonzero;"/><path d="M894.583,518.75c-3.75,-8.333 -7.083,-24.583 -7.083,-36.667l0,-21.666l8.333,10.416c4.584,5.834 8.334,12.5 8.334,15c-0,2.5 2.916,7.084 6.25,10c10,8.334 7.083,37.5 -3.75,37.5c-2.917,0 -8.334,-6.666 -12.084,-14.583Z" style="fill:#42797e;fill-rule:nonzero;"/><path d="M841.667,420c-0,-16.667 -0,-17.083 8.333,-9.583c4.583,4.166 8.333,12.083 8.333,17.5c0,6.666 -2.5,9.583 -8.333,9.583c-7.083,0 -8.333,-2.917 -8.333,-17.5Z" style="fill:#42797e;fill-rule:nonzero;"/><path d="M774.167,375.833c-11.667,-7.083 -14.167,-15 -7.917,-25c2.5,-4.583 6.25,-4.166 18.333,1.667c12.5,5.833 15.417,9.583 15.417,19.167c0,13.75 -7.917,15 -25.833,4.166Z" style="fill:#42797e;fill-rule:nonzero;"/><path d="M709.167,334.583c-8.334,-7.083 -17.084,-30.416 -11.667,-30.416c1.25,-0 10,2.916 19.167,6.666c15.833,6.25 25,16.25 25,26.25c-0,7.084 -23.334,5.417 -32.5,-2.5Z" style="fill:#42797e;fill-rule:nonzero;"/><path d="M658.333,299.167c0,-10.417 1.25,-12.084 4.167,-7.5c5.417,8.333 5.417,20.833 0,20.833c-2.083,-0 -4.167,-6.25 -4.167,-13.333Z" style="fill:#42797e;fill-rule:nonzero;"/><path d="M620.833,302.083c0,-8.333 11.25,-22.916 17.5,-22.916c7.084,-0 7.5,0.833 1.25,12.5c-3.75,7.083 -9.166,12.5 -12.5,12.5c-3.333,-0 -6.25,-0.834 -6.25,-2.084Z" style="fill:#42797e;fill-rule:nonzero;"/><path d="M400,292.083c0,-7.5 22.083,-17.5 42.917,-19.583l21.666,-2.5l-13.75,12.917c-10.833,10.416 -17.083,12.916 -32.083,12.916c-10.417,0 -18.75,-1.666 -18.75,-3.75Z" style="fill:#42797e;fill-rule:nonzero;"/><path d="M493.75,275c7.917,-7.917 16.25,-12.5 23.75,-12.5c6.25,0 11.667,1.25 11.667,3.333c-0,5.834 -27.5,21.667 -37.5,21.667l-10,0l12.083,-12.5Z" style="fill:#42797e;fill-rule:nonzero;"/><path d="M552.5,277.083c5.833,-9.166 22.5,-15 22.5,-7.916c0,8.333 -10,18.333 -19.167,18.333c-10,-0 -10,-0.417 -3.333,-10.417Z" style="fill:#42797e;fill-rule:nonzero;"/></g><g><path d="M401.667,1162.08c-1.25,-2.083 -5,-3.75 -8.75,-3.75c-14.167,0 -84.584,-29.583 -108.75,-45.833c-14.167,-9.583 -27.5,-16.25 -30,-14.583c-7.084,4.166 -4.584,-7.5 4.583,-22.5c11.667,-19.167 7.5,-20.417 -5.833,-2.084l-10.417,15.417l-30.833,-29.167c-16.667,-15.833 -33.334,-30.416 -36.667,-32.916c-3.333,-2.084 -8.75,-8.334 -12.083,-14.167c-50.834,-88.75 -72.5,-130.833 -81.667,-156.25c-11.667,-32.5 -18.75,-75 -18.333,-110.417c0.416,-38.75 0.416,-39.166 5.833,-22.5c6.25,20.417 17.083,41.667 27.5,55c4.167,5.417 9.583,20.417 12.083,33.334c2.917,12.916 7.5,31.25 10.417,40.416c8.333,25.417 42.5,88.75 63.333,117.917c18.75,26.25 74.167,84.167 80.417,84.167c2.083,-0 6.25,2.5 9.167,5.416c14.583,14.167 103.75,61.25 115.416,61.25c8.334,0 4.584,15.834 -3.75,17.917c-14.583,3.75 -10,12.5 5.417,9.583c29.583,-6.25 47.917,-7.5 54.167,-4.166c5,2.916 1.666,5.833 -15.834,12.916c-12.5,4.584 -23.75,7.084 -25.416,5Z" style="fill:#3e7785;fill-rule:nonzero;"/><path d="M327.083,991.667c-4.583,-2.084 -16.666,-11.25 -27.083,-20.417l-18.75,-16.667l15.833,-0.416c13.75,-0 15.417,1.25 15.417,10.416c0,8.75 2.083,10.417 12.5,10.417c10.417,0 12.5,1.667 12.5,10.417c0,5.833 -0.417,10.416 -0.833,10c-0.834,-0 -5,-1.667 -9.584,-3.75Z" style="fill:#3e7785;fill-rule:nonzero;"/><path d="M265.833,933.333l-11.666,-14.583l10.833,-1.25c13.75,-1.667 15,-0.417 13.333,16.25l-1.25,14.167l-11.25,-14.584Z" style="fill:#3e7785;fill-rule:nonzero;"/><path d="M587.5,885.417c0,-11.667 1.667,-14.584 8.333,-14.584c8.75,0 10,4.167 5.834,20c-4.167,15 -14.167,11.25 -14.167,-5.416Z" style="fill:#3e7785;fill-rule:nonzero;"/><path d="M904.167,882.083c-0,-9.583 3.333,-17.083 10.416,-23.75c5.834,-5.416 17.084,-19.583 25.834,-32.083c8.333,-12.083 15.416,-22.083 15.833,-22.083c0.417,-0 -1.25,12.5 -3.333,28.333c-3.75,29.167 -6.25,32.917 -37.084,55.417l-11.666,8.333l-0,-14.167Z" style="fill:#3e7785;fill-rule:nonzero;"/><path d="M585.833,830.833c-3.75,-28.75 -3.333,-35 3.334,-35c5.833,0 7.5,4.584 13.333,38.75c2.083,13.334 1.667,15.417 -5.833,15.417c-6.25,0 -8.75,-3.75 -10.834,-19.167Z" style="fill:#3e7785;fill-rule:nonzero;"/><path d="M545.833,730.833c0,-16.25 3.75,-15.833 16.667,2.5l8.75,12.5l-12.5,0c-12.083,0 -12.917,-1.25 -12.917,-15Z" style="fill:#3e7785;fill-rule:nonzero;"/><path d="M937.5,720.417c0,-7.917 19.583,-27.084 23.75,-22.917c1.667,1.25 -2.917,8.75 -10.417,16.25c-9.166,9.167 -13.333,11.25 -13.333,6.667Z" style="fill:#3e7785;fill-rule:nonzero;"/><path d="M309.583,706.25c15,-13.333 19.584,-12.917 19.584,0c-0,9.167 -1.667,10.417 -15.417,10.417l-15.833,-0.417l11.666,-10Z" style="fill:#3e7785;fill-rule:nonzero;"/><path d="M391.667,677.5c-0,-5.417 11.666,-10.833 24.166,-10.833c2.5,-0 5,3.75 5,8.333c0,6.667 -2.916,8.333 -14.583,8.333c-9.583,0 -14.583,-2.083 -14.583,-5.833Z" style="fill:#3e7785;fill-rule:nonzero;"/><path d="M429.167,675c-0,-8.75 4.166,-10 20,-5.833c15,4.166 11.25,14.166 -5.417,14.166c-11.667,0 -14.583,-1.666 -14.583,-8.333Z" style="fill:#3e7785;fill-rule:nonzero;"/><path d="M922.917,646.25c-2.917,-14.167 18.333,-70.417 23.75,-62.083c5.416,8.75 3.75,32.083 -3.75,53.75c-8.334,22.916 -15.834,26.25 -20,8.333Z" style="fill:#3e7785;fill-rule:nonzero;"/><path d="M908.333,586.667c0,-2.5 3.334,-14.584 7.084,-26.667c5.833,-18.75 7.5,-21.25 11.666,-15.417c6.25,8.334 -4.583,47.084 -13.333,47.084c-2.917,-0 -5.417,-2.084 -5.417,-5Z" style="fill:#3e7785;fill-rule:nonzero;"/><path d="M887.917,548.75c-2.917,-8.333 -3.334,-24.583 -1.25,-44.583l3.333,-31.25l12.917,25c12.5,24.166 12.5,25.416 6.666,45c-6.666,22.916 -15.416,25.416 -21.666,5.833Z" style="fill:#3e7785;fill-rule:nonzero;"/><path d="M841.667,441.667c-0,-24.167 0.416,-25 8.333,-20c12.083,7.916 10,45 -2.5,45c-4.167,-0 -5.833,-6.667 -5.833,-25Z" style="fill:#3e7785;fill-rule:nonzero;"/><path d="M767.917,400.417c-12.917,-11.25 -13.334,-12.917 -9.167,-25.834c2.5,-7.916 5,-16.666 6.25,-19.166c0.833,-3.75 5.417,-2.917 16.25,3.333c17.917,10.833 17.083,9.583 20.833,34.167c2.917,19.583 2.917,19.583 -8.75,19.583c-7.083,0 -17.5,-5 -25.416,-12.083Z" style="fill:#3e7785;fill-rule:nonzero;"/><path d="M720.417,367.917c-7.5,-5 -12.084,-13.334 -16.667,-30.834c-3.75,-13.75 -5.833,-24.583 -5.417,-24.583c0.834,-0 10.417,4.167 21.25,9.167c11.25,5.416 20.417,9.583 20.417,9.583c0.417,-0 2.083,10 3.75,22.083c2.5,19.584 2.083,21.667 -5,21.25c-4.167,0 -12.5,-3.333 -18.333,-6.666Z" style="fill:#3e7785;fill-rule:nonzero;"/><path d="M337.5,333.75c0,-7.5 71.667,-50 88.75,-52.5c9.583,-1.667 21.25,-3.75 25.833,-4.583c5,-1.25 -1.25,7.083 -16.25,20.833c-16.25,15 -32.916,25.833 -48.333,31.25c-24.167,9.167 -50,11.667 -50,5Z" style="fill:#3e7785;fill-rule:nonzero;"/><path d="M655.833,320c3.75,-23.333 9.167,-28.333 12.084,-10.833c1.25,7.5 3.333,17.083 5,21.25c2.5,5.833 0.833,7.083 -8.334,7.083c-11.25,0 -11.25,-0.417 -8.75,-17.5Z" style="fill:#3e7785;fill-rule:nonzero;"/><path d="M612.5,320.833c0,-10 12.5,-28.333 20.833,-30.416c8.334,-2.084 8.334,-2.084 -0.833,15c-9.583,16.666 -20,25 -20,15.416Z" style="fill:#3e7785;fill-rule:nonzero;"/><path d="M475.417,295.417c13.333,-16.667 30,-26.667 37.5,-22.084c5.416,3.334 -34.167,38.75 -43.334,39.167c-6.666,0 -5.833,-2.917 5.834,-17.083Z" style="fill:#3e7785;fill-rule:nonzero;"/><path d="M530,309.583c-4.167,-1.666 -0.833,-7.083 10,-18.333c14.583,-15 30.833,-21.667 30.833,-12.5c0,3.333 -31.666,34.167 -34.583,33.333c-0.417,0 -3.333,-1.25 -6.25,-2.5Z" style="fill:#3e7785;fill-rule:nonzero;"/></g><g><path d="M375,1134.58c-20.417,-7.5 -55.833,-25 -80,-39.583c-15.417,-9.167 -30,-15.417 -32.5,-13.75c-6.667,4.167 -5,-2.917 4.583,-18.333c11.25,-18.334 7.5,-21.25 -4.583,-3.334l-9.167,13.75l-33.333,-32.916c-17.917,-18.334 -40.833,-44.584 -50.833,-58.75c-21.25,-29.584 -57.084,-97.084 -64.167,-121.25c-5.417,-18.75 -17.5,-71.25 -17.5,-77.5c-0,-10 12.5,-0.834 31.25,23.75c11.667,14.583 22.917,29.166 25,32.083c2.5,2.5 7.917,17.083 11.667,32.083c4.166,15 17.916,48.334 30.416,74.167c26.667,53.75 52.084,83.75 78.75,91.667c9.167,2.5 26.667,13.333 38.75,23.333c11.667,10 32.5,22.917 45.417,27.917c22.083,9.166 29.583,9.583 90.417,8.75c36.25,-0.417 73.75,-3.334 83.333,-5.834c16.667,-4.583 42.5,-5.416 110,-2.916c39.167,1.25 83.75,-10.417 131.667,-33.75c40,-19.584 37.083,-16.25 -12.084,14.583c-20.416,12.5 -49.583,27.083 -64.583,31.25c-34.167,10.417 -111.25,20 -202.083,25c-38.75,2.083 -77.5,5.833 -85.417,8.333c-15.833,4.584 -15.833,4.584 -25,1.25Z" style="fill:#2360c5;fill-rule:nonzero;"/><path d="M593.333,1054.58c3.334,-5 54.584,-29.583 62.5,-29.583c3.75,0 6.667,-1.667 6.667,-4.167c0,-2.083 -2.083,-4.166 -4.167,-4.166c-4.166,-0 24.584,-46.667 30.417,-49.167c1.667,-0.833 2.917,-3.75 2.917,-6.667c-0,-2.916 3.75,-8.75 8.333,-12.916c6.667,-5.834 7.917,-10.834 5.833,-22.917c-1.666,-10.833 -0.833,-17.083 3.75,-21.667c9.584,-9.166 20,-54.583 19.167,-79.583c-0.833,-12.083 0.417,-29.583 2.083,-39.167c2.5,-14.583 2.084,-17.916 -3.333,-17.916c-10,-0 -10.833,-5.417 -4.583,-29.584c5.833,-22.083 5.833,-29.166 -0.417,-73.75c-2.5,-20.833 -3.75,-22.083 -12.917,-20.416c-11.666,2.083 -15.833,-3.75 -19.583,-28.75c-4.167,-25 -17.083,-44.584 -27.917,-41.25c-7.916,2.5 -8.333,1.25 -5.833,-17.5c5.417,-45.417 9.583,-90.834 8.75,-92.084c-0.833,-0.416 -8.333,4.584 -17.083,11.667c-15,12.083 -39.584,24.583 -60,31.25c-7.5,2.083 -8.75,0.833 -8.75,-10c-0,-15.417 -1.25,-15.833 -23.75,-2.917c-9.584,5.834 -28.334,12.5 -41.25,15.417c-21.25,4.583 -23.75,4.583 -27.5,-2.083c-5.417,-9.584 -24.167,-5.834 -50,10.833c-10.834,6.667 -21.667,11.25 -23.75,10c-3.75,-2.5 -26.667,6.667 -75,30.417c-33.334,15.833 -83.75,68.75 -102.084,106.25c-7.916,16.25 -16.666,35.416 -19.166,42.083l-5,12.5l-6.25,-19.583c-2.917,-11.25 -7.084,-20 -9.167,-20c-5.833,-0 -17.083,15 -17.083,22.5c-0,10 -7.5,23.333 -13.334,23.333c-6.666,0 -0.833,-43.75 7.5,-56.667c7.084,-10.416 27.917,-14.166 32.917,-5.833c4.167,6.667 10.417,4.583 10.417,-3.333c-0,-27.917 101.25,-130 128.75,-130c2.5,-0 14.166,-4.584 26.25,-10.417c11.666,-5.833 25,-10.417 29.166,-10.417c4.167,0 17.5,-5.833 29.584,-12.5c17.5,-10 27.5,-12.5 45.833,-12.5c13.333,0 23.75,1.667 23.75,4.167c0,6.667 20,0.417 44.167,-12.917c24.166,-13.333 41.25,-15.416 52.083,-5.416c10,8.75 20.833,4.583 40,-15.417c11.667,-12.5 18.75,-16.25 28.75,-16.25c13.333,0 13.75,0.417 11.25,15c-1.25,8.333 0,18.75 2.917,24.583c5,9.584 4.166,28.334 -2.5,63.75c-2.084,10.417 -1.25,13.334 4.166,13.334c7.917,-0 22.084,27.083 25.834,49.583c2.5,15.417 3.75,17.083 15,17.083c17.083,0 20.833,12.917 21.666,73.75c0,28.334 1.667,51.25 3.334,51.25c1.666,0 2.916,25 2.916,55.417c-0.416,40.417 -2.083,58.75 -6.666,69.583c-3.75,7.917 -7.084,20.417 -7.917,27.084c-5,45.416 -7.5,55 -18.75,69.583c-7.083,8.75 -17.5,16.25 -24.583,17.917c-13.334,2.916 -16.25,9.166 -6.25,12.916c3.333,1.667 6.25,3.75 6.25,5.834c-0,5.416 -18.75,25 -24.167,25c-2.917,-0 -5,2.916 -5,6.666c-0,3.334 -6.25,8.75 -13.333,11.667c-16.25,6.667 -58.75,12.083 -55.834,7.083Z" style="fill:#2360c5;fill-rule:nonzero;"/><path d="M410.417,1031.67c-11.25,-2.917 -28.75,-9.584 -38.75,-14.584c-68.75,-35.416 -111.667,-78.75 -130,-130.833c-10.834,-30.417 -10.834,-44.583 -0.417,-44.583c4.167,-0 7.917,2.5 7.5,5.416c-0.417,18.334 2.917,28.75 17.917,50.834c9.166,13.75 16.666,29.166 16.666,34.166c0,6.25 2.917,9.584 9.584,10.417c5,0.833 10.833,5.417 13.333,10.833c2.083,5 7.5,9.167 11.25,9.167c4.167,-0 9.583,3.75 12.5,8.333c2.917,4.584 7.5,8.334 10.417,8.334c2.916,-0 14.166,5.833 25,12.5c10.833,7.083 23.75,12.5 29.166,12.5c5.417,-0 9.584,1.666 9.584,3.75c-0,6.25 40.416,13.75 57.083,10.833c8.75,-1.25 22.5,-6.25 30.417,-10.417c14.583,-7.916 14.583,-7.916 3.333,-8.333c-6.667,-0 -11.667,-1.25 -11.25,-2.917c-0,-2.083 8.75,-10.416 18.75,-19.583l18.333,-16.25l0,13.333c0,10 1.667,12.917 8.334,12.917c5.416,-0 8.333,-2.917 8.333,-7.917c0,-4.583 4.167,-11.666 9.583,-15.833c18.75,-15 40.417,-71.667 40.417,-105.417c0,-25.416 -12.917,-75 -22.083,-85.416c-4.167,-4.584 -8.75,-13.334 -10,-19.584c-1.25,-6.666 -4.584,-11.666 -7.084,-11.666c-5.416,-0 -19.166,-15 -19.166,-20.834c-0,-2.5 -4.584,-4.166 -10,-4.166c-5.834,-0 -11.667,-1.667 -12.917,-4.167c-1.25,-2.083 -5.833,-4.167 -10.417,-4.167c-4.166,0 -8.333,-2.5 -9.583,-5.833c-1.25,-2.917 -15.833,-8.75 -32.083,-12.917c-26.25,-6.25 -33.334,-6.666 -53.75,-2.083c-25.417,5.833 -58.75,20 -75.417,32.083c-18.333,13.334 -49.167,46.25 -56.25,59.167c-5.833,11.667 -5.833,12.917 0,12.917c5.833,-0 5,2.5 -2.5,13.75c-5.417,7.083 -11.25,14.166 -12.917,14.583c-1.666,0.833 -3.333,5 -3.333,9.583c0,5.417 -2.917,7.917 -8.75,7.917c-8.333,-0 -8.75,-1.667 -6.25,-19.583c9.583,-72.5 86.667,-139.584 171.25,-148.75c70.833,-7.917 145.833,34.166 176.667,98.333c50.833,107.5 -0,236.25 -104.584,264.167c-26.25,6.666 -40,6.666 -67.916,-0Z" style="fill:#2360c5;fill-rule:nonzero;"/><path d="M712.5,1029.58c0,-7.5 2.5,-8.75 18.333,-8.75c10,0 22.084,-0.833 26.25,-2.083c10,-2.917 -23.333,12.5 -35.416,16.25c-7.5,2.5 -9.167,1.667 -9.167,-5.417Z" style="fill:#2360c5;fill-rule:nonzero;"/><path d="M370.833,960.417c0,-16.25 2.5,-17.917 11.25,-7.084c14.584,18.334 14.584,21.667 1.25,21.667c-11.666,0 -12.5,-1.25 -12.5,-14.583Z" style="fill:#2360c5;fill-rule:nonzero;"/><path d="M522.917,951.25c1.666,-4.167 4.166,-10.833 5,-14.583c4.166,-13.75 13.75,-8.334 13.75,7.083c-0,12.917 -1.25,14.583 -10.834,14.583c-8.75,0 -10.416,-1.25 -7.916,-7.083Z" style="fill:#2360c5;fill-rule:nonzero;"/><path d="M808.333,934.583c0,-5 8.334,-11.25 24.167,-18.75c12.917,-6.25 35.833,-20.833 50.833,-32.083c15,-11.667 28.334,-20.833 30.417,-21.25c1.667,0 2.917,5.417 2.917,12.5c-0,10 -3.334,14.583 -17.5,23.333c-15,9.584 -84.584,43.334 -89.167,43.334c-0.833,-0 -1.667,-3.334 -1.667,-7.084Z" style="fill:#2360c5;fill-rule:nonzero;"/><path d="M325,920.833c0,-8.75 4.167,-10 20,-5.833c15,4.167 11.25,14.167 -5.417,14.167c-11.666,-0 -14.583,-1.667 -14.583,-8.334Z" style="fill:#2360c5;fill-rule:nonzero;"/><path d="M287.5,916.667c0,-6.667 2.917,-8.334 14.583,-8.334c11.667,0 14.584,1.667 14.584,8.334c-0,6.666 -2.917,8.333 -14.584,8.333c-11.666,0 -14.583,-1.667 -14.583,-8.333Z" style="fill:#2360c5;fill-rule:nonzero;"/><path d="M537.5,897.917c0,-11.667 1.667,-14.584 8.333,-14.584c6.667,0 8.334,2.917 8.334,14.584c-0,11.666 -1.667,14.583 -8.334,14.583c-6.666,0 -8.333,-2.917 -8.333,-14.583Z" style="fill:#2360c5;fill-rule:nonzero;"/><path d="M845.833,875.417c0,-2.084 6.667,-7.5 14.584,-12.5c7.916,-4.584 14.583,-7.917 14.583,-7.084c0,0.834 -6.667,6.667 -14.583,12.5c-7.917,6.25 -14.584,9.584 -14.584,7.084Z" style="fill:#2360c5;fill-rule:nonzero;"/><path d="M524.583,818.333l-10.833,-22.5l12.083,0c8.75,0 11.667,2.084 11.667,8.334c0,4.583 2.083,8.333 4.167,8.333c2.5,0 4.166,6.667 4.166,14.583c0,21.25 -8.75,17.917 -21.25,-8.75Z" style="fill:#2360c5;fill-rule:nonzero;"/><path d="M140.417,817.5c-24.584,-61.667 -33.334,-134.583 -22.5,-186.667c3.75,-16.666 20,-60 38.333,-100c17.5,-38.75 35,-77.5 38.75,-85.833c4.167,-8.75 8.333,-15.833 9.583,-15.833c1.667,-0 -5.833,21.25 -16.25,46.666c-17.5,43.75 -18.75,49.584 -18.75,84.584c0,20.833 0.417,43.333 1.25,50c0.834,7.083 -1.666,27.083 -5.416,44.583c-4.167,17.917 -7.084,46.25 -7.084,62.5c0.417,16.667 0.417,36.25 0.417,42.917c0,7.083 -2.5,26.666 -5.417,43.75l-5.833,30.833l-7.083,-17.5Z" style="fill:#2360c5;fill-rule:nonzero;"/><path d="M867.5,787.083c0.833,-7.916 12.5,-21.25 38.75,-45c20.417,-18.75 37.917,-32.083 39.167,-29.166c0.833,2.5 -16.667,22.916 -38.75,45c-34.167,33.75 -40.417,38.333 -39.167,29.166Z" style="fill:#2360c5;fill-rule:nonzero;"/><path d="M457.5,758.75c-7.5,-6.25 -17.917,-13.75 -22.917,-16.667c-13.75,-7.083 -11.666,-12.916 5,-12.916c12.917,-0 14.584,1.25 14.584,10.416c-0,8.75 2.083,10.417 12.5,10.417c10.416,0 12.5,1.667 12.5,10.417c-0,13.333 -5,13.333 -21.667,-1.667Z" style="fill:#2360c5;fill-rule:nonzero;"/><path d="M325,744.167c0,-9.584 1.667,-10.834 14.583,-10.834c15.417,0 20.834,9.584 7.5,13.75c-4.166,0.834 -10.833,3.334 -14.583,5c-6.25,2.5 -7.5,0.834 -7.5,-7.916Z" style="fill:#2360c5;fill-rule:nonzero;"/><path d="M870.833,738.333c0,-13.333 3.334,-22.916 12.084,-35.416c6.25,-9.584 18.75,-31.25 27.083,-47.5c8.333,-16.667 16.667,-30.417 19.167,-30.417c2.083,0 5,6.25 6.25,13.75c4.166,21.667 -15,64.167 -41.667,93.333l-22.5,24.167l-0.417,-17.917Z" style="fill:#2360c5;fill-rule:nonzero;"/><path d="M864.167,668.75c-1.25,-10.417 -1.667,-21.25 -0.417,-24.583c1.25,-3.334 -0.417,-7.084 -3.75,-8.334c-7.917,-2.916 -7.5,-9.166 4.583,-37.916c5.417,-13.75 12.5,-35.834 15,-48.75c5.417,-27.5 13.334,-31.25 22.084,-10.417c5,12.083 4.583,15.833 -3.75,38.333c-5,14.167 -14.584,35.417 -20.417,47.5c-10.417,20.417 -11.667,32.5 -2.917,22.917c5.417,-5.417 33.75,-62.5 33.75,-67.917c0,-2.5 2.917,-4.583 6.25,-4.583c3.334,0 6.25,2.917 6.25,6.25c0,7.5 -25,73.75 -35,93.333c-10,18.75 -17.916,16.667 -21.666,-5.833Z" style="fill:#2360c5;fill-rule:nonzero;"/><path d="M822.083,553.333c-3.333,-7.5 -2.083,-14.166 5.834,-30.833c5.416,-12.083 10.833,-31.25 12.5,-42.917c1.666,-15 4.166,-21.25 8.75,-21.25c5.416,0 5.833,5.834 3.333,38.75c-1.25,20.834 -4.167,44.167 -5.833,50.834c-4.584,15.833 -18.334,19.166 -24.584,5.416Z" style="fill:#2360c5;fill-rule:nonzero;"/><path d="M759.167,472.5c-18.75,-19.167 -36.25,-35 -38.334,-35c-2.5,0 -4.166,-7.917 -4.166,-17.5c-0,-10 -2.084,-30 -4.167,-44.583c-2.5,-14.584 -3.333,-27.5 -2.083,-28.75c3.75,-3.75 31.25,10.833 34.166,18.333c2.084,5.833 -2.5,34.167 -9.583,59.583c-2.083,6.667 -1.667,9.167 1.667,7.084c2.5,-1.25 8.333,-14.584 13.333,-29.584c5,-15 10.417,-27.083 12.083,-27.083c2.084,-0 10,5.417 17.5,12.5c7.917,6.667 16.25,12.5 18.75,12.5c7.5,-0 13.75,85.417 7.5,101.667c-1.25,3.75 -4.583,6.666 -7.5,6.25c-2.5,-0 -20,-15.834 -39.166,-35.417Z" style="fill:#2360c5;fill-rule:nonzero;"/><path d="M264.583,439.167c37.084,-83.75 83.75,-127.084 137.5,-126.667l16.667,0l-23.333,20.833c-25.417,22.5 -37.084,41.667 -37.084,62.084c0,10.416 -2.5,13.75 -13.75,18.333c-7.5,3.333 -25,15.417 -39.166,27.5c-18.75,15.417 -29.584,21.25 -38.334,21.25l-12.916,0l10.416,-23.333Z" style="fill:#2360c5;fill-rule:nonzero;"/><path d="M647.083,398.75c-10,-4.583 -17.916,-10.417 -17.916,-12.5c-0,-2.083 3.75,-8.75 8.333,-15.417c4.167,-6.25 10.417,-20 13.333,-30.416c10,-37.917 28.75,-13.334 35.417,46.25l2.5,21.666l-12.083,-0.416c-6.667,-0 -20,-4.167 -29.584,-9.167Z" style="fill:#2360c5;fill-rule:nonzero;"/><path d="M425.417,359.583c14.583,-24.166 45.833,-59.583 52.083,-59.583c8.75,0 7.5,2.083 -12.083,26.25c-9.584,12.083 -20.417,27.917 -23.334,35.417c-4.166,10 -8.333,13.333 -15.833,13.333l-10.417,-0l9.584,-15.417Z" style="fill:#2360c5;fill-rule:nonzero;"/><path d="M544.583,369.583l-20,-5l32.5,-31.25c17.5,-17.083 30,-28.333 27.084,-25c-2.5,3.75 -5.834,14.584 -7.5,24.167c-2.084,14.167 -1.667,17.5 3.75,17.5c6.25,0 19.166,-13.333 32.5,-33.333c3.75,-5.834 8.333,-8.334 11.25,-6.667c3.333,2.083 -1.667,12.5 -15.834,34.167c-23.333,34.166 -24.583,34.583 -63.75,25.416Z" style="fill:#2360c5;fill-rule:nonzero;"/><path d="M468.75,361.25c1.25,-2.917 17.083,-18.75 35.417,-35.833c23.333,-20.834 35.833,-29.584 40.416,-27.917c3.75,1.667 5,4.167 2.917,5.833c-2.083,2.084 -13.75,11.667 -25.417,21.25c-12.083,10 -25.416,23.334 -29.166,30c-7.084,12.084 -28.334,18.334 -24.167,6.667Z" style="fill:#2360c5;fill-rule:nonzero;"/></g><g><path d="M425,1145.83c-10,-3.333 -10,-3.333 2.083,-3.333c7.084,0 16.25,1.25 20.834,3.333c7.5,3.334 7.5,3.75 -2.084,3.334c-5.833,-0 -15,-1.667 -20.833,-3.334Z" style="fill:#0c71dd;fill-rule:nonzero;"/><path d="M375,1134.58c-21.25,-7.916 -55.833,-25 -80,-39.583c-15.417,-9.167 -30,-15.417 -32.5,-13.75c-7.917,5 -4.167,-2.917 5,-11.25c9.167,-7.5 9.583,-7.5 15,-0.417c2.917,4.167 7.917,7.084 10.833,6.25c3.334,-0.416 6.667,2.084 8.334,5.417c1.25,3.75 4.166,5.417 6.666,4.167c2.084,-1.25 4.167,-0.417 4.167,2.083c-0,3.75 31.25,20 43.75,22.5c2.5,0.417 8.333,3.333 13.75,5.833c5,2.917 11.25,4.167 13.333,2.917c2.5,-1.25 4.167,-0.417 4.167,2.5c-0,2.5 3.333,3.75 8.333,2.5c4.584,-1.25 8.334,-0.417 8.334,2.083c-0,2.084 2.5,2.5 5.416,0.834c3.334,-2.084 3.75,-1.667 0.834,1.25c-5.417,5.833 -27.084,9.583 -35.417,6.666Z" style="fill:#0c71dd;fill-rule:nonzero;"/><path d="M217.5,1037.5c-19.167,-19.583 -41.667,-45.833 -50.417,-58.333c-17.916,-25.417 -53.333,-90.834 -59.583,-110.417c-8.333,-26.25 -22.917,-97.917 -19.583,-97.917c5.833,0 15.833,17.5 13.333,23.334c-1.25,3.333 0,5.833 2.5,5.833c2.5,0 4.167,1.25 3.75,3.333c-1.667,6.667 5.833,42.5 9.583,44.584c2.084,1.666 2.917,4.583 1.667,6.666c-1.667,2.084 -0.417,3.75 1.667,3.75c2.5,0 4.166,1.25 4.166,3.334c-0.416,1.666 -0.416,3.75 0.417,5c0.417,1.25 1.667,6.666 2.5,12.5c0.833,5.416 3.333,11.25 5,12.5c1.667,1.25 3.333,5 4.167,8.333c0.833,3.333 3.333,7.083 5.416,7.5c2.084,0.833 2.917,3.333 1.25,5.417c-1.25,2.083 0,3.75 2.5,3.75c2.5,-0 3.334,2.083 2.084,4.166c-1.25,2.5 -0.417,4.167 2.083,4.167c2.5,0 3.75,1.667 2.5,3.75c-1.25,2.083 0.417,5 4.167,6.25c3.333,1.25 5,4.167 3.75,6.667c-1.25,2.083 -0.417,4.166 2.083,4.166c2.5,0 3.75,1.667 2.083,3.75c-1.25,2.5 1.667,6.25 6.25,8.75c4.584,2.5 7.5,6.25 6.25,8.75c-1.666,2.084 0.417,5 3.75,6.25c3.75,1.25 6.667,4.584 6.667,7.5c-0,5.834 16.667,20.417 20,17.5c2.917,-3.333 17.5,10 17.5,15.834c0,2.5 -1.667,2.083 -3.75,-1.25c-2.083,-3.334 -4.583,-3.75 -6.25,-1.25c-2.917,5 17.083,18.75 22.5,15.416c2.083,-1.25 5,0 6.667,2.5c1.666,3.334 1.25,3.75 -1.667,2.084c-10,-6.25 -4.583,5.416 5.833,13.333c9.167,6.667 10.417,9.583 7.5,17.917c-3.75,10 -5,8.75 -38.333,-25.417Z" style="fill:#0c71dd;fill-rule:nonzero;"/><path d="M405,1027.92c-10.417,-2.917 -16.667,-6.667 -14.583,-8.75c1.666,-2.084 1.25,-2.5 -1.667,-0.834c-4.583,2.5 -15,-1.666 -50.833,-22.5c-53.75,-30.416 -94.167,-87.083 -102.5,-142.916c-8.75,-58.75 39.583,-131.667 108.333,-162.917c31.25,-14.583 62.5,-20.417 91.25,-17.917c32.5,2.917 70.417,14.167 66.667,20.417c-1.667,2.5 0.416,3.333 5.833,1.667c5.417,-1.667 9.167,-0.417 10.833,3.75c1.25,3.333 4.167,5.833 6.25,5.416c6.25,-2.083 32.917,25 47.5,48.334c36.667,57.5 37.084,149.166 1.25,205.833c-15.833,25 -42.083,49.583 -65.833,61.667c-25.833,13.333 -72.5,17.083 -102.5,8.75Zm76.667,-33.75c15.833,-7.5 24.166,-14.584 33.75,-30c6.666,-11.25 13.75,-25.417 15.416,-31.667c1.667,-8.333 5.417,-11.667 12.084,-12.083c6.666,-0.417 7.083,-1.25 2.083,-2.5c-10.417,-2.5 -9.167,-30.417 1.25,-30.417c4.167,0 8.333,3.333 9.167,7.5c1.25,3.75 2.083,-5 1.666,-20c0,-15 -0.833,-22.083 -1.666,-15.417c-1.25,7.917 -4.167,11.25 -10,11.25c-6.25,0 -7.917,-2.916 -7.917,-14.583c-0,-12.083 1.667,-14.583 8.75,-14.583c7.5,-0 8.333,-1.667 5.833,-13.334c-5.416,-25.416 -24.166,-61.666 -38.333,-74.166c-29.167,-25.834 -84.583,-44.584 -115.417,-39.167c-9.583,1.667 -14.583,3.75 -11.666,4.583c9.166,3.334 5.833,17.917 -4.167,17.917c-5.417,0 -18.333,2.917 -29.167,5.833c-14.583,4.584 -20,5 -21.666,1.25c-0.834,-2.916 -2.084,-2.083 -2.084,2.084c-0.416,3.75 -7.5,11.25 -15.833,16.25c-55.417,34.166 -80.833,89.166 -56.667,122.5c8.75,11.666 31.667,24.166 45.834,24.166c6.25,0 9.583,2.084 9.583,6.667c-0,9.167 30.417,37.917 54.167,51.25c21.666,12.083 79.166,35.417 89.583,36.25c2.5,0 13.75,-4.167 25.417,-9.583Z" style="fill:#0c71dd;fill-rule:nonzero;"/><path d="M506.25,792.083l-16.25,-17.083l15.417,0c17.083,0 21.25,5 18.75,22.917l-1.25,10.833l-16.667,-16.667Z" style="fill:#0c71dd;fill-rule:nonzero;"/><path d="M435.417,741.25c-4.584,-1.667 -13.334,-3.333 -19.584,-3.333c-9.166,-0.417 -11.666,-2.5 -11.666,-9.167c-0,-8.333 1.666,-8.75 18.75,-6.667c22.083,2.084 24.166,3.334 22.083,14.584c-0.833,6.25 -3.333,7.083 -9.583,4.583Z" style="fill:#0c71dd;fill-rule:nonzero;"/><path d="M725.417,886.667c2.083,-7.5 3.75,-14.167 3.75,-14.584c-0,-0.833 2.916,-1.25 6.25,-1.25c7.5,0 7.916,4.584 1.25,12.084c-4.167,4.583 -4.167,5.833 -0,7.5c8.75,3.333 5.416,9.583 -5,9.583c-9.584,0 -10,-0.833 -6.25,-13.333Z" style="fill:#0c71dd;fill-rule:nonzero;"/><path d="M897.5,891.25c1.667,-5.417 3.333,-12.5 4.167,-15c1.25,-6.25 19.166,-26.25 23.333,-26.25c4.583,0 -0.417,21.667 -7.5,32.5c-3.333,5.417 -10,11.667 -14.583,14.167c-7.5,3.75 -7.917,3.333 -5.417,-5.417Z" style="fill:#0c71dd;fill-rule:nonzero;"/><path d="M732.083,857.5c1.667,-5.417 2.917,-18.333 2.5,-29.167c-0.416,-17.083 0.417,-20 7.5,-20c7.084,0 7.917,3.334 7.917,29.167c0,28.333 -0.417,29.167 -10.833,29.167c-9.167,-0 -10,-1.25 -7.084,-9.167Z" style="fill:#0c71dd;fill-rule:nonzero;"/><path d="M737.5,768.75c0,-6.667 -2.5,-10.417 -6.25,-10.417c-3.333,0 -6.25,-1.666 -6.25,-4.166c0,-2.084 6.667,-4.167 14.583,-4.167c13.75,0 14.584,0.833 14.584,14.583c-0,11.667 -1.667,14.584 -8.334,14.584c-6.25,-0 -8.333,-2.917 -8.333,-10.417Z" style="fill:#0c71dd;fill-rule:nonzero;"/><path d="M932.083,725.833c1.25,-4.583 5.834,-11.666 10,-15.833c12.5,-11.25 10.417,2.917 -2.083,14.583c-10,9.167 -10,9.167 -7.917,1.25Z" style="fill:#0c71dd;fill-rule:nonzero;"/><path d="M925,670c-1.667,-17.083 -1.667,-19.167 -4.583,-22.083c-3.334,-3.334 5,-31.25 9.166,-31.25c7.084,-0 8.75,35.833 2.5,50.416l-6.25,14.167l-0.833,-11.25Z" style="fill:#0c71dd;fill-rule:nonzero;"/><path d="M250,615.417c0,-14.167 0.833,-15.417 12.5,-15.417c10.833,0 12.083,1.25 8.75,7.5c-2.083,3.75 -7.917,10.833 -12.5,15c-8.75,7.917 -8.75,7.917 -8.75,-7.083Z" style="fill:#0c71dd;fill-rule:nonzero;"/><path d="M911.25,601.667c-4.167,-4.167 -3.333,-23.334 0.833,-30.417c3.334,-5 4.584,-4.167 6.667,4.167c2.917,11.25 -2.917,30.833 -7.5,26.25Z" style="fill:#0c71dd;fill-rule:nonzero;"/><path d="M897.5,567.5c1.25,-2.083 -1.667,-10.417 -5.833,-18.75c-8.75,-16.25 -10.834,-30 -4.584,-33.75c6.25,-3.75 20.417,36.25 16.667,46.667c-2.083,5 -4.583,9.166 -5.833,9.166c-1.667,0 -1.667,-1.666 -0.417,-3.333Z" style="fill:#0c71dd;fill-rule:nonzero;"/><path d="M585.417,486.667c-2.5,-5.417 -6.667,-9.167 -9.584,-8.334c-2.916,0.417 -5,-2.083 -5,-5.416c0,-4.167 4.584,-6.25 14.584,-6.25c13.75,-0 14.583,0.833 14.583,14.583c0,16.667 -8.333,19.583 -14.583,5.417Z" style="fill:#0c71dd;fill-rule:nonzero;"/><path d="M847.083,474.583c-6.666,-6.666 -7.083,-24.583 -1.25,-24.583c5.834,0 9.167,9.583 7.5,20.833c-0.833,7.084 -2.083,7.917 -6.25,3.75Z" style="fill:#0c71dd;fill-rule:nonzero;"/><path d="M200.417,437.5c-0,-3.333 3.333,-12.917 7.916,-20.833c10,-18.75 10,-11.667 0,10.416c-4.166,9.167 -7.916,13.75 -7.916,10.417Z" style="fill:#0c71dd;fill-rule:nonzero;"/><path d="M786.25,409.583c-4.167,-5.416 -9.167,-8.75 -11.667,-7.5c-2.083,1.667 -3.75,0.417 -3.75,-2.083c0,-2.5 -1.666,-3.75 -3.333,-2.5c-5.417,3.333 -12.5,-11.25 -9.583,-19.167c2.083,-6.666 4.583,-5.416 19.166,7.084c9.167,7.916 19.167,14.583 22.084,14.583c2.5,0 5,4.583 5,9.583c-0,12.5 -8.75,12.5 -17.917,0Z" style="fill:#0c71dd;fill-rule:nonzero;"/><path d="M737.5,375c0,-2.5 -1.667,-3.75 -3.75,-2.5c-2.083,1.25 -5,-0.417 -6.25,-4.167c-1.667,-3.75 -3.75,-5.833 -5,-4.583c-3.333,3.333 -11.667,-5 -15.417,-15c-2.5,-6.667 -1.666,-6.667 12.5,-0.833c24.584,10.416 33.334,22.083 22.084,29.166c-2.084,1.25 -4.167,0.417 -4.167,-2.083Z" style="fill:#0c71dd;fill-rule:nonzero;"/><path d="M326.667,342.5c14.166,-14.583 50.833,-30 83.75,-35.833l16.666,-2.917l-13.75,12.917c-7.5,7.083 -15.416,11.666 -17.5,10.416c-2.083,-1.25 -10.833,0.834 -19.583,4.584c-8.75,4.166 -17.083,6.666 -18.75,6.666c-2.083,-0.416 -3.333,0.834 -3.333,2.917c-0,2.083 -7.917,5 -17.084,6.667c-12.083,2.083 -15.416,4.166 -11.666,6.666c4.166,2.5 2.916,3.334 -3.75,2.5c-8.75,-0.416 -8.75,-1.25 5,-14.583Z" style="fill:#0c71dd;fill-rule:nonzero;"/><path d="M659.583,334.583c-2.916,-0.833 -5.416,-4.583 -5.416,-7.916c-0,-10.834 20.416,-2.917 20.833,7.916c0,3.334 -7.5,3.334 -15.417,0Z" style="fill:#0c71dd;fill-rule:nonzero;"/><path d="M615,322.5c-1.25,-3.333 -0.833,-9.167 0.833,-12.5c2.917,-5.417 4.167,-5.417 7.917,-0.833c3.333,4.166 3.333,7.5 -0.833,12.916c-4.584,6.667 -5.417,6.667 -7.917,0.417Z" style="fill:#0c71dd;fill-rule:nonzero;"/><path d="M470.833,308.75c0,-5 3.75,-8.333 10.834,-10l10.416,-1.667l-9.166,9.584c-11.25,12.083 -12.084,12.083 -12.084,2.083Z" style="fill:#0c71dd;fill-rule:nonzero;"/><path d="M531.25,304.167c-3.333,-5 8.333,-10 14.583,-6.25c2.5,1.25 3.334,4.583 2.084,6.666c-3.334,5 -13.334,5 -16.667,-0.416Z" style="fill:#0c71dd;fill-rule:nonzero;"/></g><g><path d="M543.75,1087.5c19.167,-5 52.917,-5 50,0c-1.25,2.5 -16.25,3.75 -32.5,3.75c-22.5,-0.417 -27.083,-1.25 -17.5,-3.75Z" style="fill:#195aea;fill-rule:nonzero;"/><path d="M600,1052.08c2.917,-3.333 7.917,-6.25 11.25,-6.25c8.75,0 50.833,-22.5 51.25,-27.083c0,-2.083 3.75,-8.333 7.917,-13.333c7.083,-8.334 9.583,-8.75 21.25,-5c12.5,4.583 41.25,3.333 60.416,-2.084c4.584,-1.666 1.667,0.417 -6.25,4.167c-7.916,3.75 -26.25,8.75 -40.416,11.25c-35.834,5.833 -34.167,13.333 1.666,9.583c27.5,-2.916 27.917,-2.916 20.417,5.417c-7.917,8.75 -28.333,14.167 -78.75,21.25c-16.25,2.5 -35.417,5.417 -42.083,6.25c-10,1.667 -11.25,1.25 -6.667,-4.167Z" style="fill:#195aea;fill-rule:nonzero;"/><path d="M661.428,1020.91c-0.65,-0.325 -1.376,-0.628 -1.962,-1.069c-0.326,-0.246 -0.768,-1.067 -0.988,-0.724c-0.404,0.63 0.016,1.552 -0.235,2.172c-1.028,2.536 -5.159,5.036 -7.247,6.15" style="fill:none;stroke:#1d5cdd;stroke-width:4.17px;"/><path d="M409.583,1002.92c-10.416,-3.334 -13.75,-7.084 -13.75,-14.167c0,-7.5 -2.5,-9.583 -10.416,-9.583c-7.5,-0 -10.417,-2.084 -10.417,-8.334c-0,-4.583 -2.917,-8.333 -6.25,-8.333c-3.75,-0 -6.25,-3.75 -6.25,-10.417c-0,-6.666 -2.5,-10.416 -6.25,-10.416c-3.333,-0 -6.25,-1.667 -6.25,-4.167c-0,-2.083 -2.917,-4.167 -6.25,-4.167c-3.333,0 -6.25,-3.75 -6.25,-8.333c-0,-5.417 2.917,-8.333 7.5,-8.333c10,0.416 18.333,7.5 30,27.083c15.417,25 25,35 45.833,47.083c18.334,10.834 47.917,15.834 52.5,8.75c1.25,-2.083 4.167,-2.916 6.25,-1.666c2.084,1.666 3.75,0.833 3.75,-1.25c0,-2.084 3.75,-5 8.334,-6.25c14.166,-3.75 9.166,5 -6.667,11.666c-17.083,7.084 -55,7.5 -75.417,0.834Z" style="fill:#195aea;fill-rule:nonzero;"/><path d="M689.167,977.083c16.25,-25.416 28.333,-39.583 31.666,-37.5c2.084,1.25 12.5,-8.75 22.917,-22.5c18.333,-22.916 20.833,-24.583 40.833,-27.083c12.084,-1.667 32.917,-7.5 46.25,-12.917c13.75,-5.416 25.834,-9.583 26.667,-8.75c2.917,2.917 -22.917,18.75 -44.583,27.084c-48.75,18.333 -55.834,31.25 -15,28.75c22.916,-1.25 27.083,-0.834 26.25,5c-1.667,8.333 -56.667,34.583 -95,45c-17.084,4.583 -35,10 -39.584,11.666c-8.333,3.334 -8.333,3.334 -0.416,-8.75Z" style="fill:#195aea;fill-rule:nonzero;"/><path d="M519.583,959.583c1.667,-4.166 5.417,-11.666 8.75,-16.666c3.334,-5.417 5,-9.584 3.75,-9.584c-1.666,0 0,-7.083 2.917,-15.416c7.917,-23.334 4.583,-81.25 -5.833,-95c-1.667,-2.084 -4.167,-7.5 -5.417,-11.25c-2.083,-5.834 -0.417,-7.5 7.5,-7.5c8.333,-0 10.417,2.083 10.417,10c-0,5.416 2.083,10.833 4.583,11.666c11.667,3.75 7.5,115.417 -4.583,119.167c-2.5,0.833 -4.167,6.25 -4.167,11.667c0,7.916 -2.083,10 -10.417,10c-7.916,-0 -9.583,-1.667 -7.5,-7.084Z" style="fill:#195aea;fill-rule:nonzero;"/><path d="M272.917,906.25c-11.25,-10 -19.167,-18.333 -17.084,-18.75c2.084,0 7.084,3.75 10.834,8.333c9.166,10.417 16.666,12.5 55.416,15.834c3.75,0.416 7.084,3.75 7.084,7.083c-0,4.583 -4.584,6.25 -17.5,6.25c-15,0 -21.25,-2.917 -38.75,-18.75Z" style="fill:#195aea;fill-rule:nonzero;"/><path d="M791.667,850c-0,-4.583 3.75,-17.917 7.916,-30c13.75,-37.083 18.334,-71.667 15.834,-114.583c-2.084,-39.167 -2.084,-40.417 8.333,-48.334c5.833,-5 17.917,-20 26.667,-33.333c13.333,-20.417 16.25,-23.333 16.25,-15c-0,5.833 2.083,12.5 4.583,15c3.333,3.333 3.333,7.083 -0.417,13.333c-3.75,7.084 -3.333,10.417 2.084,15.417c5.833,6.25 8.333,16.25 7.083,32.083c-0.417,3.75 -5.417,14.584 -11.25,24.167c-14.167,22.083 -10.833,31.25 3.333,10l11.25,-16.667l0,20.834c0,18.333 -1.666,22.083 -17.5,38.333c-19.166,19.583 -19.166,27.917 0,14.167c6.667,-4.584 13.334,-7.5 14.584,-6.25c10.416,10.416 -50.834,75 -81.25,86.25c-5.417,2.083 -7.5,0.416 -7.5,-5.417Z" style="fill:#195aea;fill-rule:nonzero;"/><path d="M147.5,785.417c-9.167,-32.917 1.25,-155.417 15.833,-182.917c3.75,-7.083 5.417,-5.833 11.667,11.25c7.917,20.833 31.25,52.917 38.333,52.917c2.5,-0 3.334,-2.917 1.667,-6.25c-1.25,-3.334 -1.25,-6.25 -0,-6.25c6.25,-0 10,23.333 5.417,36.25c-5,15 -12.084,15 -12.084,-0.417c0,-5.417 -2.916,-12.5 -6.666,-15.417c-5.834,-4.583 -7.917,-3.75 -14.584,4.584c-4.166,5.833 -7.916,13.333 -7.916,16.666c-0,3.75 -5.417,24.167 -12.084,45.834c-6.666,21.666 -12.916,43.333 -14.166,47.916c-1.25,7.084 -2.084,6.25 -5.417,-4.166Z" style="fill:#195aea;fill-rule:nonzero;"/><path d="M498.333,784.167c-1.25,-2.084 -10.416,-7.917 -20.833,-13.334c-22.917,-11.666 -24.167,-16.666 -4.583,-16.666c7.916,-0 14.583,2.083 14.583,4.166c0,2.5 3.75,4.167 8.333,4.167c6.667,-0 8.334,2.917 8.334,12.5c-0,12.5 -1.667,15.417 -5.834,9.167Z" style="fill:#195aea;fill-rule:nonzero;"/><path d="M283.333,773.75c0,-8.333 12.5,-23.75 19.167,-23.75c1.25,0 5,-2.917 8.333,-6.25c3.75,-3.333 10.834,-6.25 16.667,-6.25c5.417,0 10,-1.667 10,-3.75c0,-5.833 35,-12.917 64.167,-12.917c24.166,0 27.5,0.834 27.5,7.917c-0,6.667 -3.334,7.5 -25.834,7.083c-14.583,-0.416 -32.916,2.084 -40.833,5.417c-7.917,2.917 -15.417,5.417 -16.667,5c-3.333,-0.833 -31.25,13.75 -32.5,17.5c-0.833,1.667 -4.166,2.917 -7.5,2.917c-3.333,-0 -5.833,1.25 -5.833,3.333c0,1.667 -3.75,5.417 -8.333,8.333c-7.5,4.584 -8.334,4.167 -8.334,-4.583Z" style="fill:#195aea;fill-rule:nonzero;"/><path d="M560,739.167c-3.75,-5.834 -17.5,-17.917 -30,-27.084c-23.333,-16.25 -26.667,-22.083 -5.833,-9.166c14.583,9.166 37.916,30.416 42.916,40c6.25,10.833 0.834,8.333 -7.083,-3.75Z" style="fill:#195aea;fill-rule:nonzero;"/><path d="M401.25,672.083c3.75,-0.833 10.417,-0.833 14.583,0c3.75,1.25 0.417,2.084 -7.5,2.084c-7.916,-0 -11.25,-0.834 -7.083,-2.084Z" style="fill:#195aea;fill-rule:nonzero;"/><path d="M213.75,608.333c5.417,-48.75 39.167,-158.333 49.167,-158.333c2.083,0 16.25,-10.417 31.666,-22.917c15,-12.5 35.417,-25.416 45,-28.333l17.5,-6.25l2.5,21.667c1.25,11.666 3.75,27.083 5,34.166c2.5,11.667 1.25,13.75 -25.833,33.334c-26.667,19.583 -54.167,48.75 -76.25,80.416c-12.917,18.75 -33.333,58.75 -33.333,65.834c-0,2.916 -4.167,5.416 -8.75,5.416c-8.75,0 -8.75,-1.25 -6.667,-25Z" style="fill:#195aea;fill-rule:nonzero;"/><path d="M790.833,607.917l-11.666,-25.834l24.166,-25.833c20.834,-22.917 24.167,-25.417 28.75,-19.167c2.917,3.75 7.084,8.75 9.584,11.667c2.916,3.75 2.5,10 -1.667,22.083c-5.833,17.5 -31.667,62.5 -35.833,62.5c-1.25,0 -7.084,-11.666 -13.334,-25.416Z" style="fill:#195aea;fill-rule:nonzero;"/><path d="M752.083,544.167c-10.833,-14.584 -27.916,-33.75 -37.5,-42.084l-18.333,-15l7.917,-13.333c4.166,-7.5 8.75,-23.333 10.416,-35c2.917,-23.75 6.667,-26.667 15.834,-13.75c3.333,4.583 6.666,7.083 7.916,5.833c1.25,-1.25 17.5,12.917 35.834,31.25l33.333,32.917l-3.75,18.333c-5,21.25 -20.833,54.584 -27.083,56.25c-2.5,0.834 -13.334,-10.416 -24.584,-25.416Z" style="fill:#195aea;fill-rule:nonzero;"/><path d="M670.833,468.75c0,-10.417 -1.25,-18.75 -2.916,-18.75c-1.667,0 -8.334,5 -14.584,11.25l-11.666,11.25l-0,-10.833c-0,-8.75 -3.334,-11.25 -22.917,-17.917c-12.5,-4.583 -22.917,-9.167 -22.917,-10.417c0,-4.166 37.917,-56.25 40.834,-56.25c1.666,0 13.75,4.584 26.666,10.417c26.667,11.667 27.084,13.333 17.917,44.167c-7.917,26.666 -7.917,38.75 0.833,48.333c6.25,7.083 6.25,7.5 -2.083,7.5c-7.917,0 -9.167,-2.5 -9.167,-18.75Z" style="fill:#195aea;fill-rule:nonzero;"/><path d="M399.583,420.417c17.5,-50 21.667,-57.917 31.667,-57.917c9.167,0 9.167,0.417 3.75,15.417c-10.417,30 -5.417,41.25 7.917,17.083c11.666,-21.25 31.25,-40.833 40.416,-40.833c7.5,-0 7.917,1.25 3.75,8.75c-4.583,8.75 -3.333,36.25 2.084,50c2.5,5.416 -4.167,8.333 -33.75,16.25c-20,5 -42.917,10.416 -50,11.666l-13.75,1.667l7.916,-22.083Z" style="fill:#195aea;fill-rule:nonzero;"/><path d="M527.917,422.083l-24.167,-1.666l2.917,-13.334c3.333,-17.083 15.833,-41.666 24.166,-48.333c5,-4.167 12.084,-4.583 35,-0.417l28.75,5.417l-7.916,15c-4.167,8.333 -8.75,22.083 -10.417,30.833c-2.083,13.334 -3.75,15.417 -13.333,14.584c-5.834,-0.417 -21.667,-1.25 -35,-2.084Z" style="fill:#195aea;fill-rule:nonzero;"/></g><g><path d="M416.667,1004.17c-3.334,-2.084 -10.417,-4.167 -15.417,-4.167c-21.667,0 -65.833,-29.583 -107.083,-72.083c-22.917,-23.334 -36.667,-38.334 -30.834,-32.917c12.084,10.833 32.5,17.5 54.584,17.5c24.583,0 42.916,9.583 55.416,30c43.75,70.833 101.667,81.25 140.834,24.583c43.333,-62.5 32.5,-154.583 -22.5,-187.916c-16.667,-10 -34.167,-21.667 -53.334,-35.834c-5.416,-3.75 -18.75,-7.916 -30.416,-9.166c-39.584,-3.75 -87.084,15.833 -126.25,52.916l-25,23.334l10,-16.667c21.666,-36.667 36.25,-53.333 58.333,-66.667c43.75,-26.25 83.333,-32.5 130.417,-20.416c65.416,16.666 94.166,46.666 109.583,112.5c10.417,45.416 9.167,82.916 -2.917,110c-12.5,26.666 -46.25,59.583 -73.75,71.25c-19.583,8.333 -61.25,10.416 -71.666,3.75Z" style="fill:#0c80e2;fill-rule:nonzero;"/></g><g><path d="M691.667,978.75c-0,-2.5 5.833,-12.917 12.916,-23.333c10.834,-15.417 12.5,-20.417 8.75,-27.917c-3.333,-7.5 -2.5,-12.5 4.167,-22.5c4.583,-7.083 9.167,-19.167 10,-26.667c2.5,-15.833 10,-32.5 15,-32.5c5.833,0 3.75,27.917 -2.917,33.334c-11.25,9.166 -6.666,12.5 16.667,12.5c13.75,-0 22.917,1.666 22.917,4.583c-0,7.917 -35.834,51.25 -57.5,69.583c-21.25,17.5 -30,21.25 -30,12.917Z" style="fill:#2d6cf2;fill-rule:nonzero;"/><path d="M754.167,861.25c-0,-5.833 3.75,-19.583 8.75,-30.833c17.5,-40 21.25,-57.917 22.5,-102.5l1.25,-44.584l17.916,-12.5l18.334,-12.083l3.333,11.25c5,16.667 4.583,91.667 -0.833,115.417c-2.5,11.666 -7.917,30.833 -11.667,43.333c-6.667,19.583 -9.583,23.333 -24.167,30c-31.666,13.75 -35.416,13.75 -35.416,2.5Z" style="fill:#2d6cf2;fill-rule:nonzero;"/><path d="M597.083,843.75c0,-9.167 0.834,-12.5 1.667,-7.083c0.833,5 0.833,12.5 0,16.666c-1.25,3.75 -2.083,-0.416 -1.667,-9.583Z" style="fill:#2d6cf2;fill-rule:nonzero;"/><path d="M732.5,813.75c-2.5,-11.667 0.833,-22.083 7.5,-22.083c3.75,-0 5.833,4.583 5.833,14.583c0,15.417 -10,20.833 -13.333,7.5Z" style="fill:#2d6cf2;fill-rule:nonzero;"/><path d="M738.333,772.083c0.834,-9.583 -0.416,-12.083 -8.333,-12.916c-6.667,-1.25 -9.167,-3.334 -7.5,-7.917c1.25,-3.333 2.5,-7.917 2.5,-10c-0,-2.083 2.917,-3.75 6.25,-3.75c3.333,0 6.25,3.75 6.25,8.333c-0,5.417 2.917,8.334 8.333,8.334c6.667,-0 8.334,2.916 8.334,14.583c-0,12.083 -1.667,14.583 -8.75,14.583c-6.667,0 -8.334,-2.083 -7.084,-11.25Z" style="fill:#2d6cf2;fill-rule:nonzero;"/><path d="M527.083,710l-12.5,-10.833l13.75,6.666c7.084,3.75 13.334,8.75 13.334,10.834c-0,5.416 -0.417,5.416 -14.584,-6.667Z" style="fill:#2d6cf2;fill-rule:nonzero;"/><path d="M732.5,711.667c0,-2.917 -0.833,-10 -1.667,-15.834c-3.75,-37.5 -6.25,-55.416 -8.333,-58.75c-1.25,-2.083 2.5,-3.75 7.917,-3.75c9.166,0 10.416,2.084 12.5,28.334c4.583,44.166 3.75,55 -3.334,55c-3.333,-0 -6.666,-2.5 -7.083,-5Z" style="fill:#2d6cf2;fill-rule:nonzero;"/><path d="M211.25,688.333c-1.25,-6.25 -3.75,-14.583 -5,-18.75c-2.083,-5 -1.25,-6.666 2.5,-5c4.583,1.667 5.833,-3.75 5.833,-23.75c0,-19.166 2.5,-31.666 10,-47.083c13.75,-28.333 37.084,-62.083 60.417,-87.917c19.583,-22.083 75.417,-63.333 80,-59.166c1.25,1.25 3.333,12.5 4.583,25l2.084,22.5l-27.5,22.083c-27.917,22.083 -35.417,30.417 -17.917,20c5,-3.333 21.25,-10.417 36.25,-15.417c15,-5.416 27.917,-11.25 29.167,-12.916c1.25,-1.25 12.083,-4.167 24.166,-5.834c13.334,-1.666 21.667,-5 21.667,-8.333c0,-8.75 11.667,-10.833 44.583,-7.917c25,2.5 33.75,1.25 48.334,-5c9.583,-4.166 19.166,-10 20.833,-12.916c1.667,-2.917 8.333,-5.417 14.583,-5.834l11.25,0l-10.416,-4.583c-19.584,-8.333 -86.667,-5.833 -120.834,4.583c-17.083,5.417 -32.916,11.25 -35,13.334c-4.583,4.166 -27.5,5.416 -27.5,1.25c0,-1.25 2.917,-12.5 6.667,-25l6.25,-22.5l27.917,-7.917c15.416,-4.583 35.833,-9.583 45.833,-11.25c16.25,-2.5 18.333,-1.667 20.417,6.25c2.916,11.25 13.75,11.667 13.75,0.417c-0,-7.5 2.916,-8.334 26.25,-8.334c35,0 44.583,3.334 44.583,14.167c0,22.5 9.167,35.417 14.583,20.417c1.25,-4.167 5,-10.834 7.917,-15c5.417,-7.084 6.667,-7.084 30,1.666c13.75,5 26.667,10.834 29.583,12.917c7.5,5.833 -10,30.833 -27.916,39.167c-7.917,3.75 -19.584,9.583 -25.834,12.916c-14.583,7.5 -15.833,7.084 -15.833,-4.583c0,-14.583 -7.917,-15.417 -29.167,-3.333c-26.666,15.416 -60.833,22.916 -68.333,15c-9.167,-8.75 -22.5,-7.084 -47.083,6.666c-12.084,6.667 -25.417,12.5 -29.584,12.5c-4.166,0 -17.5,4.584 -29.166,10.417c-12.084,5.833 -23.75,10.417 -26.25,10.417c-23.75,-0 -104.584,77.083 -124.584,118.75c-7.083,14.583 -12.5,28.333 -12.5,30.416c0,10 -7.5,8.334 -9.583,-2.5Z" style="fill:#2d6cf2;fill-rule:nonzero;"/><path d="M415.833,672.083c5,-0.833 13.334,-0.833 18.75,0c5,0.834 0.834,1.667 -9.583,1.667c-10.417,0 -14.583,-0.833 -9.167,-1.667Z" style="fill:#2d6cf2;fill-rule:nonzero;"/><path d="M775,651.25c-10.833,-33.75 -39.167,-81.25 -64.583,-108.75l-26.25,-27.917l-2.917,16.667c-5,32.5 -6.25,35.417 -13.75,35.417c-6.667,-0 -7.083,-2.5 -4.167,-23.75c7.084,-58.334 8.75,-67.917 10,-67.917c1.25,0 5.417,2.5 10,5c6.667,4.167 10,4.167 17.084,0c7.5,-4.583 10,-4.583 17.5,2.083c17.083,14.167 39.166,38.334 54.166,58.75c13.334,18.75 14.167,21.25 7.917,27.5c-7.917,7.917 -3.75,14.167 5,7.084c5,-4.167 7.5,-2.5 14.167,10.833c15,29.167 15,32.917 -0,57.5c-7.5,12.5 -15,22.917 -16.667,22.917c-1.25,-0 -5,-7.084 -7.5,-15.417Z" style="fill:#2d6cf2;fill-rule:nonzero;"/><path d="M697.917,630.417c-2.917,-12.917 -11.667,-41.25 -16.667,-52.084c-2.5,-6.25 -0.833,-7.5 7.5,-7.5c9.167,0 11.667,2.917 15,15.834c2.5,8.333 4.583,20.416 4.583,27.083c0,6.25 2.084,11.25 4.167,11.25c7.083,0 4.583,7.917 -4.167,12.5c-7.083,3.75 -8.333,2.917 -10.416,-7.083Z" style="fill:#2d6cf2;fill-rule:nonzero;"/></g><g><path d="M716.667,912.5c-0,-4.583 1.666,-8.333 3.75,-8.333c6.666,-0 14.166,-42.084 15.416,-85.417c0.417,-22.917 1.667,-45.417 2.5,-50c0.834,-5.833 -1.25,-8.75 -7.5,-9.583c-8.75,-1.25 -9.166,-1.667 -2.916,-25c4.166,-15.834 5.416,-31.25 3.333,-46.667c-1.25,-12.5 -3.333,-27.917 -3.75,-34.167c-1.25,-14.583 -4.583,-17.916 -18.333,-17.916c-9.584,-0 -10.834,-2.084 -15.417,-22.917c-5,-25.417 -16.667,-45.833 -25.833,-45.833c-5,-0 -5.417,-4.167 -2.917,-23.334c1.25,-12.5 5,-30.833 7.917,-40.416l5.416,-17.5l35.417,35.833c28.75,29.583 39.167,43.75 55,75.833c20,40 22.917,53.75 17.083,74.584c-2.5,9.166 -2.083,10.833 4.584,10.416c7.083,-0.833 7.5,3.334 7.5,49.167c-0.417,51.25 -2.917,62.917 -21.667,109.167c-8.75,20.833 -13.75,27.5 -25.417,33.333c-16.666,8.333 -21.666,16.667 -10.833,18.75c6.25,1.25 5.417,3.333 -4.167,15c-13.333,15.417 -19.166,17.083 -19.166,5Zm37.5,-212.083c-2.5,-16.25 -5.417,-29.584 -6.25,-29.584c-1.25,0 0.833,70.417 2.083,75c0.417,1.25 2.5,-2.083 5,-6.666c2.917,-6.667 2.917,-17.917 -0.833,-38.75Zm-29.167,-86.667c0,-2.083 -3.75,-7.917 -8.333,-13.75c-6.25,-7.917 -8.334,-8.75 -8.334,-3.333c0,11.25 4.584,20 10.834,20c3.333,-0 5.833,-1.25 5.833,-2.917Z" style="fill:#3d7bf7;fill-rule:nonzero;"/><path d="M250,615c0,-10.417 17.5,-40 40.833,-70c17.5,-22.917 67.917,-65.833 77.084,-65.833c2.083,-0 2.916,5.416 1.666,12.5c-4.166,19.583 4.584,14.583 9.584,-5.417c5,-19.583 9.583,-22.917 56.25,-37.083c23.333,-7.5 39.583,-9.167 82.083,-9.584c37.083,0 54.583,1.667 58.333,5.417c2.5,2.5 8.75,5 12.917,5c12.917,0 48.75,14.167 48.75,19.167c-0,4.583 -38.333,26.666 -46.25,26.666c-2.083,0 -3.75,-3.75 -3.75,-8.333c-0,-10.417 -11.25,-15.417 -20.417,-9.167c-15,10.834 -32.916,19.167 -51.25,24.167c-16.25,4.167 -20.416,4.167 -24.583,-0.833c-7.917,-9.584 -28.333,-6.667 -50.833,7.083c-11.25,6.667 -23.334,11.667 -26.667,10c-3.75,-1.25 -8.75,-0.417 -11.667,2.083c-2.5,2.084 -17.083,8.75 -31.666,14.167c-27.917,10.417 -56.667,25.417 -64.584,33.333c-33.75,35 -55.833,53.334 -55.833,46.667Z" style="fill:#3d7bf7;fill-rule:nonzero;"/></g><g><path d="M358.333,931.25c-5.416,-5.833 -12.916,-10.417 -16.25,-10.833c-4.166,-0 -4.583,-1.25 -1.666,-2.084c7.083,-2.916 20.833,5.417 26.25,15c5.833,11.25 3.333,10.417 -8.334,-2.083Z" style="fill:#508cfc;fill-rule:nonzero;"/><path d="M739.167,814.583c-1.25,-8.333 -0.834,-22.5 1.666,-32.083c4.584,-18.333 1.25,-28.333 -9.583,-28.333c-4.583,-0 -4.583,-3.75 -0.417,-19.584c4.167,-15.416 4.167,-29.583 0.834,-61.666l-4.584,-41.667l-13.333,0.833c-12.5,1.25 -13.333,0.417 -17.5,-20c-5.417,-25.416 -14.583,-43.75 -23.333,-47.083c-5,-1.667 -6.25,-6.667 -5,-19.167c0.833,-9.166 2.916,-17.916 4.583,-19.583c4.167,-4.167 44.583,40.417 60.417,67.5c30,49.583 42.5,110.417 34.166,164.167c-5.416,37.083 -15.833,71.25 -21.25,71.25c-2.083,-0 -5,-6.667 -6.666,-14.584Z" style="fill:#508cfc;fill-rule:nonzero;"/><path d="M352.083,526.667c20.834,-18.334 75.834,-45.417 105.417,-51.25c27.083,-5.417 100.833,-6.25 100.833,-0.834c0,6.667 -22.083,19.584 -41.666,24.584c-15.417,3.75 -19.584,3.333 -25.834,-2.084c-9.583,-8.75 -30.416,-5 -53.333,9.167c-9.167,5.833 -20.417,10.417 -24.167,10c-3.75,-0.417 -14.583,2.5 -23.75,6.667c-9.166,3.75 -25,9.583 -35.416,12.916l-18.75,5.417l16.666,-14.583Z" style="fill:#508cfc;fill-rule:nonzero;"/></g></svg>