<?xml version="1.0" encoding="utf-8"?>
<!DOCTYPE svg PUBLIC "-//W3C//DTD SVG 1.0//EN" "http://www.w3.org/TR/2001/REC-SVG-20010904/DTD/svg10.dtd">
<svg version="1.0" xmlns="http://www.w3.org/2000/svg" width="300px" height="300px" viewBox="0 0 300 300" preserveAspectRatio="xMidYMid meet">
 <g fill="#a64800">
  <path d="M85.3 265.5 c-7.1 -2 -12 -4.6 -17 -9.3 -2.5 -2.5 -5.5 -4.2 -7.8 -4.6 -6 -1.2 -12.4 -8.6 -18.9 -21.8 -3 -6.2 -6.2 -13.7 -7 -16.7 -1.8 -6.1 -2.2 -14.6 -0.6 -12.1 1.7 2.7 2.2 0.2 0.5 -3 -2.2 -4.3 -1.6 -7.9 6.1 -34.2 0.4 -1.4 1.6 -1.8 5.2 -1.8 l4.7 0 3.3 -6.4 c4.3 -8.3 16.9 -21.2 24.3 -24.7 11 -5.4 17 -7.9 18.9 -7.9 1.1 0 3.8 -1.2 5.9 -2.6 4.5 -2.9 14.2 -4.4 16.5 -2.5 1.7 1.5 5.5 0.6 11 -2.5 5.3 -3 11.6 -3.3 11.6 -0.5 0 1.9 0.2 1.9 3.8 0.5 2 -0.9 4.6 -2.4 5.8 -3.5 1.3 -1.3 3.5 -1.9 6.4 -1.9 l4.3 0 -0.6 12 c-0.5 9.9 -0.4 12 0.8 12 2.7 0 4.6 4 6.9 14.3 0.5 2.2 1.2 2.7 3.5 2.7 2.6 0 2.9 0.4 3.5 4.2 1.5 10.8 1.8 18.6 0.8 22.1 -0.9 3.1 -0.8 3.7 0.4 3.7 1.3 0 1.4 1.9 0.8 12.8 -0.6 12.7 -2.4 21.9 -5 25.7 -0.8 1.1 -1.4 3.5 -1.4 5.3 0 3.9 -5.2 12.2 -7.7 12.2 -0.9 0 -1.3 0.6 -1 1.4 0.3 0.7 -0.4 2.9 -1.5 4.7 -1.2 1.9 -2.3 2.9 -2.5 2.2 -0.5 -1.5 -5.9 -1.7 -6.8 -0.3 -0.3 0.6 0.3 1 1.4 1 3.1 0 2.6 3.3 -0.6 5.2 -1.6 0.8 -4.9 1.9 -7.6 2.2 -7.3 1.1 -18.4 6.6 -13.3 6.6 0.9 0 1.6 0.7 1.6 1.5 0 2.6 -9.6 4.3 -27 4.9 -12.7 0.4 -17.7 0.2 -21.7 -0.9z m11 -21.5 c1.2 0 3.9 0.3 6 0.6 3.1 0.6 3.7 1.1 3.7 3 0 1.3 0.5 2.4 1 2.4 0.6 0 1 -1.1 1 -2.4 0 -1.9 0.7 -2.5 3.3 -3 4.3 -0.8 11.7 -3.9 11.7 -4.8 0 -0.5 0.8 -0.8 1.8 -0.8 0.9 0 2.2 -1 2.7 -2.2 0.7 -1.7 2 -2.4 4.5 -2.6 3.5 -0.3 3.6 -0.4 3.2 -3.9 -0.3 -1.9 -0.1 -3.8 0.4 -4.2 1 -0.7 3.3 -6.3 4.1 -9.8 0.4 -1.8 1.2 -2.3 3.9 -2.3 3 0 3.4 0.3 3.4 2.8 0.1 2.6 0.2 2.6 2.1 -1.1 3 -5.6 5.9 -18.1 5.9 -25.1 0 -14.9 -10.5 -33.2 -22.9 -39.9 -6.8 -3.7 -18 -6 -25.1 -5.2 -10.3 1.3 -25.9 9.5 -33.9 17.9 l-3.5 3.6 2.7 0 c2 0 2.7 -0.5 2.7 -2 0 -1.3 0.7 -2 2 -2 1.1 0 2 -0.4 2 -1 0 -0.5 1.6 -1 3.5 -1 3.3 0 3.5 0.2 3.5 3.5 0 2.8 -0.4 3.5 -2 3.5 -1.1 0 -2 0.5 -2 1 0 0.6 -1.3 1 -3 1 -2.3 0 -3 0.4 -3 2 0 1.6 -0.7 2 -3.4 2 -3.2 0 -3.5 -0.3 -3.8 -3.2 l-0.3 -3.3 -2.3 3.6 c-2.6 4.3 -2.7 4.9 -0.7 4.9 1 0 1.5 1.1 1.5 3.5 0 1.9 -0.4 3.5 -1 3.5 -0.5 0 -1 0.7 -1 1.5 0 0.8 -0.4 1.5 -1 1.5 -0.5 0 -1 0.7 -1 1.5 0 0.8 -0.4 1.5 -0.8 1.5 -0.5 0 -1.5 3.1 -2.2 6.9 -1.1 6.1 -1.1 7.5 0.4 12 2.4 7.5 2.2 10.1 -1 10.1 -2.2 0 -2.4 0.3 -1.8 2.3 0.3 1.2 1.6 4 2.8 6.2 l2.1 4 0.3 -3.3 c0.3 -3.2 0.5 -3.3 4 -3 3.2 0.3 3.7 0.7 4 3.1 0.3 2.1 0.9 2.7 2.8 2.7 1.9 0 2.4 0.5 2.4 2.5 0 2.2 0.4 2.5 3.5 2.5 1.9 0 3.5 0.5 3.5 1 0 0.6 0.7 1 1.5 1 0.8 0 1.5 0.5 1.5 1 0 0.6 0.7 1 1.5 1 0.8 0 1.5 0.5 1.5 1 0 0.6 0.9 1 2 1 1.6 0 2 0.7 2 3.5 0 3.3 -0.2 3.5 -3.5 3.5 -1.9 0 -3.5 -0.4 -3.5 -1 0 -0.5 -0.9 -1 -2 -1 -1.1 0 -2 -0.4 -2 -1 0 -0.5 -0.7 -1 -1.5 -1 -0.8 0 -1.5 -0.4 -1.5 -1 0 -0.5 -0.7 -1 -1.5 -1 -0.9 0 -1.5 -0.9 -1.5 -2.5 0 -2.2 -0.4 -2.5 -3.5 -2.5 -3 0 -3.5 -0.3 -3.5 -2.4 0 -1.9 -0.6 -2.5 -3 -2.8 l-3 -0.4 2.7 3.5 c1.5 2 3.3 3.9 3.9 4.4 0.7 0.4 1.9 1.3 2.6 2 3.7 3.6 9 6.4 14.8 7.8 l6.5 1.7 0.3 -3.4 c0.3 -2.7 0.7 -3.4 2.5 -3.4z"/>
  <path d="M87 161.5 c0 -3.3 0.2 -3.5 3.5 -3.5 3.3 0 3.5 0.2 3.5 3.5 0 3.3 -0.2 3.5 -3.5 3.5 -3.3 0 -3.5 -0.2 -3.5 -3.5z"/>
 </g>
 <g fill="#ac5200">
  <path d="M84 252.2 c-3.6 -0.9 -8 -2.8 -9.9 -4.1 l-3.4 -2.4 -1.8 2.1 c-0.9 1.2 -2.2 2.2 -2.8 2.2 -0.5 0 0.1 -1.2 1.5 -2.7 l2.5 -2.7 -2.4 -1.4 c-3.5 -2.2 -10.5 -13 -13.3 -20.6 -4.4 -12.3 -2.2 -32.9 5.4 -48.4 7.7 -15.8 28.9 -30.4 46.5 -31.8 21.1 -1.8 36.7 6.4 45.9 24.3 5.2 10.1 6.1 14.6 5.5 27 -0.9 20.9 -8.4 34.9 -25.6 48.2 -14.5 11.2 -31 14.8 -48.1 10.3z m6 -7.7 c0 -1 1.1 -1.5 3.5 -1.5 2.4 0 3.5 0.5 3.5 1.5 0 2 9.7 2 16.5 0 6.5 -2 14.6 -7.6 17.9 -12.4 2.5 -3.5 7 -6.7 8.9 -6.2 0.5 0.1 0.5 -0.3 0.2 -1 -0.4 -0.6 0.2 -1.9 1.3 -3 2.8 -2.6 7.8 -13.3 9.1 -19.7 2.4 -11.6 0.6 -23.1 -5.4 -33.7 -8.7 -15.5 -22.4 -22.4 -38.8 -19.6 -6.8 1.2 -18.8 6.1 -23.2 9.5 -1.9 1.5 -1.9 1.5 1.3 1.6 3 0 3.2 0.2 3.2 3.5 0 3.3 -0.2 3.5 -3.4 3.5 -3.2 0 -3.5 -0.3 -3.8 -3.2 l-0.3 -3.3 -5.2 5.1 c-4.7 4.5 -5.3 5.5 -5.3 9.2 0 3.5 -0.3 4.2 -2 4.2 -1.4 0 -2 0.7 -2 2.4 0 1.5 -0.7 2.6 -1.8 2.8 -2.8 0.8 -5.6 13.3 -4.7 21.4 0.4 3.5 1 6.4 1.4 6.4 1.4 0 3.1 5 3.1 8.8 0 2.4 1 5.2 3 8.2 1.6 2.5 3 3.9 3 3.3 0 -0.8 1.4 -1.3 3.5 -1.3 3.3 0 3.5 0.2 3.5 3.5 0 1.9 -0.5 3.5 -1.1 3.5 -2.3 0 0.7 2.4 6.5 5.1 7 3.3 7.6 3.4 7.6 1.4z"/>
  <path d="M93 160.5 c0 -3.3 0.2 -3.5 3.5 -3.5 3.3 0 3.5 0.2 3.5 3.5 0 3.3 -0.2 3.5 -3.5 3.5 -3.3 0 -3.5 -0.2 -3.5 -3.5z"/>
 </g>
 <g fill="#4a00b5">
  <path d="M98 265.6 c0 -1.4 2.9 -2.6 6.8 -2.6 1.5 0 2.2 0.6 2.2 2 0 1.7 -0.7 2 -4.5 2 -3.2 0 -4.5 -0.4 -4.5 -1.4z"/>
  <path d="M119 264.8 c0 -0.9 2.1 -2.1 6 -3.1 7.5 -2.1 8 -2.1 8 0.2 0 2.3 -1.5 2.9 -8.6 3.7 -4.4 0.6 -5.4 0.4 -5.4 -0.8z"/>
  <path d="M141.5 253.1 c1.6 -1.6 12.6 -7.1 14.1 -7.1 2.5 0 1.5 3.9 -1.3 5.3 -3.5 1.8 -14.3 3.3 -12.8 1.8z"/>
  <path d="M159 245 c0 -0.5 -0.7 -1 -1.5 -1 -0.9 0 0.9 -3.4 5 -9.4 3.9 -5.6 6.5 -10.5 6.5 -12 0 -1.9 0.5 -2.6 2 -2.6 1.7 0 2 0.7 2 4.5 0 3.4 -0.5 4.8 -2 5.7 -1.1 0.7 -2 2 -2 3 0 0.9 -1.3 2.2 -3 3 -2.1 0.9 -2.8 1.8 -2.4 3 0.3 0.9 -0.2 2.9 -1.2 4.3 -1.7 2.5 -3.4 3.3 -3.4 1.5z"/>
  <path d="M99.5 241.8 c-3.6 -1.9 -10.6 -9.2 -12.6 -13 -2.4 -4.6 -6 -6.6 -13.6 -7.4 -12.4 -1.4 -16.3 -5.3 -16.3 -16.4 0 -4.2 0.7 -8 1.9 -10.7 2.7 -5.8 10.3 -12.8 18.1 -16.6 6.2 -3 7.1 -3.2 18.1 -3.2 11.5 0 11.7 0 15.5 3 2.2 1.7 6.1 4.3 8.7 5.9 5.6 3.2 9.9 8.7 11.7 15 1.9 6.7 0.8 24.8 -1.7 30.6 -2.5 5.6 -6.6 10.6 -10.4 12.5 -3.3 1.8 -16.4 2 -19.4 0.3z m4.1 -26.9 c2.7 -1.3 5.4 -3.7 7.3 -6.6 4.5 -6.8 4 -12 -1.8 -17.1 -3.3 -3 -7.9 -2.5 -13.5 1.5 -5.1 3.6 -7.9 8.4 -7.9 13.6 0 3.4 0.6 4.6 3.6 7.4 4.3 3.8 6.5 4.1 12.3 1.2z"/>
  <path d="M170.3 216.6 c0.9 -1.3 2.1 -4.5 2.8 -7 0.7 -2.7 1.7 -4.6 2.5 -4.6 1.7 0 1.8 3.5 0.3 9.6 -1 4 -1.4 4.4 -4.1 4.4 -3 0 -3 0 -1.5 -2.4z"/>
  <path d="M33.7 196.3 c-0.4 -0.3 -0.7 -1.9 -0.7 -3.5 0 -2.1 0.5 -2.8 2 -2.8 2.1 0 2.4 1 1.4 4.8 -0.6 2.2 -1.5 2.7 -2.7 1.5z"/>
  <path d="M35 185.4 c0 -3.5 3.2 -15.4 4.2 -15.4 0.4 0 0.8 -1.3 0.8 -3 0 -4.4 2.7 -7 7.2 -7 3.5 0 3.8 0.3 4.9 3.8 0.9 3.2 0.8 4.4 -0.4 6.8 -1.1 1.9 -1.6 2.3 -1.7 1.2 0 -3.1 -2.3 -6.8 -4.1 -6.8 -1.8 0 -2.1 0.9 -6.5 16.8 -1.8 6.3 -4.4 8.5 -4.4 3.6z"/>
  <path d="M149 115.5 c0 -2 0.5 -2.5 2.5 -2.5 1.8 0 2.5 -0.5 2.5 -1.9 0 -2.1 1.9 -3.1 5.6 -3.1 1.8 0 2.4 0.5 2.4 2.3 0 1.2 0.3 3.2 0.6 4.5 0.5 1.8 0.2 2.2 -1.5 2.2 -1.4 0 -2.1 -0.6 -2.1 -2 0 -2.7 -1.6 -2.5 -5.2 0.5 -1.6 1.4 -3.4 2.5 -3.9 2.5 -0.5 0 -0.9 -1.1 -0.9 -2.5z"/>
 </g>
 <g fill="#b15d00">
  <path d="M62 252.1 c0 -3.5 0.2 -3.9 2.2 -3.3 1.5 0.4 2.8 -0.3 4.6 -2.4 l2.4 -2.9 -1.8 3.3 c-1.9 3.3 -1.9 3.4 0 4.8 1.1 0.8 1.4 1.4 0.8 1.4 -0.7 0 -1.2 0.7 -1.2 1.5 0 1 -1.1 1.5 -3.5 1.5 -3.4 0 -3.5 -0.1 -3.5 -3.9z"/>
  <path d="M90.5 249 c-11 -1 -19.2 -6.3 -26.3 -16.6 -2.8 -4.1 -7.5 -17.2 -6.8 -19 0.3 -0.8 0.1 -1.4 -0.5 -1.4 -0.6 0 -0.8 -0.9 -0.4 -2.1 0.5 -1.4 0.3 -1.9 -0.3 -1.5 -0.6 0.4 -0.8 -0.2 -0.5 -1.4 0.9 -3.5 3.1 -2.2 4.8 2.9 2.2 6.7 13.6 22.1 16.3 22.1 0.7 0 1.5 0.7 1.8 1.5 0.4 0.8 1.2 1.5 1.9 1.5 0.7 0 1.5 0.4 1.7 0.8 0.5 1.2 14.6 7.9 19.3 9.1 2.2 0.6 5.7 1.1 7.8 1.1 3.9 0 4.9 1.3 2 2.5 -2.5 1.1 -8.3 1.3 -8.3 0.3 0 -0.4 -0.5 -0.8 -1.1 -0.8 -0.5 0 -0.7 0.5 -0.4 1 0.7 1.1 -0.1 1.1 -11 0z"/>
  <path d="M135 231 c0 -1.7 1.1 -5.3 2.5 -8 1.3 -2.6 2.7 -6.7 3.1 -8.9 0.4 -2.3 1.2 -4.1 1.9 -4.1 2.2 0 4.5 -8.2 4.5 -16.2 0 -18 -8.8 -33.7 -21.8 -38.7 -6.3 -2.5 -12.1 -2.6 -20.5 -0.5 l-6.2 1.5 0.3 4 c0.4 3.9 0.4 3.9 -3.2 3.9 -3 0 -3.6 -0.4 -3.6 -2.1 0 -1.1 -0.4 -1.8 -0.9 -1.5 -0.4 0.3 -0.6 1.7 -0.4 3 0.5 2.3 0.2 2.5 -4.3 2.8 -4 0.2 -5.1 0.7 -5.9 2.6 -0.5 1.2 -1.5 2.2 -2.2 2.2 -0.7 0 -1.3 0.5 -1.3 1 0 0.6 -0.5 1 -1.1 1 -1.7 0 -10 9.5 -13 14.9 -1.4 2.5 -2.9 6.3 -3.3 8.4 -0.4 2.1 -1.3 3.7 -2 3.7 -1.8 0 -2.7 -3.5 -1.2 -5.1 0.8 -0.9 0.8 -1 -0.3 -0.4 -0.9 0.5 -0.8 0 0.3 -1.8 0.9 -1.3 1.6 -2.9 1.5 -3.3 -0.4 -2.5 0.2 -4.5 1.3 -3.8 0.7 0.5 0.8 0.3 0.3 -0.5 -0.4 -0.8 0.8 -4.4 3.1 -8.9 11.1 -22.3 39.4 -35.8 62.4 -29.8 7.4 1.9 10.7 3.8 15.8 8.8 11.4 11.2 16.7 29 13.7 46.1 -0.8 4.7 -2.4 10.7 -3.6 13.3 -2.8 6.6 -9.8 15.6 -11.6 15 -0.8 -0.3 -1.2 -0.2 -1 0.2 0.2 0.4 -0.4 1.5 -1.5 2.5 -1.7 1.6 -1.8 1.6 -1.8 -1.3z"/>
  <path d="M138 187.5 c0 -3.3 0.2 -3.5 3.5 -3.5 3.3 0 3.5 0.2 3.5 3.5 0 3.3 -0.2 3.5 -3.5 3.5 -3.3 0 -3.5 -0.2 -3.5 -3.5z"/>
  <path d="M106.8 164.3 c-2.4 -0.4 -2.8 -0.9 -2.8 -3.9 0 -3.7 0.8 -4 8.3 -2.8 3.4 0.6 3.7 0.9 3.7 4 0 3.2 -0.2 3.4 -3.2 3.3 -1.8 -0.1 -4.5 -0.4 -6 -0.6z"/>
 </g>
 <g fill="#b76800">
  <path d="M60 256.3 c0 -6.8 2.3 -8.8 7 -6.3 1.6 0.8 1.7 1.5 0.8 5 -1 3.7 -1.3 4 -4.4 4 -3 0 -3.4 -0.3 -3.4 -2.7z"/>
  <path d="M80.8 240.6 c-1 -0.7 -1.4 -1.6 -1 -2 0.4 -0.5 0 -0.6 -0.9 -0.4 -0.8 0.1 -2.8 -1 -4.4 -2.7 -1.5 -1.6 -2.2 -2.1 -1.4 -1 0.7 1.1 -0.3 0.4 -2.2 -1.5 -2 -1.9 -3.4 -3.7 -3.2 -3.9 0.1 -0.2 -0.2 -1 -0.8 -1.8 -0.9 -1 -0.7 -1.3 1.1 -1.3 1.2 0 3.8 1.7 5.9 3.8 2 2 5.5 4.6 7.7 5.7 2.4 1.3 4 2.9 4.2 4.3 0.4 2.5 -0.7 2.8 -2.7 1 -1.1 -1 -1.3 -1 -0.7 0 0.9 1.5 0.6 1.5 -1.6 -0.2z"/>
  <path d="M140.4 217.8 c0.4 -2.9 1.1 -7.9 1.5 -11 0.4 -3.2 0.4 -5.8 -0.1 -5.8 -1.3 0 -0.9 -6.8 0.5 -7.3 0.6 -0.3 0.2 -0.6 -1 -0.6 -1.8 -0.1 -2.3 -0.7 -2.3 -2.6 0 -1.4 -0.4 -2.5 -1 -2.5 -0.5 0 -1 -1.6 -1 -3.5 0 -2.8 0.4 -3.5 2 -3.5 2.1 0 2.4 -1.2 1 -4.5 -0.8 -1.8 -0.9 -1.7 -0.9 0.8 -0.1 2.4 -0.5 2.7 -3.6 2.7 -3.3 0 -3.5 -0.2 -3.5 -3.5 0 -3.2 0.2 -3.5 3 -3.5 1.7 0 3 -0.3 3 -0.8 0 -0.4 -2 -3 -4.5 -5.8 -5.9 -6.8 -13.8 -10 -22.2 -8.9 -6.4 0.7 -12.2 3.1 -13 5.2 -0.3 0.8 -2.1 1.3 -4.4 1.3 -2.1 0 -3.9 0.5 -3.9 1 0 0.6 -0.7 1 -1.4 1 -1.7 0 -13.2 6.6 -14.1 8 -0.3 0.6 -1.9 1 -3.5 1 l-2.9 0 1.7 -3 c0.9 -1.6 2.1 -3 2.5 -3 0.5 0 0.5 0.5 0.1 1.2 -0.4 0.7 -0.3 0.8 0.4 0.4 0.6 -0.4 0.9 -1.3 0.5 -2.1 -0.3 -0.8 0 -1.5 0.6 -1.5 0.5 0 3.5 -2 6.5 -4.4 10.4 -8.5 21.7 -12.6 35 -12.6 12.7 0 22.1 5.2 28.1 15.5 7.2 12.3 8.9 32 4.1 45.4 -4.4 12.1 -8.4 16 -7.2 6.9z"/>
  <path d="M112.2 162.5 c0.1 -3.3 0.3 -3.5 3.5 -3.5 3.1 0 3.3 0.2 3.3 3.5 0 3.3 -0.2 3.5 -3.5 3.5 -3.3 0 -3.4 -0.1 -3.3 -3.5z"/>
 </g>
 <g fill="#4900d8">
  <path d="M105 242 c0 -1.7 0.7 -2 4.5 -2 3.8 0 4.5 0.3 4.5 2 0 1.7 -0.7 2 -4.5 2 -3.8 0 -4.5 -0.3 -4.5 -2z"/>
  <path d="M92.7 237.2 c-1 -1 -1.7 -3.3 -1.7 -5 0 -2.7 -0.4 -3.2 -2.5 -3.2 -1.4 0 -2.5 -0.4 -2.5 -0.8 0 -0.5 -0.8 -1.8 -1.8 -3 -1.4 -1.6 -4.2 -2.5 -11.3 -3.7 -5.2 -0.8 -9.5 -1.9 -9.7 -2.5 -0.2 -0.5 -0.9 -1 -1.5 -1 -1.7 -0.1 -4.7 -6.5 -5.4 -11.5 -0.5 -4.3 2 -14.5 3.7 -14.5 0.4 0 1 -0.9 1.3 -2 0.3 -1.2 1.4 -2 2.5 -2 1.4 0 2.2 -0.8 2.4 -2.2 0.2 -1.9 1 -2.4 4.3 -2.6 l4 -0.3 -5.3 5.1 c-8.7 8.3 -11.3 17 -7.2 23.8 2.4 3.9 6.3 5.7 14.3 6.6 7.4 0.8 11.2 2.8 13.3 6.9 0.9 1.7 3.9 5.6 6.7 8.5 l5.1 5.2 -3.5 0 c-2.2 0 -4.2 -0.7 -5.2 -1.8z"/>
  <path d="M122.8 232.3 c3.5 -5 5.4 -10.7 5.9 -18.5 1 -13.3 -3.1 -22.1 -12.7 -27.6 -2.7 -1.6 -4.7 -3.2 -4.3 -3.5 1 -1.1 7.3 -0.8 7.3 0.3 0 0.6 0.7 1 1.5 1 1 0 1.5 1 1.5 3 0 2.7 0.3 3 3 3 2.7 0 3 0.3 3 3 0 2 0.5 3 1.5 3 0.8 0 1.7 1.5 2.2 3.8 1.2 5.4 0.7 22.6 -0.6 23 -0.6 0.2 -1.1 1.7 -1.1 3.3 0 1.9 -0.5 2.9 -1.5 2.9 -1 0 -1.5 1 -1.5 3 0 2.7 -0.3 3 -3.1 3 l-3 0 1.9 -2.7z"/>
  <path d="M88.2 216.6 c-3.6 -3.3 -3.7 -3.7 -3.7 -10.3 0 -8.2 2.1 -12.3 8.3 -16.7 3.3 -2.4 5.6 -3.1 10.5 -3.4 5.4 -0.3 6.5 -0.1 8.8 2 3.9 3.4 4.9 6 4.9 12.6 0 11.1 -8.3 19.2 -19.8 19.2 -4.6 0 -5.7 -0.4 -9 -3.4z"/>
  <path d="M106.6 179.7 c-4.3 -3.1 -14.2 -3.6 -21.8 -0.9 l-5.8 2 0 -2.4 c0 -2 0.5 -2.4 2.9 -2.4 1.6 0 3.1 -0.5 3.3 -1.2 0.6 -1.7 20 -1.7 20.6 0 0.2 0.6 1.2 1.2 2.3 1.2 1.4 0 1.9 0.7 1.9 3 0 1.7 -0.1 3 -0.2 3 -0.2 0 -1.6 -1.1 -3.2 -2.3z"/>
 </g>
 <g fill="#5d903c">
  <path d="M47.8 277.9 l0.4 -6.9 4.4 0 c3.3 0 4.4 0.4 4.4 1.5 0 0.9 1.6 2.3 3.5 3.2 2.1 1 3.5 2.4 3.5 3.5 0 1 -0.3 1.8 -0.7 1.8 -2.8 0 -13.9 2.3 -14.8 3 -0.7 0.6 -0.9 -1.4 -0.7 -6.1z"/>
  <path d="M56 262.5 c0 -3.3 0.2 -3.5 3.5 -3.5 3.3 0 3.5 0.2 3.5 3.5 0 3.3 -0.2 3.5 -3.5 3.5 -3.3 0 -3.5 -0.2 -3.5 -3.5z"/>
  <path d="M244 173.9 c0 -1.1 2 -4.8 4.4 -8.2 2.4 -3.4 5 -7.6 5.9 -9.2 1.5 -3.1 14.1 -21.2 16 -23 1.8 -1.8 -3.6 6.8 -9.5 15.1 -3.2 4.5 -7.8 12.5 -10.4 17.8 -4.4 9.4 -6.4 11.7 -6.4 7.5z"/>
  <path d="M245.7 151 c6.1 -8.9 15.5 -19.5 18.7 -21.2 1.7 -0.9 1.6 -0.6 -0.4 2.3 -3.6 5.2 -15.3 18.9 -20 23.4 -4.1 4 -4.1 3.9 1.7 -4.5z"/>
  <path d="M232.7 127.1 c-0.5 -2.2 5 -12.3 10.3 -18.9 1.7 -2.2 5.3 -5.5 7.8 -7.3 l4.7 -3.3 -5.3 5.9 c-3.5 3.8 -7 9.3 -10 15.7 -4.6 9.7 -6.5 11.6 -7.5 7.9z"/>
  <path d="M226.4 113.3 c-0.4 -1.6 0.1 -5.2 1.5 -9.5 2.5 -7.8 3.4 -8.5 2.1 -1.8 -2 10.2 -0.7 10.5 4.6 1.3 4.4 -7.5 18.7 -22.7 24.9 -26.2 3.5 -2 3 -1.2 -4.1 6.1 -10.9 11.2 -18.3 20.2 -22.3 27.1 -3.5 6.2 -5.7 7.2 -6.7 3z"/>
  <path d="M215.9 99.2 c-1.2 -1.3 -1.8 -5.1 -2.5 -16.2 -1.4 -23.4 -1.1 -29.5 2 -37.5 3 -7.9 9.1 -18.3 13.6 -23.5 2.7 -3.1 2.5 -2.3 -2.3 7.5 -3 6.1 -6.2 13.5 -7.1 16.5 -1.8 6 -2 17.2 -0.6 27 0.5 3.6 1.2 11.3 1.6 17.3 0.6 10.1 0.6 10.7 -1.2 10.6 -1 0 -2.6 -0.8 -3.5 -1.7z"/>
  <path d="M187.1 74.1 c-1.2 -0.8 -1.2 -2.8 0.2 -14.5 2 -16.9 4.3 -21.9 15.4 -32.7 4.2 -4.1 6.7 -6 5.6 -4.4 -7.7 11.4 -14.7 30.8 -16.1 44.5 -0.7 7.6 -1.8 9.2 -5.1 7.1z"/>
  <path d="M164.7 62.3 c-0.4 -0.3 -0.7 -4 -0.7 -8.1 0 -8 1.8 -16.5 5 -23.4 l2 -4.3 -0.4 6 c-0.5 5.8 0.5 19 1.9 26.8 l0.7 3.7 -3.9 0 c-2.2 0 -4.3 -0.3 -4.6 -0.7z"/>
  <path d="M155.1 57.3 c0 -0.5 0.9 -4.4 1.9 -8.8 l1.9 -8 -0.6 8 c-0.6 8.4 -0.8 9.5 -2.4 9.5 -0.5 0 -0.9 -0.3 -0.8 -0.7z"/>
  <path d="M144.8 47 c2 -4.3 3.7 -7.8 3.9 -7.6 0.8 0.7 -5.3 15.6 -6.4 15.6 -0.6 0 0.4 -3.3 2.5 -8z"/>
  <path d="M131 52.7 c0 -0.2 1.4 -1.6 3 -3.2 l3.1 -2.9 -1.6 3.2 c-0.9 1.8 -2.3 3.2 -3.1 3.2 -0.8 0 -1.4 -0.1 -1.4 -0.3z"/>
  <path d="M122.5 48 c1 -1.1 2 -2 2.2 -2 0.2 0 -0.1 0.9 -0.7 2 -0.6 1.1 -1.6 2 -2.2 2 -0.6 0 -0.3 -0.9 0.7 -2z"/>
 </g>
 <g fill="#bc7200">
  <path d="M41 299.8 c0 -0.2 1.5 -4 3.3 -8.3 5.5 -13.4 6.3 -16.5 4.6 -17.6 -1.2 -0.7 -0.9 -1.7 1.4 -6.1 1.5 -2.9 4.5 -8.1 6.7 -11.5 3.6 -5.8 4.2 -6.3 7.5 -6.3 3.2 0 3.5 0.2 3.5 3 0 1.6 -1.4 5.2 -3.1 8.1 -1.6 2.8 -4.3 7.8 -6 11.1 -2.7 5.3 -3.1 5.7 -5 4.7 -1.5 -0.8 -1.9 -0.8 -1.5 0 0.4 0.6 0.3 1.1 -0.1 1.1 -1.1 0 -5.6 9.8 -7.4 15.8 -0.7 2.3 -1.8 4.7 -2.6 5.3 -0.7 0.6 -1.3 1 -1.3 0.7z"/>
  <path d="M142 208.8 c-0.2 -18.6 -8.9 -33.1 -24.7 -41 -9.3 -4.6 -15.9 -5.5 -23.8 -3.3 -8.2 2.4 -13.5 3 -13.5 1.6 0 -0.6 0.7 -1.1 1.5 -1.1 0.8 0 1.5 -0.5 1.5 -1.1 0 -0.5 0.4 -0.8 0.9 -0.5 0.5 0.3 1.1 0 1.4 -0.8 0.3 -0.7 2.7 -1.9 5.4 -2.6 2.6 -0.8 6.8 -2.4 9.3 -3.6 3.8 -1.9 6 -2.2 14 -2.1 11.8 0.2 17.4 2.7 23.6 10.3 6.1 7.5 8.7 16.4 8.5 28.4 -0.2 12.4 -0.6 18.4 -1.5 19.9 -1.6 2.5 -2.6 0.8 -2.6 -4.1z"/>
 </g>
 <g fill="#4c8265">
  <path d="M68 281.1 c-4.2 -0.4 -8.9 -1.4 -10.8 -2.4 -1.8 -1 -3.7 -1.5 -4.2 -1.2 -1.3 0.8 3 -9.1 6.4 -14.7 l2.5 -4.1 0.3 3.8 c0.3 3.3 0.8 4.1 4.3 5.7 2.2 1.1 5.1 2.6 6.5 3.4 1.4 0.8 4.9 2.6 7.8 4.1 3.4 1.7 5.2 3.2 5.2 4.5 0 2 -2.5 2.1 -18 0.9z"/>
  <path d="M49.3 274.5 c-0.6 -0.6 -1.4 -3.2 -1.8 -5.6 -0.7 -4.3 -2.6 -11.7 -4 -15.1 -1.2 -3.1 2.9 -2.1 6.8 1.5 2.8 2.7 4.1 3.3 6.6 2.9 1.7 -0.2 3.1 -0.2 3.1 0.2 0 0.3 -2.2 4.3 -4.8 8.9 -3.5 6.2 -5.1 8.1 -5.9 7.2z"/>
  <path d="M141 199.5 c0 -4 2.4 -4.9 3.4 -1.2 1 3.7 0.7 4.7 -1.4 4.7 -1.6 0 -2 -0.7 -2 -3.5z"/>
  <path d="M232.6 195.8 c-1.3 -4.9 -0.5 -7.6 4.5 -14.8 7.6 -11.1 9.6 -13.3 10.3 -11.4 1 2.7 -10.4 27.2 -13.1 28.1 -0.6 0.2 -1.3 -0.6 -1.7 -1.9z"/>
  <path d="M134 179.3 l0.1 -3.8 2.4 2.8 c3.2 3.6 3.1 4.7 0 4.7 -2.2 0 -2.5 -0.4 -2.5 -3.7z"/>
  <path d="M234.1 164.5 c0.1 -1 8.9 -9.2 8.9 -8.3 0 0.2 -2 2.4 -4.5 4.8 -2.5 2.4 -4.5 4 -4.4 3.5z"/>
  <path d="M228.1 138.6 c-1.5 -1.7 5.4 -17.5 7 -15.9 1.7 1.7 1.4 4.8 -1.1 11.2 -2.5 6.2 -3.8 7.2 -5.9 4.7z"/>
  <path d="M222.8 126.5 c-0.7 -0.8 3.4 -18.5 4.3 -18.5 0.5 0 1.5 1.3 2.3 2.9 1.4 2.6 1.3 3.3 -1.2 9.4 -2.4 6 -3.9 7.7 -5.4 6.2z"/>
  <path d="M215.3 114.3 c-1.5 -2.3 -1.8 -4.5 -1.5 -13 0.1 -5.8 0.7 -10.3 1.2 -10.3 0.6 0 1 0.6 1 1.3 0 0.7 1.1 2.3 2.5 3.5 2.3 2 2.5 2.8 2.5 11.7 0 8.7 -0.2 9.5 -1.9 9.5 -1.1 0 -2.8 -1.2 -3.8 -2.7z"/>
  <path d="M202.1 97.2 c-0.5 -0.9 -1.2 -6.4 -1.5 -12.2 l-0.6 -10.5 3.1 6.3 c2 3.9 3.3 8.4 3.6 12.2 0.5 5.6 0.4 6 -1.5 6 -1.2 0 -2.6 -0.8 -3.1 -1.8z"/>
  <path d="M185.7 83.8 c-1.5 -1.2 -1.5 -2.1 -0.6 -7.9 l1.2 -6.6 2.5 1.3 c2.3 1.2 2.5 1.9 2.6 7.8 0.1 6 -0.1 6.6 -2 6.6 -1.1 0 -2.8 -0.6 -3.7 -1.2z"/>
  <path d="M168.2 74.1 c-1.4 -0.8 -4.2 -10.1 -4.2 -14 0 -1.8 0.4 -2.2 1.8 -1.6 0.9 0.4 2.8 1 4.3 1.2 2.2 0.4 2.7 1.4 4.2 7.1 0.9 3.7 1.7 7 1.7 7.5 0 1 -6.2 0.9 -7.8 -0.2z"/>
  <path d="M153.4 61 c2.1 -6.1 5.2 -8.6 4 -3.2 -1.5 6.8 -2.6 9.2 -4.3 9.2 -1.7 0 -1.7 -0.4 0.3 -6z"/>
  <path d="M105 63.6 c0 -0.1 4.3 -4 9.5 -8.5 5.2 -4.5 9.5 -7.8 9.5 -7.4 0 1.3 -3.9 7.4 -7.7 12.1 -3 3.6 -3.9 4.2 -7.4 4.2 -2.1 0 -3.9 -0.2 -3.9 -0.4z"/>
  <path d="M123.7 63.1 l-2.8 -0.6 6.5 -6.4 c3.6 -3.6 6.8 -6.2 7.2 -5.8 0.8 0.7 -5.8 13 -7.2 13.3 -0.5 0.1 -2.2 -0.1 -3.7 -0.5z"/>
  <path d="M139.3 57.3 c4.8 -7.6 6.3 -6.5 2.2 1.6 -1.7 3.5 -3.1 5.1 -4.5 5.1 -1.7 0 -1.4 -0.8 2.3 -6.7z"/>
 </g>
 <g fill="#447c77">
  <path d="M77.1 278.5 c-3.5 -2 -6.9 -3.9 -7.5 -4.4 -0.6 -0.5 -2.2 -1.2 -3.6 -1.6 -1.3 -0.4 -3.9 -1.7 -5.6 -2.9 -3.1 -2 -3.2 -2.2 -1.8 -4.8 1.9 -3.7 4.4 -3.6 11.5 0.8 3.2 1.9 8.7 4.7 12.1 6.1 3.5 1.4 6.8 2.8 7.3 3.3 0.6 0.4 2.2 1 3.8 1.4 3.4 0.8 3.7 4.1 0.5 5 -5.3 1.4 -10.4 0.5 -16.7 -2.9z"/>
  <path d="M55 265.1 c0 -0.5 -2.2 -2.5 -4.8 -4.4 -3.5 -2.5 -5.6 -5 -7.5 -9.1 -3.2 -6.8 -3.2 -6.6 -0.5 -6.6 1.2 0 4.7 2.4 8.2 5.8 3.4 3.1 7 6.2 8 6.7 1.7 1 1.7 1.2 -0.4 4.8 -2.2 3.7 -3 4.5 -3 2.8z"/>
  <path d="M226 205.4 c0 -6.1 6.9 -21.2 9 -19.9 0.5 0.3 0.9 2.9 0.9 5.8 -0.1 4.5 -0.6 5.9 -4.1 10.5 -5.1 6.5 -5.8 7 -5.8 3.6z"/>
  <path d="M11.7 170 c-0.6 -2.3 0.9 -19.3 2.1 -25 0.6 -2.6 1 0 1.5 10.1 0.4 7.5 0.5 14.4 0.1 15.3 -0.9 2.2 -3.1 2 -3.7 -0.4z"/>
  <path d="M229 168.4 c0 -0.8 3.9 -4.1 6.5 -5.5 1.1 -0.7 0.5 0.4 -1.4 2.5 -3.2 3.3 -5.1 4.4 -5.1 3z"/>
  <path d="M225.7 144 c-0.3 -1.2 0.3 -4.2 1.4 -6.8 l2 -4.5 1.6 2.3 c1.5 2.1 1.5 2.7 0.1 6.4 -1.7 4.6 -4.2 5.9 -5.1 2.6z"/>
  <path d="M221.4 129.4 c0.4 -1.5 1 -3.9 1.3 -5.5 0.6 -3.4 1.9 -3.8 2.8 -0.9 0.9 2.8 -1.3 9 -3.2 9 -1.1 0 -1.4 -0.6 -0.9 -2.6z"/>
  <path d="M215.7 122.4 c-2.3 -3.1 -3.1 -7.8 -2 -12.7 l0.8 -3.8 3.3 4.6 c3.1 4.4 3.8 7.7 2.6 12.3 -0.8 2.9 -2.4 2.8 -4.7 -0.4z"/>
  <path d="M202 100.8 c0 -1.3 -0.3 -4.1 -0.6 -6.3 l-0.6 -4 3.2 3.1 c2.7 2.7 3.1 3.6 2.5 6.3 -0.8 3.8 -4.5 4.5 -4.5 0.9z"/>
  <path d="M185.3 87.8 c-1.8 -0.9 -2.1 -1.7 -1.7 -3.7 1.4 -6.5 1.2 -6.3 5 -3.5 2.5 1.9 3.4 3.4 3.4 5.5 0 2.4 -0.4 2.9 -2.2 2.8 -1.3 0 -3.3 -0.5 -4.5 -1.1z"/>
  <path d="M170.3 78 c-1.8 -1.1 -3.3 -2.5 -3.3 -3.2 0 -0.7 -0.3 -2.3 -0.6 -3.5 l-0.6 -2.2 5 1.7 c4.5 1.5 5.2 2.1 6 5.5 0.9 3.4 0.8 3.7 -1.2 3.7 -1.1 0 -3.6 -0.9 -5.3 -2z"/>
  <path d="M151.1 67 c0.7 -1.9 1.8 -3 2.9 -3 1.7 0 1.8 0.4 0.9 3 -0.7 1.9 -1.8 3 -2.9 3 -1.7 0 -1.8 -0.4 -0.9 -3z"/>
  <path d="M99 68.2 c0 -1.6 8.6 -7 12.3 -7.7 4.8 -0.9 4.7 0.3 -0.3 4.9 -3.2 2.9 -4.8 3.6 -8 3.6 -2.2 0 -4 -0.4 -4 -0.8z"/>
  <path d="M134 67 c-1.2 -0.7 -1.1 -1.3 1 -3.4 2.1 -2.4 5 -3.5 5 -2 0 1 -3.4 6.4 -4 6.4 -0.3 0 -1.2 -0.5 -2 -1z"/>
  <path d="M120.2 63.8 c2.8 -3.6 8.8 -5.3 8.8 -2.4 0 2.1 -5.3 5.6 -8.5 5.6 l-2.8 0 2.5 -3.2z"/>
 </g>
 <g fill="#42797e">
  <path d="M82.5 276.1 c-6 -2.6 -13.3 -6.2 -16.1 -7.9 -2.8 -1.8 -5.6 -3.2 -6.3 -3.2 -1.5 0 -1.4 -0.5 0.5 -4.1 2.2 -4.4 1.1 -4.7 -1.6 -0.5 -2.2 3.7 -3.4 4.7 -2.4 2.2 0.3 -0.9 -0.4 -1.9 -1.8 -2.6 -3.9 -2 -13.9 -12.3 -15.4 -15.9 -1.8 -4.3 -1.8 -4.1 1.1 -4.1 1.6 0 2.5 0.6 2.5 1.5 0 0.8 0.4 1.5 1 1.5 0.5 0 4.1 2.9 7.9 6.5 3.7 3.6 7.6 6.5 8.6 6.5 0.9 0 1.9 0.9 2.2 2 0.3 1.1 1 2 1.5 2 0.6 0 4.1 2 7.8 4.5 3.7 2.5 7 4.5 7.3 4.5 0.4 0 3.1 0.9 6.1 2.1 3.9 1.4 5.3 2.4 4.9 3.5 -0.4 1.1 0.4 1.4 4.3 1.2 5.6 -0.3 7.3 2 2.9 4 -3.3 1.5 -2.1 1.8 -15 -3.7z"/>
  <path d="M20.4 208.4 c-4.8 -10.9 -7.6 -22.4 -7.9 -32.4 -0.4 -11.5 0.3 -17 2 -17 0.9 0 1.4 2.4 1.8 7.8 0.8 11.2 2.3 21.8 4.2 28.7 1 3.3 2 7.2 2.2 8.8 0.3 1.5 0.9 2.7 1.4 2.7 0.5 0 0.9 1.6 0.9 3.5 0 5.1 -1.8 4.3 -4.6 -2.1z"/>
  <path d="M225 204.6 c0 -3.8 0.8 -6.1 3.6 -10.7 2 -3.2 3.8 -5.9 3.9 -5.9 0.2 0 0.1 1.7 -0.2 3.8 -0.8 6.6 -3.2 13.8 -5.3 15.7 -2 1.8 -2 1.8 -2 -2.9z"/>
  <path d="M126 170.9 l0 -3 3 2.1 c4.4 3.1 4.5 4 0.6 4 -3.3 0 -3.6 -0.2 -3.6 -3.1z"/>
  <path d="M228 169.7 c0 -0.9 0.9 -2.1 2.1 -2.7 3.1 -1.7 3.3 -0.7 0.4 2 -2 1.9 -2.5 2 -2.5 0.7z"/>
  <path d="M225 145.8 c0.1 -2.4 0.6 -5.3 1.4 -6.6 1.2 -2.3 1.2 -2.3 2.3 1.3 0.8 2.6 0.8 4.3 0 6.5 -1.7 4.5 -3.7 3.8 -3.7 -1.2z"/>
  <path d="M220.1 133.8 c0 -0.7 0.6 -2.9 1.3 -4.8 1.1 -3.1 1.4 -3.3 2.3 -1.5 1.3 2.3 -0.3 7.5 -2.3 7.5 -0.8 0 -1.4 -0.6 -1.3 -1.2z"/>
  <path d="M214.7 124.5 c-0.9 -2 -1.7 -5.9 -1.7 -8.8 l0 -5.2 2 2.5 c1.1 1.4 2 3 2 3.6 0 0.6 0.7 1.7 1.5 2.4 2.4 2 1.7 9 -0.9 9 -0.7 0 -2 -1.6 -2.9 -3.5z"/>
  <path d="M202 100.8 c0 -4 0 -4.1 2 -2.3 1.1 1 2 2.9 2 4.2 0 1.6 -0.6 2.3 -2 2.3 -1.7 0 -2 -0.7 -2 -4.2z"/>
  <path d="M185.8 90.2 c-2.8 -1.7 -3.4 -3.6 -1.9 -6 0.6 -1.1 1.5 -1 4.4 0.4 3 1.4 3.7 2.3 3.7 4.6 0 3.3 -1.9 3.6 -6.2 1z"/>
  <path d="M170.2 80.3 c-2 -1.7 -4.1 -7.3 -2.8 -7.3 0.3 0 2.4 0.7 4.6 1.6 3.8 1.5 6 3.9 6 6.3 0 1.7 -5.6 1.3 -7.8 -0.6z"/>
  <path d="M158 71.8 c0 -2.5 0.3 -2.9 1 -1.8 1.3 2 1.3 5 0 5 -0.5 0 -1 -1.5 -1 -3.2z"/>
  <path d="M149 72.5 c0 -2 2.7 -5.5 4.2 -5.5 1.7 0 1.8 0.2 0.3 3 -0.9 1.7 -2.2 3 -3 3 -0.8 0 -1.5 -0.2 -1.5 -0.5z"/>
  <path d="M96 70.1 c0 -1.8 5.3 -4.2 10.3 -4.7 l5.2 -0.6 -3.3 3.1 c-2.6 2.5 -4.1 3.1 -7.7 3.1 -2.5 0 -4.5 -0.4 -4.5 -0.9z"/>
  <path d="M118.5 66 c1.9 -1.9 3.9 -3 5.7 -3 1.5 0 2.8 0.3 2.8 0.8 0 1.4 -6.6 5.2 -9 5.2 l-2.4 0 2.9 -3z"/>
  <path d="M132.6 66.5 c1.4 -2.2 5.4 -3.6 5.4 -1.9 0 2 -2.4 4.4 -4.6 4.4 -2.4 0 -2.4 -0.1 -0.8 -2.5z"/>
 </g>
 <g fill="#3e7785">
  <path d="M96.4 278.9 c-0.3 -0.5 -1.2 -0.9 -2.1 -0.9 -3.4 0 -20.3 -7.1 -26.1 -11 -3.4 -2.3 -6.6 -3.9 -7.2 -3.5 -1.7 1 -1.1 -1.8 1.1 -5.4 2.8 -4.6 1.8 -4.9 -1.4 -0.5 l-2.5 3.7 -7.4 -7 c-4 -3.8 -8 -7.3 -8.8 -7.9 -0.8 -0.5 -2.1 -2 -2.9 -3.4 -12.2 -21.3 -17.4 -31.4 -19.6 -37.5 -2.8 -7.8 -4.5 -18 -4.4 -26.5 0.1 -9.3 0.1 -9.4 1.4 -5.4 1.5 4.9 4.1 10 6.6 13.2 1 1.3 2.3 4.9 2.9 8 0.7 3.1 1.8 7.5 2.5 9.7 2 6.1 10.2 21.3 15.2 28.3 4.5 6.3 17.8 20.2 19.3 20.2 0.5 0 1.5 0.6 2.2 1.3 3.5 3.4 24.9 14.7 27.7 14.7 2 0 1.1 3.8 -0.9 4.3 -3.5 0.9 -2.4 3 1.3 2.3 7.1 -1.5 11.5 -1.8 13 -1 1.2 0.7 0.4 1.4 -3.8 3.1 -3 1.1 -5.7 1.7 -6.1 1.2z"/>
  <path d="M78.5 238 c-1.1 -0.5 -4 -2.7 -6.5 -4.9 l-4.5 -4 3.8 -0.1 c3.3 0 3.7 0.3 3.7 2.5 0 2.1 0.5 2.5 3 2.5 2.5 0 3 0.4 3 2.5 0 1.4 -0.1 2.5 -0.2 2.4 -0.2 0 -1.2 -0.4 -2.3 -0.9z"/>
  <path d="M63.8 224 l-2.8 -3.5 2.6 -0.3 c3.3 -0.4 3.6 -0.1 3.2 3.9 l-0.3 3.4 -2.7 -3.5z"/>
  <path d="M141 212.5 c0 -2.8 0.4 -3.5 2 -3.5 2.1 0 2.4 1 1.4 4.8 -1 3.6 -3.4 2.7 -3.4 -1.3z"/>
  <path d="M217 211.7 c0 -2.3 0.8 -4.1 2.5 -5.7 1.4 -1.3 4.1 -4.7 6.2 -7.7 2 -2.9 3.7 -5.3 3.8 -5.3 0.1 0 -0.3 3 -0.8 6.8 -0.9 7 -1.5 7.9 -8.9 13.3 l-2.8 2 0 -3.4z"/>
  <path d="M140.6 199.4 c-0.9 -6.9 -0.8 -8.4 0.8 -8.4 1.4 0 1.8 1.1 3.2 9.3 0.5 3.2 0.4 3.7 -1.4 3.7 -1.5 0 -2.1 -0.9 -2.6 -4.6z"/>
  <path d="M131 175.4 c0 -3.9 0.9 -3.8 4 0.6 l2.1 3 -3 0 c-2.9 0 -3.1 -0.3 -3.1 -3.6z"/>
  <path d="M225 172.9 c0 -1.9 4.7 -6.5 5.7 -5.5 0.4 0.3 -0.7 2.1 -2.5 3.9 -2.2 2.2 -3.2 2.7 -3.2 1.6z"/>
  <path d="M74.3 169.5 c3.6 -3.2 4.7 -3.1 4.7 0 0 2.2 -0.4 2.5 -3.7 2.5 l-3.8 -0.1 2.8 -2.4z"/>
  <path d="M94 162.6 c0 -1.3 2.8 -2.6 5.8 -2.6 0.6 0 1.2 0.9 1.2 2 0 1.6 -0.7 2 -3.5 2 -2.3 0 -3.5 -0.5 -3.5 -1.4z"/>
  <path d="M103 162 c0 -2.1 1 -2.4 4.8 -1.4 3.6 1 2.7 3.4 -1.3 3.4 -2.8 0 -3.5 -0.4 -3.5 -2z"/>
  <path d="M221.5 155.1 c-0.7 -3.4 4.4 -16.9 5.7 -14.9 1.3 2.1 0.9 7.7 -0.9 12.9 -2 5.5 -3.8 6.3 -4.8 2z"/>
  <path d="M218 140.8 c0 -0.6 0.8 -3.5 1.7 -6.4 1.4 -4.5 1.8 -5.1 2.8 -3.7 1.5 2 -1.1 11.3 -3.2 11.3 -0.7 0 -1.3 -0.5 -1.3 -1.2z"/>
  <path d="M213.1 131.7 c-0.7 -2 -0.8 -5.9 -0.3 -10.7 l0.8 -7.5 3.1 6 c3 5.8 3 6.1 1.6 10.8 -1.6 5.5 -3.7 6.1 -5.2 1.4z"/>
  <path d="M202 106 c0 -5.8 0.1 -6 2 -4.8 2.9 1.9 2.4 10.8 -0.6 10.8 -1 0 -1.4 -1.6 -1.4 -6z"/>
  <path d="M184.3 96.1 c-3.1 -2.7 -3.2 -3.1 -2.2 -6.2 0.6 -1.9 1.2 -4 1.5 -4.6 0.2 -0.9 1.3 -0.7 3.9 0.8 4.3 2.6 4.1 2.3 5 8.2 0.7 4.7 0.7 4.7 -2.1 4.7 -1.7 0 -4.2 -1.2 -6.1 -2.9z"/>
  <path d="M172.9 88.3 c-1.8 -1.2 -2.9 -3.2 -4 -7.4 -0.9 -3.3 -1.4 -5.9 -1.3 -5.9 0.2 0 2.5 1 5.1 2.2 2.7 1.3 4.9 2.3 4.9 2.3 0.1 0 0.5 2.4 0.9 5.3 0.6 4.7 0.5 5.2 -1.2 5.1 -1 0 -3 -0.8 -4.4 -1.6z"/>
  <path d="M81 80.1 c0 -1.8 17.2 -12 21.3 -12.6 2.3 -0.4 5.1 -0.9 6.2 -1.1 1.2 -0.3 -0.3 1.7 -3.9 5 -3.9 3.6 -7.9 6.2 -11.6 7.5 -5.8 2.2 -12 2.8 -12 1.2z"/>
  <path d="M157.4 76.8 c0.9 -5.6 2.2 -6.8 2.9 -2.6 0.3 1.8 0.8 4.1 1.2 5.1 0.6 1.4 0.2 1.7 -2 1.7 -2.7 0 -2.7 -0.1 -2.1 -4.2z"/>
  <path d="M147 77 c0 -2.4 3 -6.8 5 -7.3 2 -0.5 2 -0.5 -0.2 3.6 -2.3 4 -4.8 6 -4.8 3.7z"/>
  <path d="M114.1 70.9 c3.2 -4 7.2 -6.4 9 -5.3 1.3 0.8 -8.2 9.3 -10.4 9.4 -1.6 0 -1.4 -0.7 1.4 -4.1z"/>
  <path d="M127.2 74.3 c-1 -0.4 -0.2 -1.7 2.4 -4.4 3.5 -3.6 7.4 -5.2 7.4 -3 0 0.8 -7.6 8.2 -8.3 8 -0.1 0 -0.8 -0.3 -1.5 -0.6z"/>
 </g>
 <g fill="#2360c5">
  <path d="M90 272.3 c-4.9 -1.8 -13.4 -6 -19.2 -9.5 -3.7 -2.2 -7.2 -3.7 -7.8 -3.3 -1.6 1 -1.2 -0.7 1.1 -4.4 2.7 -4.4 1.8 -5.1 -1.1 -0.8 l-2.2 3.3 -8 -7.9 c-4.3 -4.4 -9.8 -10.7 -12.2 -14.1 -5.1 -7.1 -13.7 -23.3 -15.4 -29.1 -1.3 -4.5 -4.2 -17.1 -4.2 -18.6 0 -2.4 3 -0.2 7.5 5.7 2.8 3.5 5.5 7 6 7.7 0.6 0.6 1.9 4.1 2.8 7.7 1 3.6 4.3 11.6 7.3 17.8 6.4 12.9 12.5 20.1 18.9 22 2.2 0.6 6.4 3.2 9.3 5.6 2.8 2.4 7.8 5.5 10.9 6.7 5.3 2.2 7.1 2.3 21.7 2.1 8.7 -0.1 17.7 -0.8 20 -1.4 4 -1.1 10.2 -1.3 26.4 -0.7 9.4 0.3 20.1 -2.5 31.6 -8.1 9.6 -4.7 8.9 -3.9 -2.9 3.5 -4.9 3 -11.9 6.5 -15.5 7.5 -8.2 2.5 -26.7 4.8 -48.5 6 -9.3 0.5 -18.6 1.4 -20.5 2 -3.8 1.1 -3.8 1.1 -6 0.3z"/>
  <path d="M142.4 253.1 c0.8 -1.2 13.1 -7.1 15 -7.1 0.9 0 1.6 -0.4 1.6 -1 0 -0.5 -0.5 -1 -1 -1 -1 0 5.9 -11.2 7.3 -11.8 0.4 -0.2 0.7 -0.9 0.7 -1.6 0 -0.7 0.9 -2.1 2 -3.1 1.6 -1.4 1.9 -2.6 1.4 -5.5 -0.4 -2.6 -0.2 -4.1 0.9 -5.2 2.3 -2.2 4.8 -13.1 4.6 -19.1 -0.2 -2.9 0.1 -7.1 0.5 -9.4 0.6 -3.5 0.5 -4.3 -0.8 -4.3 -2.4 0 -2.6 -1.3 -1.1 -7.1 1.4 -5.3 1.4 -7 -0.1 -17.7 -0.6 -5 -0.9 -5.3 -3.1 -4.9 -2.8 0.5 -3.8 -0.9 -4.7 -6.9 -1 -6 -4.1 -10.7 -6.7 -9.9 -1.9 0.6 -2 0.3 -1.4 -4.2 1.3 -10.9 2.3 -21.8 2.1 -22.1 -0.2 -0.1 -2 1.1 -4.1 2.8 -3.6 2.9 -9.5 5.9 -14.4 7.5 -1.8 0.5 -2.1 0.2 -2.1 -2.4 0 -3.7 -0.3 -3.8 -5.7 -0.7 -2.3 1.4 -6.8 3 -9.9 3.7 -5.1 1.1 -5.7 1.1 -6.6 -0.5 -1.3 -2.3 -5.8 -1.4 -12 2.6 -2.6 1.6 -5.2 2.7 -5.7 2.4 -0.9 -0.6 -6.4 1.6 -18 7.3 -8 3.8 -20.1 16.5 -24.5 25.5 -1.9 3.9 -4 8.5 -4.6 10.1 l-1.2 3 -1.5 -4.7 c-0.7 -2.7 -1.7 -4.8 -2.2 -4.8 -1.4 0 -4.1 3.6 -4.1 5.4 0 2.4 -1.8 5.6 -3.2 5.6 -1.6 0 -0.2 -10.5 1.8 -13.6 1.7 -2.5 6.7 -3.4 7.9 -1.4 1 1.6 2.5 1.1 2.5 -0.8 0 -6.7 24.3 -31.2 30.9 -31.2 0.6 0 3.4 -1.1 6.3 -2.5 2.8 -1.4 6 -2.5 7 -2.5 1 0 4.2 -1.4 7.1 -3 4.2 -2.4 6.6 -3 11 -3 3.2 0 5.7 0.4 5.7 1 0 1.6 4.8 0.1 10.6 -3.1 5.8 -3.2 9.9 -3.7 12.5 -1.3 2.4 2.1 5 1.1 9.6 -3.7 2.8 -3 4.5 -3.9 6.9 -3.9 3.2 0 3.3 0.1 2.7 3.6 -0.3 2 0 4.5 0.7 5.9 1.2 2.3 1 6.8 -0.6 15.3 -0.5 2.5 -0.3 3.2 1 3.2 1.9 0 5.3 6.5 6.2 11.9 0.6 3.7 0.9 4.1 3.6 4.1 4.1 0 5 3.1 5.2 17.7 0 6.8 0.4 12.3 0.8 12.3 0.4 0 0.7 6 0.7 13.3 -0.1 9.7 -0.5 14.1 -1.6 16.7 -0.9 1.9 -1.7 4.9 -1.9 6.5 -1.2 10.9 -1.8 13.2 -4.5 16.7 -1.7 2.1 -4.2 3.9 -5.9 4.3 -3.2 0.7 -3.9 2.2 -1.5 3.1 0.8 0.4 1.5 0.9 1.5 1.4 0 1.3 -4.5 6 -5.8 6 -0.7 0 -1.2 0.7 -1.2 1.6 0 0.8 -1.5 2.1 -3.2 2.8 -3.9 1.6 -14.1 2.9 -13.4 1.7z"/>
  <path d="M98.5 247.6 c-2.7 -0.7 -6.9 -2.3 -9.3 -3.5 -16.5 -8.5 -26.8 -18.9 -31.2 -31.4 -2.6 -7.3 -2.6 -10.7 -0.1 -10.7 1 0 1.9 0.6 1.8 1.3 -0.1 4.4 0.7 6.9 4.3 12.2 2.2 3.3 4 7 4 8.2 0 1.5 0.7 2.3 2.3 2.5 1.2 0.2 2.6 1.3 3.2 2.6 0.5 1.2 1.8 2.2 2.7 2.2 1 0 2.3 0.9 3 2 0.7 1.1 1.8 2 2.5 2 0.7 0 3.4 1.4 6 3 2.6 1.7 5.7 3 7 3 1.3 0 2.3 0.4 2.3 0.9 0 1.5 9.7 3.3 13.7 2.6 2.1 -0.3 5.4 -1.5 7.3 -2.5 3.5 -1.9 3.5 -1.9 0.8 -2 -1.6 0 -2.8 -0.3 -2.7 -0.7 0 -0.5 2.1 -2.5 4.5 -4.7 l4.4 -3.9 0 3.2 c0 2.4 0.4 3.1 2 3.1 1.3 0 2 -0.7 2 -1.9 0 -1.1 1 -2.8 2.3 -3.8 4.5 -3.6 9.7 -17.2 9.7 -25.3 0 -6.1 -3.1 -18 -5.3 -20.5 -1 -1.1 -2.1 -3.2 -2.4 -4.7 -0.3 -1.6 -1.1 -2.8 -1.7 -2.8 -1.3 0 -4.6 -3.6 -4.6 -5 0 -0.6 -1.1 -1 -2.4 -1 -1.4 0 -2.8 -0.4 -3.1 -1 -0.3 -0.5 -1.4 -1 -2.5 -1 -1 0 -2 -0.6 -2.3 -1.4 -0.3 -0.7 -3.8 -2.1 -7.7 -3.1 -6.3 -1.5 -8 -1.6 -12.9 -0.5 -6.1 1.4 -14.1 4.8 -18.1 7.7 -4.4 3.2 -11.8 11.1 -13.5 14.2 -1.4 2.8 -1.4 3.1 0 3.1 1.4 0 1.2 0.6 -0.6 3.3 -1.3 1.7 -2.7 3.4 -3.1 3.5 -0.4 0.2 -0.8 1.2 -0.8 2.3 0 1.3 -0.7 1.9 -2.1 1.9 -2 0 -2.1 -0.4 -1.5 -4.7 2.3 -17.4 20.8 -33.5 41.1 -35.7 17 -1.9 35 8.2 42.4 23.6 12.2 25.8 0 56.7 -25.1 63.4 -6.3 1.6 -9.6 1.6 -16.3 0z"/>
  <path d="M171 247.1 c0 -1.8 0.6 -2.1 4.4 -2.1 2.4 0 5.3 -0.2 6.3 -0.5 2.4 -0.7 -5.6 3 -8.5 3.9 -1.8 0.6 -2.2 0.4 -2.2 -1.3z"/>
  <path d="M89 230.5 c0 -3.9 0.6 -4.3 2.7 -1.7 3.5 4.4 3.5 5.2 0.3 5.2 -2.8 0 -3 -0.3 -3 -3.5z"/>
  <path d="M125.5 228.3 c0.4 -1 1 -2.6 1.2 -3.5 1 -3.3 3.3 -2 3.3 1.7 0 3.1 -0.3 3.5 -2.6 3.5 -2.1 0 -2.5 -0.3 -1.9 -1.7z"/>
  <path d="M194 224.3 c0 -1.2 2 -2.7 5.8 -4.5 3.1 -1.5 8.6 -5 12.2 -7.7 3.6 -2.8 6.8 -5 7.3 -5.1 0.4 0 0.7 1.3 0.7 3 0 2.4 -0.8 3.5 -4.2 5.6 -3.6 2.3 -20.3 10.4 -21.4 10.4 -0.2 0 -0.4 -0.8 -0.4 -1.7z"/>
  <path d="M78 221 c0 -2.1 1 -2.4 4.8 -1.4 3.6 1 2.7 3.4 -1.3 3.4 -2.8 0 -3.5 -0.4 -3.5 -2z"/>
  <path d="M69 220 c0 -1.6 0.7 -2 3.5 -2 2.8 0 3.5 0.4 3.5 2 0 1.6 -0.7 2 -3.5 2 -2.8 0 -3.5 -0.4 -3.5 -2z"/>
  <path d="M129 215.5 c0 -2.8 0.4 -3.5 2 -3.5 1.6 0 2 0.7 2 3.5 0 2.8 -0.4 3.5 -2 3.5 -1.6 0 -2 -0.7 -2 -3.5z"/>
  <path d="M203 210.1 c0 -0.5 1.6 -1.8 3.5 -3 1.9 -1.1 3.5 -1.9 3.5 -1.7 0 0.2 -1.6 1.6 -3.5 3 -1.9 1.5 -3.5 2.3 -3.5 1.7z"/>
  <path d="M125.9 196.4 l-2.6 -5.4 2.9 0 c2.1 0 2.8 0.5 2.8 2 0 1.1 0.5 2 1 2 0.6 0 1 1.6 1 3.5 0 5.1 -2.1 4.3 -5.1 -2.1z"/>
  <path d="M33.7 196.2 c-5.9 -14.8 -8 -32.3 -5.4 -44.8 0.9 -4 4.8 -14.4 9.2 -24 4.2 -9.3 8.4 -18.6 9.3 -20.6 1 -2.1 2 -3.8 2.3 -3.8 0.4 0 -1.4 5.1 -3.9 11.2 -4.2 10.5 -4.5 11.9 -4.5 20.3 0 5 0.1 10.4 0.3 12 0.2 1.7 -0.4 6.5 -1.3 10.7 -1 4.3 -1.7 11.1 -1.7 15 0.1 4 0.1 8.7 0.1 10.3 0 1.7 -0.6 6.4 -1.3 10.5 l-1.4 7.4 -1.7 -4.2z"/>
  <path d="M208.2 188.9 c0.2 -1.9 3 -5.1 9.3 -10.8 4.9 -4.5 9.1 -7.7 9.4 -7 0.2 0.6 -4 5.5 -9.3 10.8 -8.2 8.1 -9.7 9.2 -9.4 7z"/>
  <path d="M109.8 182.1 c-1.8 -1.5 -4.3 -3.3 -5.5 -4 -3.3 -1.7 -2.8 -3.1 1.2 -3.1 3.1 0 3.5 0.3 3.5 2.5 0 2.1 0.5 2.5 3 2.5 2.5 0 3 0.4 3 2.5 0 3.2 -1.2 3.2 -5.2 -0.4z"/>
  <path d="M78 178.6 c0 -2.3 0.4 -2.6 3.5 -2.6 3.7 0 5 2.3 1.8 3.3 -1 0.2 -2.6 0.8 -3.5 1.2 -1.5 0.6 -1.8 0.2 -1.8 -1.9z"/>
  <path d="M209 177.2 c0 -3.2 0.8 -5.5 2.9 -8.5 1.5 -2.3 4.5 -7.5 6.5 -11.4 2 -4 4 -7.3 4.6 -7.3 0.5 0 1.2 1.5 1.5 3.3 1 5.2 -3.6 15.4 -10 22.4 l-5.4 5.8 -0.1 -4.3z"/>
  <path d="M207.4 160.5 c-0.3 -2.5 -0.4 -5.1 -0.1 -5.9 0.3 -0.8 -0.1 -1.7 -0.9 -2 -1.9 -0.7 -1.8 -2.2 1.1 -9.1 1.3 -3.3 3 -8.6 3.6 -11.7 1.3 -6.6 3.2 -7.5 5.3 -2.5 1.2 2.9 1.1 3.8 -0.9 9.2 -1.2 3.4 -3.5 8.5 -4.9 11.4 -2.5 4.9 -2.8 7.8 -0.7 5.5 1.3 -1.3 8.1 -15 8.1 -16.3 0 -0.6 0.7 -1.1 1.5 -1.1 0.8 0 1.5 0.7 1.5 1.5 0 1.8 -6 17.7 -8.4 22.4 -2.4 4.5 -4.3 4 -5.2 -1.4z"/>
  <path d="M197.3 132.8 c-0.8 -1.8 -0.5 -3.4 1.4 -7.4 1.3 -2.9 2.6 -7.5 3 -10.3 0.4 -3.6 1 -5.1 2.1 -5.1 1.3 0 1.4 1.4 0.8 9.3 -0.3 5 -1 10.6 -1.4 12.2 -1.1 3.8 -4.4 4.6 -5.9 1.3z"/>
  <path d="M182.2 113.4 c-4.5 -4.6 -8.7 -8.4 -9.2 -8.4 -0.6 0 -1 -1.9 -1 -4.2 0 -2.4 -0.5 -7.2 -1 -10.7 -0.6 -3.5 -0.8 -6.6 -0.5 -6.9 0.9 -0.9 7.5 2.6 8.2 4.4 0.5 1.4 -0.6 8.2 -2.3 14.3 -0.5 1.6 -0.4 2.2 0.4 1.7 0.6 -0.3 2 -3.5 3.2 -7.1 1.2 -3.6 2.5 -6.5 2.9 -6.5 0.5 0 2.4 1.3 4.2 3 1.9 1.6 3.9 3 4.5 3 1.8 0 3.3 20.5 1.8 24.4 -0.3 0.9 -1.1 1.6 -1.8 1.5 -0.6 0 -4.8 -3.8 -9.4 -8.5z"/>
  <path d="M63.5 105.4 c8.9 -20.1 20.1 -30.5 33 -30.4 l4 0 -5.6 5 c-6.1 5.4 -8.9 10 -8.9 14.9 0 2.5 -0.6 3.3 -3.3 4.4 -1.8 0.8 -6 3.7 -9.4 6.6 -4.5 3.7 -7.1 5.1 -9.2 5.1 l-3.1 0 2.5 -5.6z"/>
  <path d="M155.3 95.7 c-2.4 -1.1 -4.3 -2.5 -4.3 -3 0 -0.5 0.9 -2.1 2 -3.7 1 -1.5 2.5 -4.8 3.2 -7.3 2.4 -9.1 6.9 -3.2 8.5 11.1 l0.6 5.2 -2.9 -0.1 c-1.6 0 -4.8 -1 -7.1 -2.2z"/>
  <path d="M102.1 86.3 c3.5 -5.8 11 -14.3 12.5 -14.3 2.1 0 1.8 0.5 -2.9 6.3 -2.3 2.9 -4.9 6.7 -5.6 8.5 -1 2.4 -2 3.2 -3.8 3.2 l-2.5 0 2.3 -3.7z"/>
  <path d="M130.7 88.7 l-4.8 -1.2 7.8 -7.5 c4.2 -4.1 7.2 -6.8 6.5 -6 -0.6 0.9 -1.4 3.5 -1.8 5.8 -0.5 3.4 -0.4 4.2 0.9 4.2 1.5 0 4.6 -3.2 7.8 -8 0.9 -1.4 2 -2 2.7 -1.6 0.8 0.5 -0.4 3 -3.8 8.2 -5.6 8.2 -5.9 8.3 -15.3 6.1z"/>
  <path d="M112.5 86.7 c0.3 -0.7 4.1 -4.5 8.5 -8.6 5.6 -5 8.6 -7.1 9.7 -6.7 0.9 0.4 1.2 1 0.7 1.4 -0.5 0.5 -3.3 2.8 -6.1 5.1 -2.9 2.4 -6.1 5.6 -7 7.2 -1.7 2.9 -6.8 4.4 -5.8 1.6z"/>
 </g>
 <g fill="#0c71dd">
  <path d="M102 275 c-2.4 -0.8 -2.4 -0.8 0.5 -0.8 1.7 0 3.9 0.3 5 0.8 1.8 0.8 1.8 0.9 -0.5 0.8 -1.4 0 -3.6 -0.4 -5 -0.8z"/>
  <path d="M90 272.3 c-5.1 -1.9 -13.4 -6 -19.2 -9.5 -3.7 -2.2 -7.2 -3.7 -7.8 -3.3 -1.9 1.2 -1 -0.7 1.2 -2.7 2.2 -1.8 2.3 -1.8 3.6 -0.1 0.7 1 1.9 1.7 2.6 1.5 0.8 -0.1 1.6 0.5 2 1.3 0.3 0.9 1 1.3 1.6 1 0.5 -0.3 1 -0.1 1 0.5 0 0.9 7.5 4.8 10.5 5.4 0.6 0.1 2 0.8 3.3 1.4 1.2 0.7 2.7 1 3.2 0.7 0.6 -0.3 1 -0.1 1 0.6 0 0.6 0.8 0.9 2 0.6 1.1 -0.3 2 -0.1 2 0.5 0 0.5 0.6 0.6 1.3 0.2 0.8 -0.5 0.9 -0.4 0.2 0.3 -1.3 1.4 -6.5 2.3 -8.5 1.6z"/>
  <path d="M52.2 249 c-4.6 -4.7 -10 -11 -12.1 -14 -4.3 -6.1 -12.8 -21.8 -14.3 -26.5 -2 -6.3 -5.5 -23.5 -4.7 -23.5 1.4 0 3.8 4.2 3.2 5.6 -0.3 0.8 0 1.4 0.6 1.4 0.6 0 1 0.3 0.9 0.8 -0.4 1.6 1.4 10.2 2.3 10.7 0.5 0.4 0.7 1.1 0.4 1.6 -0.4 0.5 -0.1 0.9 0.4 0.9 0.6 0 1 0.3 1 0.8 -0.1 0.4 -0.1 0.9 0.1 1.2 0.1 0.3 0.4 1.6 0.6 3 0.2 1.3 0.8 2.7 1.2 3 0.4 0.3 0.8 1.2 1 2 0.2 0.8 0.8 1.7 1.3 1.8 0.5 0.2 0.7 0.8 0.3 1.3 -0.3 0.5 0 0.9 0.6 0.9 0.6 0 0.8 0.5 0.5 1 -0.3 0.6 -0.1 1 0.5 1 0.6 0 0.9 0.4 0.6 0.9 -0.3 0.5 0.1 1.2 1 1.5 0.8 0.3 1.2 1 0.9 1.6 -0.3 0.5 -0.1 1 0.5 1 0.6 0 0.9 0.4 0.5 0.9 -0.3 0.6 0.4 1.5 1.5 2.1 1.1 0.6 1.8 1.5 1.5 2.1 -0.4 0.5 0.1 1.2 0.9 1.5 0.9 0.3 1.6 1.1 1.6 1.8 0 1.4 4 4.9 4.8 4.2 0.7 -0.8 4.2 2.4 4.2 3.8 0 0.6 -0.4 0.5 -0.9 -0.3 -0.5 -0.8 -1.1 -0.9 -1.5 -0.3 -0.7 1.2 4.1 4.5 5.4 3.7 0.5 -0.3 1.2 0 1.6 0.6 0.4 0.8 0.3 0.9 -0.4 0.5 -2.4 -1.5 -1.1 1.3 1.4 3.2 2.2 1.6 2.5 2.3 1.8 4.3 -0.9 2.4 -1.2 2.1 -9.2 -6.1z"/>
  <path d="M97.2 246.7 c-2.5 -0.7 -4 -1.6 -3.5 -2.1 0.4 -0.5 0.3 -0.6 -0.4 -0.2 -1.1 0.6 -3.6 -0.4 -12.2 -5.4 -12.9 -7.3 -22.6 -20.9 -24.6 -34.3 -2.1 -14.1 9.5 -31.6 26 -39.1 7.5 -3.5 15 -4.9 21.9 -4.3 7.8 0.7 16.9 3.4 16 4.9 -0.4 0.6 0.1 0.8 1.4 0.4 1.3 -0.4 2.2 -0.1 2.6 0.9 0.3 0.8 1 1.4 1.5 1.3 1.5 -0.5 7.9 6 11.4 11.6 8.8 13.8 8.9 35.8 0.3 49.4 -3.8 6 -10.1 11.9 -15.8 14.8 -6.2 3.2 -17.4 4.1 -24.6 2.1z m18.4 -8.1 c3.8 -1.8 5.8 -3.5 8.1 -7.2 1.6 -2.7 3.3 -6.1 3.7 -7.6 0.4 -2 1.3 -2.8 2.9 -2.9 1.6 -0.1 1.7 -0.3 0.5 -0.6 -2.5 -0.6 -2.2 -7.3 0.3 -7.3 1 0 2 0.8 2.2 1.8 0.3 0.9 0.5 -1.2 0.4 -4.8 0 -3.6 -0.2 -5.3 -0.4 -3.7 -0.3 1.9 -1 2.7 -2.4 2.7 -1.5 0 -1.9 -0.7 -1.9 -3.5 0 -2.9 0.4 -3.5 2.1 -3.5 1.8 0 2 -0.4 1.4 -3.2 -1.3 -6.1 -5.8 -14.8 -9.2 -17.8 -7 -6.2 -20.3 -10.7 -27.7 -9.4 -2.3 0.4 -3.5 0.9 -2.8 1.1 2.2 0.8 1.4 4.3 -1 4.3 -1.3 0 -4.4 0.7 -7 1.4 -3.5 1.1 -4.8 1.2 -5.2 0.3 -0.2 -0.7 -0.5 -0.5 -0.5 0.5 -0.1 0.9 -1.8 2.7 -3.8 3.9 -13.3 8.2 -19.4 21.4 -13.6 29.4 2.1 2.8 7.6 5.8 11 5.8 1.5 0 2.3 0.5 2.3 1.6 0 2.2 7.3 9.1 13 12.3 5.2 2.9 19 8.5 21.5 8.7 0.6 0 3.3 -1 6.1 -2.3z"/>
  <path d="M121.5 190.1 l-3.9 -4.1 3.7 0 c4.1 0 5.1 1.2 4.5 5.5 l-0.3 2.6 -4 -4z"/>
  <path d="M104.5 177.9 c-1.1 -0.4 -3.2 -0.8 -4.7 -0.8 -2.2 -0.1 -2.8 -0.6 -2.8 -2.2 0 -2 0.4 -2.1 4.5 -1.6 5.3 0.5 5.8 0.8 5.3 3.5 -0.2 1.5 -0.8 1.7 -2.3 1.1z"/>
  <path d="M174.1 212.8 c0.5 -1.8 0.9 -3.4 0.9 -3.5 0 -0.2 0.7 -0.3 1.5 -0.3 1.8 0 1.9 1.1 0.3 2.9 -1 1.1 -1 1.4 0 1.8 2.1 0.8 1.3 2.3 -1.2 2.3 -2.3 0 -2.4 -0.2 -1.5 -3.2z"/>
  <path d="M215.4 213.9 c0.4 -1.3 0.8 -3 1 -3.6 0.3 -1.5 4.6 -6.3 5.6 -6.3 1.1 0 -0.1 5.2 -1.8 7.8 -0.8 1.3 -2.4 2.8 -3.5 3.4 -1.8 0.9 -1.9 0.8 -1.3 -1.3z"/>
  <path d="M175.7 205.8 c0.4 -1.3 0.7 -4.4 0.6 -7 -0.1 -4.1 0.1 -4.8 1.8 -4.8 1.7 0 1.9 0.8 1.9 7 0 6.8 -0.1 7 -2.6 7 -2.2 0 -2.4 -0.3 -1.7 -2.2z"/>
  <path d="M177 184.5 c0 -1.6 -0.6 -2.5 -1.5 -2.5 -0.8 0 -1.5 -0.4 -1.5 -1 0 -0.5 1.6 -1 3.5 -1 3.3 0 3.5 0.2 3.5 3.5 0 2.8 -0.4 3.5 -2 3.5 -1.5 0 -2 -0.7 -2 -2.5z"/>
  <path d="M223.7 174.2 c0.3 -1.1 1.4 -2.8 2.4 -3.8 3 -2.7 2.5 0.7 -0.5 3.5 -2.4 2.2 -2.4 2.2 -1.9 0.3z"/>
  <path d="M222 160.8 c-0.4 -4.1 -0.4 -4.6 -1.1 -5.3 -0.8 -0.8 1.2 -7.5 2.2 -7.5 1.7 0 2.1 8.6 0.6 12.1 l-1.5 3.4 -0.2 -2.7z"/>
  <path d="M60 147.7 c0 -3.4 0.2 -3.7 3 -3.7 2.6 0 2.9 0.3 2.1 1.8 -0.5 0.9 -1.9 2.6 -3 3.6 -2.1 1.9 -2.1 1.9 -2.1 -1.7z"/>
  <path d="M218.7 144.4 c-1 -1 -0.8 -5.6 0.2 -7.3 0.8 -1.2 1.1 -1 1.6 1 0.7 2.7 -0.7 7.4 -1.8 6.3z"/>
  <path d="M215.4 136.2 c0.3 -0.5 -0.4 -2.5 -1.4 -4.5 -2.1 -3.9 -2.6 -7.2 -1.1 -8.1 1.5 -0.9 4.9 8.7 4 11.2 -0.5 1.2 -1.1 2.2 -1.4 2.2 -0.4 0 -0.4 -0.4 -0.1 -0.8z"/>
  <path d="M140.5 116.8 c-0.6 -1.3 -1.6 -2.2 -2.3 -2 -0.7 0.1 -1.2 -0.5 -1.2 -1.3 0 -1 1.1 -1.5 3.5 -1.5 3.3 0 3.5 0.2 3.5 3.5 0 4 -2 4.7 -3.5 1.3z"/>
  <path d="M203.3 113.9 c-1.6 -1.6 -1.7 -5.9 -0.3 -5.9 1.4 0 2.2 2.3 1.8 5 -0.2 1.7 -0.5 1.9 -1.5 0.9z"/>
  <path d="M48.1 105 c0 -0.8 0.8 -3.1 1.9 -5 2.4 -4.5 2.4 -2.8 0 2.5 -1 2.2 -1.9 3.3 -1.9 2.5z"/>
  <path d="M188.7 98.3 c-1 -1.3 -2.2 -2.1 -2.8 -1.8 -0.5 0.4 -0.9 0.1 -0.9 -0.5 0 -0.6 -0.4 -0.9 -0.8 -0.6 -1.3 0.8 -3 -2.7 -2.3 -4.6 0.5 -1.6 1.1 -1.3 4.6 1.7 2.2 1.9 4.6 3.5 5.3 3.5 0.6 0 1.2 1.1 1.2 2.3 0 3 -2.1 3 -4.3 0z"/>
  <path d="M177 90 c0 -0.6 -0.4 -0.9 -0.9 -0.6 -0.5 0.3 -1.2 -0.1 -1.5 -1 -0.4 -0.9 -0.9 -1.4 -1.2 -1.1 -0.8 0.8 -2.8 -1.2 -3.7 -3.6 -0.6 -1.6 -0.4 -1.6 3 -0.2 5.9 2.5 8 5.3 5.3 7 -0.5 0.3 -1 0.1 -1 -0.5z"/>
  <path d="M78.4 82.2 c3.4 -3.5 12.2 -7.2 20.1 -8.6 l4 -0.7 -3.3 3.1 c-1.8 1.7 -3.7 2.8 -4.2 2.5 -0.5 -0.3 -2.6 0.2 -4.7 1.1 -2.1 1 -4.1 1.6 -4.5 1.6 -0.5 -0.1 -0.8 0.2 -0.8 0.7 0 0.5 -1.9 1.2 -4.1 1.6 -2.9 0.5 -3.7 1 -2.8 1.6 1 0.6 0.7 0.8 -0.9 0.6 -2.1 -0.1 -2.1 -0.3 1.2 -3.5z"/>
  <path d="M158.3 80.3 c-0.7 -0.2 -1.3 -1.1 -1.3 -1.9 0 -2.6 4.9 -0.7 5 1.9 0 0.8 -1.8 0.8 -3.7 0z"/>
  <path d="M147.6 77.4 c-0.3 -0.8 -0.2 -2.2 0.2 -3 0.7 -1.3 1 -1.3 1.9 -0.2 0.8 1 0.8 1.8 -0.2 3.1 -1.1 1.6 -1.3 1.6 -1.9 0.1z"/>
  <path d="M113 74.1 c0 -1.2 0.9 -2 2.6 -2.4 l2.5 -0.4 -2.2 2.3 c-2.7 2.9 -2.9 2.9 -2.9 0.5z"/>
  <path d="M127.5 73 c-0.8 -1.2 2 -2.4 3.5 -1.5 0.6 0.3 0.8 1.1 0.5 1.6 -0.8 1.2 -3.2 1.2 -4 -0.1z"/>
 </g>
 <g fill="#195aea">
  <path d="M130.5 261 c4.6 -1.2 12.7 -1.2 12 0 -0.3 0.6 -3.9 0.9 -7.8 0.9 -5.4 -0.1 -6.5 -0.3 -4.2 -0.9z"/>
  <path d="M144 252.5 c0.7 -0.8 1.9 -1.5 2.7 -1.5 2.1 0 12.2 -5.4 12.3 -6.5 0 -0.5 0.9 -2 1.9 -3.2 1.7 -2 2.3 -2.1 5.1 -1.2 3 1.1 9.9 0.8 14.5 -0.5 1.1 -0.4 0.4 0.1 -1.5 1 -1.9 0.9 -6.3 2.1 -9.7 2.7 -8.6 1.4 -8.2 3.2 0.4 2.3 6.6 -0.7 6.7 -0.7 4.9 1.3 -1.9 2.1 -6.8 3.4 -18.9 5.1 -3.9 0.6 -8.5 1.3 -10.1 1.5 -2.4 0.4 -2.7 0.3 -1.6 -1z"/>
  <path d="M98.3 240.7 c-2.5 -0.8 -3.3 -1.7 -3.3 -3.4 0 -1.8 -0.6 -2.3 -2.5 -2.3 -1.8 0 -2.5 -0.5 -2.5 -2 0 -1.1 -0.7 -2 -1.5 -2 -0.9 0 -1.5 -0.9 -1.5 -2.5 0 -1.6 -0.6 -2.5 -1.5 -2.5 -0.8 0 -1.5 -0.4 -1.5 -1 0 -0.5 -0.7 -1 -1.5 -1 -0.8 0 -1.5 -0.9 -1.5 -2 0 -1.3 0.7 -2 1.8 -2 2.4 0.1 4.4 1.8 7.2 6.5 3.7 6 6 8.4 11 11.3 4.4 2.6 11.5 3.8 12.6 2.1 0.3 -0.5 1 -0.7 1.5 -0.4 0.5 0.4 0.9 0.2 0.9 -0.3 0 -0.5 0.9 -1.2 2 -1.5 3.4 -0.9 2.2 1.2 -1.6 2.8 -4.1 1.7 -13.2 1.8 -18.1 0.2z"/>
  <path d="M165.4 234.5 c3.9 -6.1 6.8 -9.5 7.6 -9 0.5 0.3 3 -2.1 5.5 -5.4 4.4 -5.5 5 -5.9 9.8 -6.5 2.9 -0.4 7.9 -1.8 11.1 -3.1 3.3 -1.3 6.2 -2.3 6.4 -2.1 0.7 0.7 -5.5 4.5 -10.7 6.5 -11.7 4.4 -13.4 7.5 -3.6 6.9 5.5 -0.3 6.5 -0.2 6.3 1.2 -0.4 2 -13.6 8.3 -22.8 10.8 -4.1 1.1 -8.4 2.4 -9.5 2.8 -2 0.8 -2 0.8 -0.1 -2.1z"/>
  <path d="M124.7 230.3 c0.4 -1 1.3 -2.8 2.1 -4 0.8 -1.3 1.2 -2.3 0.9 -2.3 -0.4 0 0 -1.7 0.7 -3.7 1.9 -5.6 1.1 -19.5 -1.4 -22.8 -0.4 -0.5 -1 -1.8 -1.3 -2.7 -0.5 -1.4 -0.1 -1.8 1.8 -1.8 2 0 2.5 0.5 2.5 2.4 0 1.3 0.5 2.6 1.1 2.8 2.8 0.9 1.8 27.7 -1.1 28.6 -0.6 0.2 -1 1.5 -1 2.8 0 1.9 -0.5 2.4 -2.5 2.4 -1.9 0 -2.3 -0.4 -1.8 -1.7z"/>
  <path d="M65.5 217.5 c-2.7 -2.4 -4.6 -4.4 -4.1 -4.5 0.5 0 1.7 0.9 2.6 2 2.2 2.5 4 3 13.3 3.8 0.9 0.1 1.7 0.9 1.7 1.7 0 1.1 -1.1 1.5 -4.2 1.5 -3.6 0 -5.1 -0.7 -9.3 -4.5z"/>
  <path d="M190 204 c0 -1.1 0.9 -4.3 1.9 -7.2 3.3 -8.9 4.4 -17.2 3.8 -27.5 -0.5 -9.4 -0.5 -9.7 2 -11.6 1.4 -1.2 4.3 -4.8 6.4 -8 3.2 -4.9 3.9 -5.6 3.9 -3.6 0 1.4 0.5 3 1.1 3.6 0.8 0.8 0.8 1.7 -0.1 3.2 -0.9 1.7 -0.8 2.5 0.5 3.7 1.4 1.5 2 3.9 1.7 7.7 -0.1 0.9 -1.3 3.5 -2.7 5.8 -3.4 5.3 -2.6 7.5 0.8 2.4 l2.7 -4 0 5 c0 4.4 -0.4 5.3 -4.2 9.2 -4.6 4.7 -4.6 6.7 0 3.4 1.6 -1.1 3.2 -1.8 3.5 -1.5 2.5 2.5 -12.2 18 -19.5 20.7 -1.3 0.5 -1.8 0.1 -1.8 -1.3z"/>
  <path d="M35.4 188.5 c-2.2 -7.9 0.3 -37.3 3.8 -43.9 0.9 -1.7 1.3 -1.4 2.8 2.7 1.9 5 7.5 12.7 9.2 12.7 0.6 0 0.8 -0.7 0.4 -1.5 -0.3 -0.8 -0.3 -1.5 0 -1.5 1.5 0 2.4 5.6 1.3 8.7 -1.2 3.6 -2.9 3.6 -2.9 -0.1 0 -1.3 -0.7 -3 -1.6 -3.7 -1.4 -1.1 -1.9 -0.9 -3.5 1.1 -1 1.4 -1.9 3.2 -1.9 4 0 0.9 -1.3 5.8 -2.9 11 -1.6 5.2 -3.1 10.4 -3.4 11.5 -0.3 1.7 -0.5 1.5 -1.3 -1z"/>
  <path d="M119.6 188.2 c-0.3 -0.5 -2.5 -1.9 -5 -3.2 -5.5 -2.8 -5.8 -4 -1.1 -4 1.9 0 3.5 0.5 3.5 1 0 0.6 0.9 1 2 1 1.6 0 2 0.7 2 3 0 3 -0.4 3.7 -1.4 2.2z"/>
  <path d="M68 185.7 c0 -2 3 -5.7 4.6 -5.7 0.3 0 1.2 -0.7 2 -1.5 0.9 -0.8 2.6 -1.5 4 -1.5 1.3 0 2.4 -0.4 2.4 -0.9 0 -1.4 8.4 -3.1 15.4 -3.1 5.8 0 6.6 0.2 6.6 1.9 0 1.6 -0.8 1.8 -6.2 1.7 -3.5 -0.1 -7.9 0.5 -9.8 1.3 -1.9 0.7 -3.7 1.3 -4 1.2 -0.8 -0.2 -7.5 3.3 -7.8 4.2 -0.2 0.4 -1 0.7 -1.8 0.7 -0.8 0 -1.4 0.3 -1.4 0.8 0 0.4 -0.9 1.3 -2 2 -1.8 1.1 -2 1 -2 -1.1z"/>
  <path d="M134.4 177.4 c-0.9 -1.4 -4.2 -4.3 -7.2 -6.5 -5.6 -3.9 -6.4 -5.3 -1.4 -2.2 3.5 2.2 9.1 7.3 10.3 9.6 1.5 2.6 0.2 2 -1.7 -0.9z"/>
  <path d="M96.3 161.3 c0.9 -0.2 2.5 -0.2 3.5 0 0.9 0.3 0.1 0.5 -1.8 0.5 -1.9 0 -2.7 -0.2 -1.7 -0.5z"/>
  <path d="M51.3 146 c1.3 -11.7 9.4 -38 11.8 -38 0.5 0 3.9 -2.5 7.6 -5.5 3.6 -3 8.5 -6.1 10.8 -6.8 l4.2 -1.5 0.6 5.2 c0.3 2.8 0.9 6.5 1.2 8.2 0.6 2.8 0.3 3.3 -6.2 8 -6.4 4.7 -13 11.7 -18.3 19.3 -3.1 4.5 -8 14.1 -8 15.8 0 0.7 -1 1.3 -2.1 1.3 -2.1 0 -2.1 -0.3 -1.6 -6z"/>
  <path d="M189.8 145.9 l-2.8 -6.2 5.8 -6.2 c5 -5.5 5.8 -6.1 6.9 -4.6 0.7 0.9 1.7 2.1 2.3 2.8 0.7 0.9 0.6 2.4 -0.4 5.3 -1.4 4.2 -7.6 15 -8.6 15 -0.3 0 -1.7 -2.8 -3.2 -6.1z"/>
  <path d="M180.5 130.6 c-2.6 -3.5 -6.7 -8.1 -9 -10.1 l-4.4 -3.6 1.9 -3.2 c1 -1.8 2.1 -5.6 2.5 -8.4 0.7 -5.7 1.6 -6.4 3.8 -3.3 0.8 1.1 1.6 1.7 1.9 1.4 0.3 -0.3 4.2 3.1 8.6 7.5 l8 7.9 -0.9 4.4 c-1.2 5.1 -5 13.1 -6.5 13.5 -0.6 0.2 -3.2 -2.5 -5.9 -6.1z"/>
  <path d="M161 112.5 c0 -2.5 -0.3 -4.5 -0.7 -4.5 -0.4 0 -2 1.2 -3.5 2.7 l-2.8 2.7 0 -2.6 c0 -2.1 -0.8 -2.7 -5.5 -4.3 -3 -1.1 -5.5 -2.2 -5.5 -2.5 0 -1 9.1 -13.5 9.8 -13.5 0.4 0 3.3 1.1 6.4 2.5 6.4 2.8 6.5 3.2 4.3 10.6 -1.9 6.4 -1.9 9.3 0.2 11.6 1.5 1.7 1.5 1.8 -0.5 1.8 -1.9 0 -2.2 -0.6 -2.2 -4.5z"/>
  <path d="M95.9 100.9 c4.2 -12 5.2 -13.9 7.6 -13.9 2.2 0 2.2 0.1 0.9 3.7 -2.5 7.2 -1.3 9.9 1.9 4.1 2.8 -5.1 7.5 -9.8 9.7 -9.8 1.8 0 1.9 0.3 0.9 2.1 -1.1 2.1 -0.8 8.7 0.5 12 0.6 1.3 -1 2 -8.1 3.9 -4.8 1.2 -10.3 2.5 -12 2.8 l-3.3 0.4 1.9 -5.3z"/>
  <path d="M126.7 101.3 l-5.8 -0.4 0.7 -3.2 c0.8 -4.1 3.8 -10 5.8 -11.6 1.2 -1 2.9 -1.1 8.4 -0.1 l6.9 1.3 -1.9 3.6 c-1 2 -2.1 5.3 -2.5 7.4 -0.5 3.2 -0.9 3.7 -3.2 3.5 -1.4 -0.1 -5.2 -0.3 -8.4 -0.5z"/>
 </g>
 <g fill="#0c80e2">
  <path d="M100 241 c-0.8 -0.5 -2.5 -1 -3.7 -1 -5.2 0 -15.8 -7.1 -25.7 -17.3 -5.5 -5.6 -8.8 -9.2 -7.4 -7.9 2.9 2.6 7.8 4.2 13.1 4.2 5.9 0 10.3 2.3 13.3 7.2 10.5 17 24.4 19.5 33.8 5.9 10.4 -15 7.8 -37.1 -5.4 -45.1 -4 -2.4 -8.2 -5.2 -12.8 -8.6 -1.3 -0.9 -4.5 -1.9 -7.3 -2.2 -9.5 -0.9 -20.9 3.8 -30.3 12.7 l-6 5.6 2.4 -4 c5.2 -8.8 8.7 -12.8 14 -16 10.5 -6.3 20 -7.8 31.3 -4.9 15.7 4 22.6 11.2 26.3 27 2.5 10.9 2.2 19.9 -0.7 26.4 -3 6.4 -11.1 14.3 -17.7 17.1 -4.7 2 -14.7 2.5 -17.2 0.9z"/>
 </g>
 <g fill="#2d6cf2">
  <path d="M166 234.9 c0 -0.6 1.4 -3.1 3.1 -5.6 2.6 -3.7 3 -4.9 2.1 -6.7 -0.8 -1.8 -0.6 -3 1 -5.4 1.1 -1.7 2.2 -4.6 2.4 -6.4 0.6 -3.8 2.4 -7.8 3.6 -7.8 1.4 0 0.9 6.7 -0.7 8 -2.7 2.2 -1.6 3 4 3 3.3 0 5.5 0.4 5.5 1.1 0 1.9 -8.6 12.3 -13.8 16.7 -5.1 4.2 -7.2 5.1 -7.2 3.1z"/>
  <path d="M181 206.7 c0 -1.4 0.9 -4.7 2.1 -7.4 4.2 -9.6 5.1 -13.9 5.4 -24.6 l0.3 -10.7 4.3 -3 4.4 -2.9 0.8 2.7 c1.2 4 1.1 22 -0.2 27.7 -0.6 2.8 -1.9 7.4 -2.8 10.4 -1.6 4.7 -2.3 5.6 -5.8 7.2 -7.6 3.3 -8.5 3.3 -8.5 0.6z"/>
  <path d="M143.3 202.5 c0 -2.2 0.2 -3 0.4 -1.7 0.2 1.2 0.2 3 0 4 -0.3 0.9 -0.5 -0.1 -0.4 -2.3z"/>
  <path d="M175.8 195.3 c-0.6 -2.8 0.2 -5.3 1.8 -5.3 0.9 0 1.4 1.1 1.4 3.5 0 3.7 -2.4 5 -3.2 1.8z"/>
  <path d="M177.2 185.3 c0.2 -2.3 -0.1 -2.9 -2 -3.1 -1.6 -0.3 -2.2 -0.8 -1.8 -1.9 0.3 -0.8 0.6 -1.9 0.6 -2.4 0 -0.5 0.7 -0.9 1.5 -0.9 0.8 0 1.5 0.9 1.5 2 0 1.3 0.7 2 2 2 1.6 0 2 0.7 2 3.5 0 2.9 -0.4 3.5 -2.1 3.5 -1.6 0 -2 -0.5 -1.7 -2.7z"/>
  <path d="M126.5 170.4 l-3 -2.6 3.3 1.6 c1.7 0.9 3.2 2.1 3.2 2.6 0 1.3 -0.1 1.3 -3.5 -1.6z"/>
  <path d="M175.8 170.8 c0 -0.7 -0.2 -2.4 -0.4 -3.8 -0.9 -9 -1.5 -13.3 -2 -14.1 -0.3 -0.5 0.6 -0.9 1.9 -0.9 2.2 0 2.5 0.5 3 6.8 1.1 10.6 0.9 13.2 -0.8 13.2 -0.8 0 -1.6 -0.6 -1.7 -1.2z"/>
  <path d="M50.7 165.2 c-0.3 -1.5 -0.9 -3.5 -1.2 -4.5 -0.5 -1.2 -0.3 -1.6 0.6 -1.2 1.1 0.4 1.4 -0.9 1.4 -5.7 0 -4.6 0.6 -7.6 2.4 -11.3 3.3 -6.8 8.9 -14.9 14.5 -21.1 4.7 -5.3 18.1 -15.2 19.2 -14.2 0.3 0.3 0.8 3 1.1 6 l0.5 5.4 -6.6 5.3 c-6.7 5.3 -8.5 7.3 -4.3 4.8 1.2 -0.8 5.1 -2.5 8.7 -3.7 3.6 -1.3 6.7 -2.7 7 -3.1 0.3 -0.3 2.9 -1 5.8 -1.4 3.2 -0.4 5.2 -1.2 5.2 -2 0 -2.1 2.8 -2.6 10.7 -1.9 6 0.6 8.1 0.3 11.6 -1.2 2.3 -1 4.6 -2.4 5 -3.1 0.4 -0.7 2 -1.3 3.5 -1.4 l2.7 0 -2.5 -1.1 c-4.7 -2 -20.8 -1.4 -29 1.1 -4.1 1.3 -7.9 2.7 -8.4 3.2 -1.1 1 -6.6 1.3 -6.6 0.3 0 -0.3 0.7 -3 1.6 -6 l1.5 -5.4 6.7 -1.9 c3.7 -1.1 8.6 -2.3 11 -2.7 3.9 -0.6 4.4 -0.4 4.9 1.5 0.7 2.7 3.3 2.8 3.3 0.1 0 -1.8 0.7 -2 6.3 -2 8.4 0 10.7 0.8 10.7 3.4 0 5.4 2.2 8.5 3.5 4.9 0.3 -1 1.2 -2.6 1.9 -3.6 1.3 -1.7 1.6 -1.7 7.2 0.4 3.3 1.2 6.4 2.6 7.1 3.1 1.8 1.4 -2.4 7.4 -6.7 9.4 -1.9 0.9 -4.7 2.3 -6.2 3.1 -3.5 1.8 -3.8 1.7 -3.8 -1.1 0 -3.5 -1.9 -3.7 -7 -0.8 -6.4 3.7 -14.6 5.5 -16.4 3.6 -2.2 -2.1 -5.4 -1.7 -11.3 1.6 -2.9 1.6 -6.1 3 -7.1 3 -1 0 -4.2 1.1 -7 2.5 -2.9 1.4 -5.7 2.5 -6.3 2.5 -5.7 0 -25.1 18.5 -29.9 28.5 -1.7 3.5 -3 6.8 -3 7.3 0 2.4 -1.8 2 -2.3 -0.6z"/>
  <path d="M99.8 161.3 c1.2 -0.2 3.2 -0.2 4.5 0 1.2 0.2 0.2 0.4 -2.3 0.4 -2.5 0 -3.5 -0.2 -2.2 -0.4z"/>
  <path d="M186 156.3 c-2.6 -8.1 -9.4 -19.5 -15.5 -26.1 l-6.3 -6.7 -0.7 4 c-1.2 7.8 -1.5 8.5 -3.3 8.5 -1.6 0 -1.7 -0.6 -1 -5.7 1.7 -14 2.1 -16.3 2.4 -16.3 0.3 0 1.3 0.6 2.4 1.2 1.6 1 2.4 1 4.1 0 1.8 -1.1 2.4 -1.1 4.2 0.5 4.1 3.4 9.4 9.2 13 14.1 3.2 4.5 3.4 5.1 1.9 6.6 -1.9 1.9 -0.9 3.4 1.2 1.7 1.2 -1 1.8 -0.6 3.4 2.6 3.6 7 3.6 7.9 0 13.8 -1.8 3 -3.6 5.5 -4 5.5 -0.3 0 -1.2 -1.7 -1.8 -3.7z"/>
  <path d="M167.5 151.3 c-0.7 -3.1 -2.8 -9.9 -4 -12.5 -0.6 -1.5 -0.2 -1.8 1.8 -1.8 2.2 0 2.8 0.7 3.6 3.8 0.6 2 1.1 4.9 1.1 6.5 0 1.5 0.5 2.7 1 2.7 1.7 0 1.1 1.9 -1 3 -1.7 0.9 -2 0.7 -2.5 -1.7z"/>
 </g>
 <g fill="#3d7bf7">
  <path d="M172 219 c0 -1.1 0.4 -2 0.9 -2 1.6 0 3.4 -10.1 3.7 -20.5 0.1 -5.5 0.4 -10.9 0.6 -12 0.2 -1.4 -0.3 -2.1 -1.8 -2.3 -2.1 -0.3 -2.2 -0.4 -0.7 -6 1 -3.8 1.3 -7.5 0.8 -11.2 -0.3 -3 -0.8 -6.7 -0.9 -8.2 -0.3 -3.5 -1.1 -4.3 -4.4 -4.3 -2.3 0 -2.6 -0.5 -3.7 -5.5 -1.2 -6.1 -4 -11 -6.2 -11 -1.2 0 -1.3 -1 -0.7 -5.6 0.3 -3 1.2 -7.4 1.9 -9.7 l1.3 -4.2 8.5 8.6 c6.9 7.1 9.4 10.5 13.2 18.2 4.8 9.6 5.5 12.9 4.1 17.9 -0.6 2.2 -0.5 2.6 1.1 2.5 1.7 -0.2 1.8 0.8 1.8 11.8 -0.1 12.3 -0.7 15.1 -5.2 26.2 -2.1 5 -3.3 6.6 -6.1 8 -4 2 -5.2 4 -2.6 4.5 1.5 0.3 1.3 0.8 -1 3.6 -3.2 3.7 -4.6 4.1 -4.6 1.2z m9 -50.9 c-0.6 -3.9 -1.3 -7.1 -1.5 -7.1 -0.3 0 0.2 16.9 0.5 18 0.1 0.3 0.6 -0.5 1.2 -1.6 0.7 -1.6 0.7 -4.3 -0.2 -9.3z m-7 -20.8 c0 -0.5 -0.9 -1.9 -2 -3.3 -1.5 -1.9 -2 -2.1 -2 -0.8 0 2.7 1.1 4.8 2.6 4.8 0.8 0 1.4 -0.3 1.4 -0.7z"/>
  <path d="M60 147.6 c0 -2.5 4.2 -9.6 9.8 -16.8 4.2 -5.5 16.3 -15.8 18.5 -15.8 0.5 0 0.7 1.3 0.4 3 -1 4.7 1.1 3.5 2.3 -1.3 1.2 -4.7 2.3 -5.5 13.5 -8.9 5.6 -1.8 9.5 -2.2 19.7 -2.3 8.9 0 13.1 0.4 14 1.3 0.6 0.6 2.1 1.2 3.1 1.2 3.1 0 11.7 3.4 11.7 4.6 0 1.1 -9.2 6.4 -11.1 6.4 -0.5 0 -0.9 -0.9 -0.9 -2 0 -2.5 -2.7 -3.7 -4.9 -2.2 -3.6 2.6 -7.9 4.6 -12.3 5.8 -3.9 1 -4.9 1 -5.9 -0.2 -1.9 -2.3 -6.8 -1.6 -12.2 1.7 -2.7 1.6 -5.6 2.8 -6.4 2.4 -0.9 -0.3 -2.1 -0.1 -2.8 0.5 -0.6 0.5 -4.1 2.1 -7.6 3.4 -6.7 2.5 -13.6 6.1 -15.5 8 -8.1 8.4 -13.4 12.8 -13.4 11.2z"/>
 </g>
 <g fill="#508cfc">
  <path d="M86 223.5 c-1.3 -1.4 -3.1 -2.5 -3.9 -2.6 -1 0 -1.1 -0.3 -0.4 -0.5 1.7 -0.7 5 1.3 6.3 3.6 1.4 2.7 0.8 2.5 -2 -0.5z"/>
  <path d="M177.4 195.5 c-0.3 -2 -0.2 -5.4 0.4 -7.7 1.1 -4.4 0.3 -6.8 -2.3 -6.8 -1.1 0 -1.1 -0.9 -0.1 -4.7 1 -3.7 1 -7.1 0.2 -14.8 l-1.1 -10 -3.2 0.2 c-3 0.3 -3.2 0.1 -4.2 -4.8 -1.3 -6.1 -3.5 -10.5 -5.6 -11.3 -1.2 -0.4 -1.5 -1.6 -1.2 -4.6 0.2 -2.2 0.7 -4.3 1.1 -4.7 1 -1 10.7 9.7 14.5 16.2 7.2 11.9 10.2 26.5 8.2 39.4 -1.3 8.9 -3.8 17.1 -5.1 17.1 -0.5 0 -1.2 -1.6 -1.6 -3.5z"/>
  <path d="M84.5 126.4 c5 -4.4 18.2 -10.9 25.3 -12.3 6.5 -1.3 24.2 -1.5 24.2 -0.2 0 1.6 -5.3 4.7 -10 5.9 -3.7 0.9 -4.7 0.8 -6.2 -0.5 -2.3 -2.1 -7.3 -1.2 -12.8 2.2 -2.2 1.4 -4.9 2.5 -5.8 2.4 -0.9 -0.1 -3.5 0.6 -5.7 1.6 -2.2 0.9 -6 2.3 -8.5 3.1 l-4.5 1.3 4 -3.5z"/>
 </g>
</svg>