<?xml version="1.0" standalone="no"?>
<!DOCTYPE svg PUBLIC "-//W3C//DTD SVG 20010904//EN"
 "http://www.w3.org/TR/2001/REC-SVG-20010904/DTD/svg10.dtd">
<svg version="1.0" xmlns="http://www.w3.org/2000/svg"
 width="169.000000pt" height="170.000000pt" viewBox="0 0 169.000000 170.000000"
 preserveAspectRatio="xMidYMid meet">

<g transform="translate(0.000000,170.000000) scale(0.100000,-0.100000)"
fill="#000000" stroke="none">
<path fill="black" d="M745 1514 c-160 -26 -281 -88 -396 -204 -140 -140 -203 -291 -202
-490 0 -124 19 -201 75 -311 84 -165 221 -282 404 -346 70 -24 94 -27 209 -28
109 0 142 4 205 23 184 58 338 188 420 356 55 112 73 191 73 311 0 195 -64
346 -203 485 -93 94 -173 142 -295 180 -69 21 -226 34 -290 24z m230 -69 c206
-43 395 -209 465 -409 93 -265 3 -556 -225 -724 l-60 -44 -13 33 c-24 58 -50
180 -77 354 -47 315 -64 367 -135 428 -43 36 -75 47 -145 47 -63 0 -92 -41
-73 -104 9 -29 8 -39 -7 -62 -18 -27 -17 -27 11 -48 65 -47 95 -80 121 -134
27 -56 28 -60 26 -215 -2 -161 -11 -233 -39 -327 l-15 -52 -53 6 c-206 26
-393 160 -486 349 -123 250 -75 535 125 733 152 151 367 213 580 169z m-100
-400 c0 -22 -22 -30 -44 -16 -21 14 -5 43 21 39 15 -2 23 -10 23 -23z"/>
<path fill="red" d="M445 1110 c-6 -9 12 -25 108 -91 63 -43 81 -51 95 -43 9 6 17 19 16
28 0 9 -1 35 -2 59 l-2 44 -52 -5 c-29 -2 -77 0 -106 6 -29 5 -54 6 -57 2z"/>
</g>
</svg>
