<?xml version="1.0" encoding="utf-8"?>
<!DOCTYPE svg PUBLIC "-//W3C//DTD SVG 1.0//EN" "http://www.w3.org/TR/2001/REC-SVG-20010904/DTD/svg10.dtd">
<svg version="1.0" xmlns="http://www.w3.org/2000/svg" width="581px" height="583px" viewBox="0 0 581 583" preserveAspectRatio="xMidYMid meet">
 <g fill="#000000">
  <path d="M578.3 292.5 C 578.3 451.4 449.4 580.3 290.5 580.3 131.6 580.3 2.7 451.4 2.7 292.5 2.7 133.6 131.6 4.7 290.5 4.7 449.4 4.7 578.3 133.6 578.3 292.5 Z M276 579.9  M540.1 292.5 C 540.1 154.7 428.3 42.9 290.5 42.9 152.7 42.9 40.9 154.7 40.9 292.5 40.9 430.3 152.7 542.1 290.5 542.1 428.3 542.1 540.1 430.3 540.1 292.5 Z M315.1 541 "/>
  <path d="M 311 511.9 c -10.6 -6.4 -13.9 -15.2 -9.2 -24.6 2.5 -4.8 11 -9.7 18.7 -10.8 8.2 -1.1 24.4 -5.4 34 -9 74.1 -27.5 123.5 -98.1 123.5 -176.5 0 -71.4 -41 -137 -105.5 -168.8 -57.4 -28.3 -126.1 -25 -180.7 8.6 -24.1 14.8 -47.2 37.9 -62 62 -12.3 20 -22.8 48.3 -25.4 68.2 -1 8 -4.7 14.5 -10 17.6 -5.1 3 -11.6 3.4 -16.1 1 -3.8 -1.9 -10.1 -8.9 -10.9 -12 -0.9 -3.6 2.2 -21.9 6.1 -36 21.6 -78.5 83.7 -139 162.5 -158.5 17.6 -4.3 33.2 -6.1 54 -6.1 20.8 0 36.4 1.8 54 6.1 79.3 19.6 142.3 81.5 162.9 160.1 5.8 22.1 6.6 28.9 6.6 57.8 0 28.9 -0.8 35.7 -6.6 57.8 -22 83.9 -92.2 148.4 -177.8 163.2 -14 2.5 -13.8 2.5 -18.1 -0.1 z "/>
  <path d="M 245 511 c -74.9 -15.1 -138.2 -69.1 -165.2 -140.8 -6 -16 -10.9 -36.1 -11.5 -47.3 -0.5 -8.7 -0.3 -10.2 1.6 -14.3 1.3 -2.5 2.9 -4.6 3.7 -4.6 0.8 0 2.9 -0.7 4.6 -1.6 3.9 -2 10.7 -2 14.6 0 6.8 3.5 9 8.3 14.6 32.8 12.4 53.2 49.8 99.8 100 124.5 12.8 6.4 25.1 10.7 38.4 13.8 25.6 6 32.4 10.6 32.4 22 0 13.9 -12.4 19.7 -33.2 15.5 z "/>
  <path d="M 263.5 449.5 c -14.2 -2.3 -28.7 -6.7 -43 -13 -6.4 -2.8 -17 -8.9 -19.5 -11.2 -0.8 -0.7 -2.8 -2.3 -4.4 -3.5 -5.8 -4.3 -7.3 -14 -3.4 -21 3.1 -5.5 7.9 -8.2 14.8 -8.3 4.7 0 6.3 0.5 11 3.6 12.6 8.3 29.1 15.1 45 18.6 11.8 2.5 37.2 2.5 49 0 31.4 -6.8 59.4 -24.8 78 -50.1 9.6 -13.1 17.9 -32.2 21.7 -49.6 2.5 -11.8 2.5 -37.2 0 -49 -6.8 -31.4 -24.8 -59.4 -50.1 -78 -13.1 -9.6 -32.2 -17.9 -49.6 -21.7 -11.8 -2.5 -37.2 -2.5 -49 0 -24.4 5.3 -45 16.1 -62.4 32.7 -19.2 18.3 -31.6 40.6 -37.3 67 -2.5 11.8 -2.5 37.2 0 49 3.4 15.8 10.3 32.4 18.5 44.8 4.6 7 5.2 12.5 2.2 18.6 -3.9 8.2 -13.8 11.8 -22.3 8.3 -9.2 -3.9 -23.8 -31.3 -30.3 -56.7 -5.9 -23.5 -5.9 -55.5 0 -79 7.1 -27.7 20.7 -52 41 -72.8 20.8 -21.4 46.8 -36.5 75.6 -43.8 23.5 -5.9 55.5 -5.9 79 0 28.8 7.3 54.8 22.4 75.6 43.8 30.2 31 45.4 68.5 45.4 112.3 0 43.8 -15.2 81.3 -45.4 112.3 -24.7 25.4 -55.8 41.4 -91.1 46.8 -11.1 1.7 -38.1 1.6 -49 -0.1 z "/>
  <path d="M 267.3 393.5 c -32 -5.8 -59.8 -26.7 -74 -55.5 -20.2 -40.9 -11.6 -90.5 21 -121.7 9 -8.6 15.5 -13.2 26.2 -18.6 25.5 -12.8 57 -14.2 84.8 -3.7 10.5 4 17.9 13.7 16.9 22.4 -0.5 3.7 -12.8 16.1 -16.9 16.9 -1.9 0.4 -5 -0.4 -9.3 -2.3 -11.6 -5.1 -17.7 -6.4 -29 -6.4 -12 0 -21 2.2 -32.2 8.1 -31.6 16.5 -43.9 57.2 -27.1 89.6 4.7 9.2 17.2 21.9 26.3 27 10.9 5.9 19.8 8.2 32.5 8.1 12.8 -0.1 22.7 -2.8 33.4 -9.1 27.3 -16.1 39.7 -49.2 29.6 -78.8 -1.8 -5.5 -2.8 -10.3 -2.9 -15.2 -0.1 -7.2 -0.1 -7.2 4.7 -12.1 5.8 -5.9 9.8 -6.8 18.5 -4.6 7.4 1.9 9.6 4.2 13.1 13.3 13.1 33.9 9.3 69.2 -10.5 98.7 -15.3 22.8 -40.7 39.1 -68.3 43.9 -10.1 1.8 -27 1.8 -36.8 0 z "/>
  <path d="M331.2 292 C 331.2 316.4 311.4 336.2 287 336.2 262.6 336.2 242.8 316.4 242.8 292 242.8 267.6 262.6 247.8 287 247.8 311.4 247.8 331.2 267.6 331.2 292 Z M274.4 334.5 "/>
  <path d="M 355.5 222.1 c -0.3 -0.5 -0.1 -1.2 0.4 -1.5 1.2 -0.8 4.1 0.3 4.1 1.5 0 1.2 -3.7 1.2 -4.5 0 z "/>
 </g>
</svg>