<?xml version="1.0" encoding="UTF-8" standalone="no"?>
<!DOCTYPE svg PUBLIC "-//W3C//DTD SVG 1.1//EN" "http://www.w3.org/Graphics/SVG/1.1/DTD/svg11.dtd">
<svg width="100%" height="100%" viewBox="0 0 6729 9162" version="1.1" xmlns="http://www.w3.org/2000/svg" xmlns:xlink="http://www.w3.org/1999/xlink" xml:space="preserve" xmlns:serif="http://www.serif.com/" style="fill-rule:evenodd;clip-rule:evenodd;stroke-linejoin:round;stroke-miterlimit:2;">
    <g transform="matrix(4.16667,0,0,4.16667,-5092,-2379)">
        <g id="Birb">
            <path d="M2474.46,1484.99C2465.59,1378.14 2389.45,1324.04 2292.86,1331.37C2395.44,1345.39 2445.17,1419.59 2440.68,1502.45C2438.25,1547.34 2419.9,1594.77 2385.43,1636.55C2314.62,1722.4 2178.63,1758.98 2062.82,1774.23C2438.88,1801.59 2707.01,1408.58 2497.72,1152.21C2453.38,1097.92 2336.38,1045.61 2307.02,1007.48C2345.87,1086.28 2494.06,1158.62 2500.65,1338.36C2501.9,1372.41 2490.99,1464.69 2474.46,1484.99Z" style="fill:rgb(35,31,32);fill-rule:nonzero;stroke:white;stroke-width:0.24px;"/>
            <path d="M1650.59,2195.66C1637.19,2202.75 1606.89,2238.17 1594.99,2251.62C1558.85,2292.44 1526.37,2261.45 1535.07,2237.5C1546.74,2205.36 1663.86,2173.89 1681.2,2159.61C1616.56,2166.79 1460.22,2197.46 1478.2,2287.95C1487.22,2333.33 1544.53,2337.42 1579.41,2292.8L1650.59,2195.66ZM1727.74,2144.84C1646.84,2149.79 1557.66,2136.74 1475.7,2183.47C1294.74,2286.64 1495.51,2530.37 1610.98,2318.84C1636.93,2271.3 1654.4,2224.3 1691.15,2183.04C1701.68,2171.23 1721.63,2159.46 1727.74,2144.84Z" style="fill:rgb(35,31,32);fill-rule:nonzero;stroke:white;stroke-width:0.24px;"/>
            <path d="M1613.21,1866.27C1612.7,1853.57 1613.45,1846.91 1621.43,1840.63C1648.98,1818.97 1672.58,1855.12 1684.77,1877.25C1711.72,1926.14 1756.52,1939.05 1762.2,1944.33C1740.83,1911.61 1686.78,1823.55 1665.84,1802.33C1647.93,1784.17 1604.35,1766.17 1582.21,1793.04C1564.02,1815.11 1570.1,1848.62 1613.21,1866.27ZM1817.76,1979.8L1783.57,1945.87C1726.82,1890.49 1704.61,1774.03 1635.77,1738.66C1519.28,1678.79 1424.03,1882.2 1595.93,1917.65C1684.44,1935.9 1672,1917.88 1769.64,1956.87C1787.15,1963.87 1801.94,1973.89 1817.76,1979.8Z" style="fill:rgb(35,31,32);fill-rule:nonzero;stroke:white;stroke-width:0.24px;"/>
            <path d="M2463.61,2176.41C2459.3,2218.92 2445.2,2267.89 2445.93,2309.19C2448.08,2431.02 2590.86,2393.68 2518.83,2272.74L2463.61,2176.41ZM2462.09,2147.34C2447.19,2212.96 2417.39,2273.56 2408.82,2341.3C2398.1,2426.08 2445.86,2489.7 2521.72,2465.6C2584.68,2445.61 2597.26,2365.61 2561.23,2298.63C2539.88,2258.93 2511.74,2227.06 2485.03,2187.29C2476.62,2174.77 2472.1,2157.32 2462.09,2147.34Z" style="fill:rgb(35,31,32);fill-rule:nonzero;stroke:white;stroke-width:0.24px;"/>
            <path d="M1856.07,2603.23C1870.94,2650.78 1772.39,2678.28 1726.66,2604.82C1659.68,2497.24 1747.83,2373.41 1834.15,2309.07L1967.17,2220C1891.26,2255.13 1828.58,2263.27 1746.15,2326.07C1695.07,2365 1625.85,2443.43 1645.29,2547.09C1663.08,2641.94 1762.3,2700.51 1833.61,2669.35C1851.34,2661.6 1869.05,2646.31 1874.06,2626.94C1893.64,2551.36 1787.39,2558.92 1809.26,2607.2C1825.59,2643.24 1855.98,2603.27 1856.07,2603.23Z" style="fill:rgb(35,31,32);fill-rule:nonzero;stroke:white;stroke-width:0.24px;"/>
            <path d="M1481.18,1919.37C1448.53,1896.01 1414.32,1841.3 1407.87,1793.66C1399.13,1729.17 1432.47,1677.16 1470.37,1655.65C1580.04,1593.39 1705.07,1683.37 1742.66,1749.69C1729.72,1703.11 1671.1,1633.12 1624.43,1605.2C1427.92,1487.65 1253.01,1718.07 1403.15,1866.2C1421.17,1883.97 1454.11,1910.89 1481.18,1919.37Z" style="fill:rgb(35,31,32);fill-rule:nonzero;stroke:white;stroke-width:0.24px;"/>
            <path d="M2063.73,2381.84C2047.71,2406.12 2017.58,2431.73 1996.29,2448.67C1982.13,2459.93 1937.72,2507.4 1970.44,2537.17C1983.6,2549.14 2002.97,2549.23 2018.69,2539.2C2044.68,2522.62 2042.7,2471.63 2051.43,2435.36C2055.01,2420.48 2062.15,2396.2 2063.73,2381.84ZM2070,2371.71C2019.85,2404.13 1952.07,2440.88 1922.11,2488.01C1845.77,2608.06 2024.48,2693.12 2063.45,2566.67C2079.06,2515.98 2060.35,2432.99 2070,2371.71Z" style="fill:rgb(35,31,32);fill-rule:nonzero;stroke:white;stroke-width:0.24px;"/>
            <path d="M1768.62,1553.88C1771.99,1549.05 1772.15,1537.57 1782.77,1533.45C1791.78,1529.95 1801.15,1533.43 1806.27,1539.85C1827.63,1566.67 1766.56,1626.44 1820.08,1710.01C1818.82,1673.22 1810.04,1686.44 1817.25,1622.15C1820.21,1595.77 1831.84,1562.31 1829.85,1536.95C1825.16,1477.45 1763.62,1481.59 1756.67,1518.89C1753.54,1535.65 1763.29,1545.6 1768.62,1553.88ZM1843.4,1759.21C1831.39,1720.34 1824.33,1707.17 1828.24,1658.96C1831.26,1621.79 1841.15,1593.09 1850.64,1558.8C1872.1,1481.27 1809.85,1412.82 1742.57,1453.51C1656.2,1505.75 1737.53,1637.22 1784.34,1695.19C1798.02,1712.13 1827.96,1746.8 1843.4,1759.21Z" style="fill:rgb(35,31,32);fill-rule:nonzero;stroke:white;stroke-width:0.24px;"/>
            <path d="M2310.06,2307.48C2302.45,2361.94 2259.25,2410.37 2262.35,2451.58C2265.78,2497.17 2320.51,2497.6 2335.23,2469.45C2348.59,2443.89 2326.5,2354.2 2317.34,2321.48L2310.06,2307.48ZM2314.14,2281.7C2301.1,2304.48 2291,2331.81 2277.68,2355.14C2263.62,2379.76 2249.75,2398.94 2236.75,2424.78C2209.85,2478.24 2216.07,2557.98 2285.8,2565.86C2354.87,2573.66 2385.42,2509.84 2371.99,2445.29C2365.36,2413.4 2328.78,2322.81 2314.14,2281.7Z" style="fill:rgb(35,31,32);fill-rule:nonzero;stroke:white;stroke-width:0.24px;"/>
            <path d="M2095.68,1471.47C2131.96,1437.42 2165.23,1403.7 2229.33,1403.92C2342.37,1404.32 2386.43,1538.96 2281.97,1632.18C2257.56,1653.96 2190.82,1691.46 2142.48,1691.81C2189.31,1694.41 2212.16,1696.23 2254.17,1681.14C2343.76,1648.96 2426.94,1554.7 2391.43,1454.56C2371.37,1397.98 2312.29,1348.74 2236.07,1359.1C2172.82,1367.69 2111.73,1423.28 2095.68,1471.47Z" style="fill:rgb(35,31,32);fill-rule:nonzero;stroke:white;stroke-width:0.24px;"/>
            <path d="M1649.72,2350.14C1679.6,2315.57 1689.32,2298.61 1728.58,2268.93C1824.72,2196.24 1934.52,2160.44 2050.29,2113.41C2150.87,2072.55 2274.64,2010.03 2359.96,1946.13C2381.15,1930.26 2435.82,1889.91 2444.73,1871.66C2371.47,1921.16 2339.29,1951.99 2255.47,2000.56C2188.25,2039.51 2117.4,2073.39 2034.08,2097.23C1908.96,2133.03 1788.34,2131.53 1703.69,2243.9C1684.45,2269.45 1659.31,2312.03 1649.72,2350.14Z" style="fill:rgb(35,31,32);fill-rule:nonzero;stroke:white;stroke-width:0.24px;"/>
            <path d="M1522.07,2006.6C1443.05,2012.16 1383.72,2055.15 1350.49,2043.84C1307.7,2029.27 1300.89,1941.88 1391.54,1929.52C1370.67,1901.92 1303.28,1900.24 1265.59,1950.59C1206.96,2028.93 1293.42,2164.63 1413.33,2081.39C1443.69,2060.31 1458.12,2045.92 1493.43,2025.24C1501.37,2020.58 1518.04,2015.09 1522.07,2006.6Z" style="fill:rgb(35,31,32);fill-rule:nonzero;stroke:white;stroke-width:0.24px;"/>
            <path d="M1622.23,1551.68C1626.35,1536.9 1610.22,1476.97 1652.96,1432.18C1685.16,1398.44 1713.74,1382.57 1766.54,1385.47C1814.52,1388.11 1848.56,1413.89 1867.9,1441.26C1893.67,1477.69 1896.31,1519.07 1896.69,1572.01C1928.74,1525.65 1925.75,1335.65 1766.49,1328.28C1681.6,1324.36 1611.48,1386.91 1606.05,1466.8C1603.37,1506.2 1611.61,1521.82 1622.23,1551.68Z" style="fill:rgb(35,31,32);fill-rule:nonzero;stroke:white;stroke-width:0.24px;"/>
            <path d="M2108.38,1025.11C2127.43,1015.23 2142.76,992.42 2187.49,989.62C2175.27,979.48 2167.47,979.92 2149.74,971.2C2183,960.34 2277.96,963.36 2278.82,870.13C2311.88,894.68 2315.78,953.88 2247.76,981.66L2236.79,987.61C2363.15,974.54 2343.85,838.36 2243.18,830.64C2190.85,826.63 2158.76,856.55 2144.76,893.07C2128.79,934.73 2149.05,940.69 2130.9,961.55C2116.31,978.32 2110.87,996.77 2108.38,1025.11Z" style="fill:rgb(35,31,32);fill-rule:nonzero;stroke:white;stroke-width:0.24px;"/>
            <path d="M2659.71,1552.99C2652.76,1601.46 2634.12,1667.19 2632.1,1693.17C2622.28,1819.53 2735.48,1806.33 2736.21,1733.05C2736.53,1700.29 2702.36,1649.04 2685.18,1615.22C2672.78,1590.79 2669.16,1563.47 2659.71,1552.99Z" style="fill:rgb(35,31,32);fill-rule:nonzero;stroke:white;stroke-width:0.24px;"/>
            <path d="M2097.94,1710.25C2097.87,1631.86 2109.24,1595.3 2151.28,1549.98C2177.4,1521.82 2220.3,1493.32 2262.43,1518.25C2274.4,1525.33 2277.66,1537 2285.79,1548.88C2311.06,1435.28 2193.68,1429.93 2139,1486.54C2092.5,1534.67 2064.6,1627.63 2097.94,1710.25Z" style="fill:rgb(35,31,32);fill-rule:nonzero;stroke:white;stroke-width:0.24px;"/>
            <path d="M2597.22,1422.57C2616.11,1388.89 2620.05,1299.97 2613.95,1254.86C2601.22,1160.82 2542.37,1054.15 2483.29,987.71C2459.5,960.96 2411.88,913.31 2383,890.18C2433.97,955.68 2500.6,1033.17 2532.21,1112.05C2583.39,1239.79 2591.99,1277.18 2597.22,1422.57Z" style="fill:rgb(35,31,32);fill-rule:nonzero;stroke:white;stroke-width:0.24px;"/>
            <path d="M2045.93,1916.65C1991.79,1909.66 1892.56,1893.25 1843.65,1871.85L1845.12,1856.91C1868.23,1848.59 1873.84,1855.45 1894.21,1863.3C1877.53,1835.28 1852.68,1792.94 1810.87,1808.67C1771.61,1823.45 1770.25,1874.15 1800.18,1903.76C1849.46,1952.53 2016.88,1912.58 2045.93,1916.65Z" style="fill:rgb(35,31,32);fill-rule:nonzero;stroke:white;stroke-width:0.24px;"/>
            <path d="M1952.01,2402.18C1997.92,2363.12 2023.46,2304.7 2053.03,2252.46C2100.65,2168.34 2094.54,2182.87 2140.57,2118.5C2146.73,2109.9 2151.97,2107.6 2155.47,2099C2102.14,2138.51 2061.85,2167.37 2020.03,2216.79C1964.85,2282.02 1960.84,2326.09 1952.01,2402.18Z" style="fill:rgb(35,31,32);fill-rule:nonzero;stroke:white;stroke-width:0.24px;"/>
            <path d="M2248.82,2179.21C2260.53,2178.07 2253.6,2177.87 2257.65,2176.02C2268.32,2171.16 2257.68,2171.44 2263.36,2173.38C2268.12,2184.44 2261.9,2189.37 2256.03,2198.89C2172.84,2207.32 2260.14,2067.62 2276.4,2043.32C2252.7,2062.53 2216.14,2088.27 2205.67,2121.26C2184.35,2188.47 2245.63,2273.09 2291.89,2227.26C2328.59,2190.9 2279.43,2145.09 2293.99,2033.95C2276.85,2066.67 2262.71,2104.54 2251.42,2141.42C2246.17,2158.59 2241.34,2164.59 2248.82,2179.21Z" style="fill:rgb(35,31,32);fill-rule:nonzero;stroke:white;stroke-width:0.24px;"/>
            <path d="M2022.83,2013.1C2105.5,2014.34 2128.34,2018.54 2195.43,1983.17L2332.02,1914.43C2305.86,1917.2 2272.33,1924.89 2243.5,1928.79C2176.96,1937.78 2141.56,1937.51 2080.99,1970.83C2072.08,1975.72 2025.57,2005.69 2022.83,2013.1Z" style="fill:rgb(35,31,32);fill-rule:nonzero;stroke:white;stroke-width:0.24px;"/>
            <path d="M1428.68,2148.13C1494.69,2116.14 1511.29,2107.61 1593.86,2100.91C1665.39,2095.11 1733.53,2103.23 1803.79,2101.72C1790.23,2096.32 1769.25,2094.14 1753.03,2090.23C1649.04,2065.18 1548.46,2026.7 1458.15,2112.02C1451.71,2118.1 1432.25,2139.92 1428.68,2148.13Z" style="fill:rgb(35,31,32);fill-rule:nonzero;stroke:white;stroke-width:0.24px;"/>
            <path d="M2200.89,1903.57C2180.41,1891.84 2116.05,1893 2012.12,1805.49C1977.94,1776.72 1912.95,1695.59 1907.22,1626.38C1886.06,1805.47 2050.99,1904.56 2200.89,1903.57Z" style="fill:rgb(35,31,32);fill-rule:nonzero;stroke:white;stroke-width:0.24px;"/>
            <path d="M2292.96,1845.46C2360.86,1851.87 2422.89,1846.15 2469.04,1811.01C2499.24,1788.01 2548.6,1738.21 2555.06,1682.49C2530.5,1728.46 2491.11,1748.24 2434.9,1774.03C2385.29,1796.78 2342.58,1826.14 2292.96,1845.46Z" style="fill:rgb(35,31,32);fill-rule:nonzero;stroke:white;stroke-width:0.24px;"/>
            <path d="M2368.43,2306.87C2383.73,2240.99 2405.69,2183.05 2425.07,2118.94C2443.03,2059.51 2457.5,1985.77 2477.71,1930.4L2436.8,2014.51C2410.72,2065.04 2370.91,2138.54 2360.65,2193.75C2355.18,2223.22 2353.47,2284.83 2368.43,2306.87Z" style="fill:rgb(35,31,32);fill-rule:nonzero;stroke:white;stroke-width:0.24px;"/>
            <path d="M2009.95,1695.59C1987.37,1582.52 1979.78,1475.97 2080.66,1358.47C1955.31,1416.88 1920.76,1587.86 2009.95,1695.59Z" style="fill:rgb(35,31,32);fill-rule:nonzero;stroke:white;stroke-width:0.24px;"/>
            <path d="M1880.92,2332.05C1883.02,2338.95 1856.47,2411.12 1850.11,2424.51C1837.22,2451.62 1819.01,2492.64 1783.46,2488.02C1774.16,2473.12 1790.73,2464.74 1757.06,2468.27C1749.82,2481.46 1741.41,2489.17 1748.38,2512.11C1762.09,2557.3 1822.34,2561.49 1850.19,2512.49C1878.7,2462.31 1870.46,2377.81 1890.37,2324.15C1886.29,2326.52 1883.43,2329.69 1880.92,2332.05Z" style="fill:rgb(35,31,32);fill-rule:nonzero;stroke:white;stroke-width:0.24px;"/>
            <path d="M2598.57,1706.69L2569.8,1783.85C2550.41,1831.42 2510.99,1891.93 2522.42,1948.12C2537.92,2024.35 2623.19,1998.55 2606.38,1952.28C2601.26,1938.2 2601.73,1944.43 2591.28,1946.67C2558.1,1953.8 2553.86,1908.55 2558.17,1880.04C2567.04,1821.44 2596.82,1794.29 2598.57,1706.69Z" style="fill:rgb(35,31,32);fill-rule:nonzero;stroke:white;stroke-width:0.24px;"/>
            <path d="M1959.53,2033.62C1954.95,2039.89 1954.05,2048.54 1946.11,2052.13C1925.29,2061.54 1895.74,2027.31 2018.5,1959.16C2028.13,1953.81 2024.07,1958.91 2026.13,1953.37C1998.36,1963.8 1890.33,1954.16 1874.29,2019.98C1866.34,2052.62 1888.99,2077.98 1916,2083.46C1949.52,2090.24 1986.88,2061.46 1959.53,2033.62Z" style="fill:rgb(35,31,32);fill-rule:nonzero;stroke:white;stroke-width:0.24px;"/>
            <path d="M2623.7,2233.16C2649.87,2219.27 2688.35,2139.8 2687.16,2087.98C2685.9,2032.98 2655.31,1962.97 2626.33,1937.62C2639.42,1986.86 2634.96,2035.82 2642.88,2089.04C2653.08,2157.47 2646.61,2178.34 2623.7,2233.16Z" style="fill:rgb(35,31,32);fill-rule:nonzero;stroke:white;stroke-width:0.24px;"/>
            <path d="M2348.04,2150.57C2393.48,2018.8 2483.66,1896.95 2492.02,1871.06C2481.42,1876.74 2449.67,1919 2438.28,1930.62C2405.47,1964.09 2354.53,2009.24 2341.9,2055.78C2335.26,2080.26 2336,2131.5 2348.04,2150.57Z" style="fill:rgb(35,31,32);fill-rule:nonzero;stroke:white;stroke-width:0.24px;"/>
            <path d="M1553.41,1506.51C1563.76,1517.54 1563.76,1524.46 1572.4,1536.91C1572.5,1519.4 1561.35,1469.06 1552.05,1456.18C1510.74,1398.95 1427.7,1474.22 1483.56,1521.73C1494.08,1530.69 1508.05,1533.15 1523.06,1529.52C1543.92,1524.47 1543.41,1518.12 1553.41,1506.51Z" style="fill:rgb(35,31,32);fill-rule:nonzero;stroke:white;stroke-width:0.24px;"/>
            <path d="M2243.38,2334.38C2216,2339.04 2211.88,2344.8 2193.94,2325C2163.45,2291.37 2160.81,2210.02 2156.86,2165.96C2153.58,2209.7 2131.21,2258.15 2153.49,2331.26C2168.16,2379.4 2203.87,2397.32 2232.59,2372.52C2244.9,2361.88 2244.25,2353.28 2243.38,2334.38Z" style="fill:rgb(35,31,32);fill-rule:nonzero;stroke:white;stroke-width:0.24px;"/>
            <path d="M1927.86,1330.5C1935.99,1347 1934.26,1355.97 1934.51,1375.93C1946.13,1355.79 1951.72,1316.92 1941.24,1291.24C1914.27,1225.2 1819.86,1279.59 1864.53,1333.93C1883.24,1356.68 1913.42,1352.51 1927.86,1330.5Z" style="fill:rgb(35,31,32);fill-rule:nonzero;stroke:white;stroke-width:0.24px;"/>
            <path d="M2739.3,1654.7C2740.53,1639.74 2751.61,1619.9 2753.01,1593.94C2756.31,1533.12 2720.95,1486.39 2692.47,1437.59L2683.07,1425.67C2689.11,1502.48 2689.82,1540.22 2723.07,1599.85C2737.63,1625.97 2734.9,1622 2739.3,1654.7Z" style="fill:rgb(35,31,32);fill-rule:nonzero;stroke:white;stroke-width:0.24px;"/>
            <path d="M2612.8,2109.76C2589.2,2115.21 2574.56,2125.23 2541.83,2087.94C2515.24,2057.63 2510.06,2031.56 2502.04,2023.06C2502.91,2073.34 2523.04,2192.8 2591.28,2166.26C2614.84,2157.1 2615.73,2138.71 2612.8,2109.76Z" style="fill:rgb(35,31,32);fill-rule:nonzero;stroke:white;stroke-width:0.24px;"/>
            <path d="M2172.74,2580.08C2167.57,2557.29 2159.17,2548.54 2157.06,2519C2155.15,2492.27 2160.49,2471.13 2160.15,2445.84C2159.55,2402.35 2138.78,2365.4 2131.65,2322.22C2119.76,2399.48 2106.8,2455.93 2139.22,2530.22C2145.74,2545.17 2160.84,2569.48 2172.74,2580.08Z" style="fill:rgb(35,31,32);fill-rule:nonzero;stroke:white;stroke-width:0.24px;"/>
            <path d="M2201.93,1330.79C2277.24,1299.33 2362.07,1269.94 2435.65,1317.27C2380.01,1231.19 2258.48,1260.86 2201.93,1330.79Z" style="fill:rgb(35,31,32);fill-rule:nonzero;stroke:white;stroke-width:0.24px;"/>
            <path d="M1821.89,2044C1810.11,2032.47 1759.36,2001.28 1738.98,1993.12C1709.39,1981.27 1656.58,1973.81 1620.84,1973.78L1712.47,2019.91C1746.3,2035.83 1780.25,2044.33 1821.89,2044Z" style="fill:rgb(35,31,32);fill-rule:nonzero;stroke:white;stroke-width:0.24px;"/>
            <path d="M2435.87,784.03C2423.79,780.26 2334.88,824.82 2319.98,832.86C2336,840.38 2432.78,791.78 2445.37,790.31C2453.71,789.33 2461.12,790.09 2467.8,787.32C2496.78,775.33 2487.74,732.99 2459.28,729.59C2423.07,725.25 2421.23,764.79 2435.87,784.03Z" style="fill:rgb(35,31,32);fill-rule:nonzero;stroke:white;stroke-width:0.24px;"/>
            <path d="M2296.26,814.11C2306.99,814.39 2348.81,763.52 2364.21,746.22C2371.76,737.73 2376.66,729.18 2385.36,719.51C2407.2,741.56 2446.11,708.89 2429.26,681.26C2413.67,655.72 2376.21,667.24 2375.44,696.51C2374.77,722.21 2360.6,726.1 2337.89,756.74C2321.47,778.9 2319.54,777.92 2305.45,801.15C2302.79,805.53 2297.53,812.38 2296.26,814.11Z" style="fill:rgb(35,31,32);fill-rule:nonzero;stroke:white;stroke-width:0.24px;"/>
            <path d="M2325.72,693.62C2319.62,705.07 2284.27,790.82 2287.49,808.59C2298.5,786.4 2336.5,724.38 2336.21,696.61C2379.15,696.21 2377.07,647.77 2350.61,639.96C2331.4,634.28 2319.19,643.58 2314.29,656.82C2307.59,674.88 2319.79,683.1 2325.72,693.62Z" style="fill:rgb(35,31,32);fill-rule:nonzero;stroke:white;stroke-width:0.24px;"/>
            <path d="M2272.36,690.98C2268.32,708.2 2262.36,794.44 2269.08,807.1C2276.88,796.28 2287.36,708.77 2283.31,690.78C2321.77,663.5 2294.23,630.9 2269.14,633.06C2239.91,635.56 2229.81,679.94 2272.36,690.98Z" style="fill:rgb(35,31,32);fill-rule:nonzero;stroke:white;stroke-width:0.24px;"/>
            <path d="M2205.01,1545.48C2197.34,1549.13 2202.6,1543 2193.64,1552.7C2169.08,1579.34 2197.28,1626.26 2237.66,1607.84C2277.74,1589.57 2248.56,1524.71 2205.01,1545.48Z" style="fill:rgb(35,31,32);fill-rule:nonzero;stroke:white;stroke-width:0.24px;"/>
            <path d="M1880.92,2332.05C1880.8,2332.1 1768.48,2407.84 1782.65,2438.05C1790.53,2452.57 1806.29,2447.87 1816.16,2438.79C1823.31,2432.22 1877.48,2339.59 1880.92,2332.05Z" style="fill:rgb(35,31,32);fill-rule:nonzero;stroke:white;stroke-width:0.24px;"/>
            <path d="M2594.06,1915.29C2631.86,1914.77 2623.96,1885.71 2616.82,1856.64C2612.87,1840.55 2604.54,1795.1 2599,1783.5C2591.67,1863.11 2563.9,1874.95 2594.06,1915.29Z" style="fill:rgb(35,31,32);fill-rule:nonzero;stroke:white;stroke-width:0.24px;"/>
            <path d="M2691.6,1705.03C2681.34,1714.84 2692.57,1716.63 2675.19,1716.09C2658.06,1692.33 2679.35,1675.66 2668.95,1628.45C2666.74,1618.4 2665.91,1608.97 2659.41,1600.85C2653.46,1634.26 2629.64,1739.02 2672.6,1741.49C2694.96,1742.78 2696.69,1722.69 2691.6,1705.03Z" style="fill:rgb(35,31,32);fill-rule:nonzero;stroke:white;stroke-width:0.24px;"/>
            <path d="M2149.62,961.11L2209.91,927.04C2231.64,905.34 2211.71,891.34 2245.09,870.93C2184.65,864.98 2169.06,928.85 2159.61,944.84C2154.83,952.93 2153.49,951.76 2149.62,961.11Z" style="fill:rgb(34,34,34);fill-rule:nonzero;stroke:white;stroke-width:0.24px;"/>
            <path d="M2173.02,2190.74C2172.06,2219 2205.45,2328.55 2233.63,2296.52C2244.94,2283.67 2218.17,2257.51 2206.91,2243.91C2191.36,2225.15 2185.76,2212.8 2173.02,2190.74Z" style="fill:rgb(35,31,32);fill-rule:nonzero;stroke:white;stroke-width:0.24px;"/>
            <g transform="matrix(1,0,0,1,0,2.4)">
                <path d="M2516.85,1994.13C2524.51,2006.82 2570.79,2094.66 2595.62,2070.79C2613.78,2053.33 2576.66,2032.7 2565.92,2027.01C2545.48,2016.2 2534.7,2008.63 2516.85,1994.13Z" style="fill:rgb(35,31,32);fill-rule:nonzero;stroke:white;stroke-width:0.24px;"/>
            </g>
        </g>
    </g>
</svg>
